/* XPM */
static char * add_above_xpm[] = {
"32 32 8 1",
" 	c None",
".	c #000000",
"+	c #494900",
"@	c #BFBF00",
"#	c #C6C600",
"$	c #EDED00",
"%	c #D5D500",
"&	c #C0C000",
"                                ",
"                                ",
"   ..........................   ",
"   ..........................   ",
"   ..........................   ",
"   ..........................   ",
"   ...                    ...   ",
"   ...         ++         ...   ",
"   ...         @@         ...   ",
"   ...         @@         ...   ",
"   ...         @@         ...   ",
"   ...         ##         ...   ",
"   ...    +@@@@$$@@@@+    ...   ",
"   ...    +@@@@$$@@@@+    ...   ",
"   ...         %%         ...   ",
"   ...         &&         ...   ",
"   ...         @@         ...   ",
"   ...         @@         ...   ",
"   ...         ++         ...   ",
"   ...                    ...   ",
"   ..........................   ",
"   ..........................   ",
"   ..........................   ",
"                                ",
"   ..........................   ",
"   ..........................   ",
"   ..........................   ",
"   ...                    ...   ",
"   ...                    ...   ",
"   ...                    ...   ",
"   ...                    ...   ",
"                                "};
