/* XPM */
static char * any_xpm[] = {
"32 32 99 2",
"  	c None",
". 	c #D9D9D9",
"+ 	c #8F8F8F",
"@ 	c #959595",
"# 	c #F5F5F5",
"$ 	c #CACACA",
"% 	c #FBFBFB",
"& 	c #9C9C9C",
"* 	c #464646",
"= 	c #4A4A4A",
"- 	c #626262",
"; 	c #5B5B5B",
"> 	c #FDFDFD",
", 	c #D6D6D6",
"' 	c #727272",
") 	c #858585",
"! 	c #E8E8E8",
"~ 	c #828282",
"{ 	c #444444",
"] 	c #424242",
"^ 	c #4C4C4C",
"/ 	c #3E3E3E",
"( 	c #E6E6E6",
"_ 	c #8C8C8C",
": 	c #474747",
"< 	c #717171",
"[ 	c #A6A6A6",
"} 	c #CECECE",
"| 	c #6C6C6C",
"1 	c #434343",
"2 	c #575757",
"3 	c #2C2C2C",
"4 	c #000000",
"5 	c #B6B6B6",
"6 	c #616161",
"7 	c #414141",
"8 	c #A1A1A1",
"9 	c #5A5A5A",
"0 	c #4B4B4B",
"a 	c #0C0C0C",
"b 	c #030303",
"c 	c #6E6E6E",
"d 	c #4E4E4E",
"e 	c #454545",
"f 	c #707070",
"g 	c #6B6B6B",
"h 	c #656565",
"i 	c #7D7D7D",
"j 	c #646464",
"k 	c #8E8E8E",
"l 	c #A7A7A7",
"m 	c #B5B5B5",
"n 	c #BFBFBF",
"o 	c #B0B0B0",
"p 	c #BCBCBC",
"q 	c #5F5F5F",
"r 	c #F2F2F2",
"s 	c #DCDCDC",
"t 	c #ACACAC",
"u 	c #5C5C5C",
"v 	c #595959",
"w 	c #FCFCFC",
"x 	c #EDEDED",
"y 	c #A2A2A2",
"z 	c #515151",
"A 	c #4F4F4F",
"B 	c #565656",
"C 	c #585858",
"D 	c #202020",
"E 	c #E2E2E2",
"F 	c #7C7C7C",
"G 	c #494949",
"H 	c #3D3D3D",
"I 	c #505050",
"J 	c #020202",
"K 	c #777777",
"L 	c #7E7E7E",
"M 	c #888888",
"N 	c #131313",
"O 	c #0F0F0F",
"P 	c #080808",
"Q 	c #0A0A0A",
"R 	c #AFAFAF",
"S 	c #484848",
"T 	c #535353",
"U 	c #6D6D6D",
"V 	c #212121",
"W 	c #363636",
"X 	c #989898",
"Y 	c #525252",
"Z 	c #0E0E0E",
"` 	c #ADADAD",
" .	c #686868",
"..	c #1F1F1F",
"+.	c #555555",
"@.	c #323232",
"#.	c #272727",
"$.	c #111111",
"%.	c #050505",
"                                                                ",
"                                                                ",
"                                                                ",
"                                                                ",
"                                                                ",
"                                                                ",
"                                                                ",
"                              . + @                             ",
"                  # $       % & * = - ;                         ",
"                > , ' )     ! ~ { ] ^ /                         ",
"                ( _ { : < [ } | 1 1 2 3 4                       ",
"                5 6 ] 7 ^ 8 5 9 7 : 0 a b                       ",
"                  c d e ] 9 f ^ 7 g - * h                       ",
"                    i j : ] ] ] 1 k l m m n                     ",
"                    o p q 1 7 7 { 6 j h 2 6 ;                   ",
"                  r s t u ] 7 7 7 7 ] ] ] ] v                   ",
"              w x y f z e 7 7 7 { A B z { 7 C D                 ",
"              E F G 1 ] ] A h 1 G q H 9 6 j I J                 ",
"                K ] 7 : q L M : ] ; N 4 O P Q 4                 ",
"                R A S T 3 / & z ] T 1 J                         ",
"                  U T V 4 W X 2 ] * Y Z                         ",
"                      J 4   `  .1 e B ..                        ",
"                              f +.v +.V                         ",
"                                @.#.$.%.                        ",
"                                    4                           ",
"                                                                ",
"                                                                ",
"                                                                ",
"                                                                ",
"                                                                ",
"                                                                ",
"                                                                "};
