/* XPM */
static char * archiving_xpm[] = {
"32 32 470 2",
"  	c None",
". 	c #6E7DB1",
"+ 	c #9BA5CA",
"@ 	c #96A1C7",
"# 	c #919DC5",
"$ 	c #8D99C3",
"% 	c #8895C0",
"& 	c #8391BE",
"* 	c #7E8EBB",
"= 	c #7A8AB9",
"- 	c #7586B6",
"; 	c #7082B4",
"> 	c #6C7EB1",
", 	c #687BAF",
"' 	c #677BAF",
") 	c #677AAF",
"! 	c #6679AE",
"~ 	c #6578AE",
"{ 	c #6477AD",
"] 	c #6377AD",
"^ 	c #1A3885",
"/ 	c #5E70A8",
"( 	c #B6BAD9",
"_ 	c #AEB3D6",
": 	c #AAB0D4",
"< 	c #A6ADD2",
"[ 	c #A3AAD1",
"} 	c #9FA6CF",
"| 	c #9BA3CD",
"1 	c #98A0CC",
"2 	c #949DCA",
"3 	c #909AC9",
"4 	c #8C97C7",
"5 	c #8994C5",
"6 	c #8591C4",
"7 	c #818EC2",
"8 	c #7D8BC0",
"9 	c #7A88BF",
"0 	c #7685BD",
"a 	c #7282BC",
"b 	c #6E7EBA",
"c 	c #6576B5",
"d 	c #0D2B74",
"e 	c #6C7DB0",
"f 	c #AFB4D6",
"g 	c #ABB0D4",
"h 	c #A8ADD3",
"i 	c #A4AAD1",
"j 	c #A0A7D0",
"k 	c #9CA4CE",
"l 	c #99A1CC",
"m 	c #959ECB",
"n 	c #919BC9",
"o 	c #8D98C7",
"p 	c #8A95C6",
"q 	c #8692C4",
"r 	c #828FC3",
"s 	c #7E8CC1",
"t 	c #7B89BF",
"u 	c #7785BE",
"v 	c #7382BC",
"w 	c #6F7FBA",
"x 	c #6C7CB9",
"y 	c #6879B7",
"z 	c #28448C",
"A 	c #7080B3",
"B 	c #ACB1D5",
"C 	c #A9AED3",
"D 	c #A5ABD2",
"E 	c #A1A8D0",
"F 	c #9DA5CE",
"G 	c #9AA2CD",
"H 	c #969FCB",
"I 	c #929CC9",
"J 	c #8E99C8",
"K 	c #8B96C6",
"L 	c #8793C5",
"M 	c #838FC3",
"N 	c #7F8CC1",
"O 	c #7C89C0",
"P 	c #7886BE",
"Q 	c #7483BD",
"R 	c #7180BB",
"S 	c #6D7DB9",
"T 	c #697AB8",
"U 	c #6577B6",
"V 	c #385197",
"W 	c #7C8ABA",
"X 	c #A9AFD4",
"Y 	c #A6ACD2",
"Z 	c #A2A9D0",
"` 	c #9EA6CF",
" .	c #97A0CC",
"..	c #939DCA",
"+.	c #8F9AC8",
"@.	c #8C96C7",
"#.	c #8893C5",
"$.	c #8490C4",
"%.	c #808DC2",
"&.	c #7D8AC0",
"*.	c #7987BF",
"=.	c #7584BD",
"-.	c #7281BB",
";.	c #6A7BB8",
">.	c #6678B6",
",.	c #6375B5",
"'.	c #465DA0",
").	c #0A2056",
"!.	c #3A5192",
"~.	c #98A2C9",
"{.	c #A7ADD3",
"].	c #9FA7CF",
"^.	c #98A1CC",
"/.	c #909BC9",
"(.	c #8D97C7",
"_.	c #8994C6",
":.	c #828EC2",
"<.	c #7E8BC1",
"[.	c #6B7CB9",
"}.	c #6779B7",
"|.	c #6476B5",
"1.	c #6072B4",
"2.	c #495FA5",
"3.	c #0B2565",
"4.	c #304A8F",
"5.	c #ABB1D4",
"6.	c #A4ABD1",
"7.	c #99A2CD",
"8.	c #8E98C8",
"9.	c #7786BE",
"0.	c #7483BC",
"a.	c #7080BB",
"b.	c #6C7DB9",
"c.	c #687AB7",
"d.	c #6576B6",
"e.	c #6173B4",
"f.	c #5D70B3",
"g.	c #6476B6",
"h.	c #0D2A71",
"i.	c #445C9A",
"j.	c #A5ACD2",
"k.	c #9EA5CF",
"l.	c #939CCA",
"m.	c #8F99C8",
"n.	c #8490C3",
"o.	c #7C8AC0",
"p.	c #7887BE",
"q.	c #7181BB",
"r.	c #6A7AB8",
"s.	c #6677B6",
"t.	c #6274B5",
"u.	c #5E71B3",
"v.	c #5B6EB1",
"w.	c #576BB0",
"x.	c #26428B",
"y.	c #4E64A1",
"z.	c #A3A9D1",
"A.	c #8894C5",
"B.	c #7684BD",
"C.	c #7281BC",
"D.	c #6B7BB8",
"E.	c #6778B7",
"F.	c #5F72B3",
"G.	c #5C6FB2",
"H.	c #586CB0",
"I.	c #5469AF",
"J.	c #3D5699",
"K.	c #8494BD",
"L.	c #BEC3DF",
"M.	c #B5BBDA",
"N.	c #B2B9D9",
"O.	c #B0B6D8",
"P.	c #ADB4D7",
"Q.	c #AAB2D5",
"R.	c #A7AFD4",
"S.	c #A4ADD3",
"T.	c #A2ABD2",
"U.	c #9FA9D1",
"V.	c #9CA6CF",
"W.	c #99A4CE",
"X.	c #96A2CD",
"Y.	c #949FCC",
"Z.	c #919DCA",
"`.	c #8E9BC9",
" +	c #8B98C8",
".+	c #8896C7",
"++	c #8694C6",
"@+	c #8391C4",
"#+	c #808FC3",
"$+	c #8897C7",
"%+	c #7C8DB9",
"&+	c #596DA7",
"*+	c #8792C5",
"=+	c #828FC2",
"-+	c #7B89C0",
";+	c #7987BE",
">+	c #3F579C",
",+	c #596CA7",
"'+	c #ABB1D5",
")+	c #E6E8F3",
"!+	c #E4E6F2",
"~+	c #E3E5F1",
"{+	c #E2E4F1",
"]+	c #E0E3F0",
"^+	c #DFE1EF",
"/+	c #DEE0EF",
"(+	c #DCDFEE",
"_+	c #DBDEED",
":+	c #DADDED",
"<+	c #D8DBEC",
"[+	c #D7DAEB",
"}+	c #D6D9EB",
"|+	c #D4D8EA",
"1+	c #D3D7EA",
"2+	c #D2D5E9",
"3+	c #D0D4E8",
"4+	c #CFD3E8",
"5+	c #CED2E7",
"6+	c #ADB5D7",
"7+	c #3E569C",
"8+	c #586BA7",
"9+	c #B0B7D8",
"0+	c #F6F7FB",
"a+	c #F1F2F8",
"b+	c #EBEDF5",
"c+	c #E1E3F0",
"d+	c #DBDFEE",
"e+	c #D6DAEB",
"f+	c #C4C7D3",
"g+	c #BEBFC4",
"h+	c #BFC0C6",
"i+	c #BEBFC5",
"j+	c #BCBEC5",
"k+	c #B3B7CA",
"l+	c #B1B8D9",
"m+	c #ACB3D7",
"n+	c #A7AED4",
"o+	c #A1AAD2",
"p+	c #9CA5CF",
"q+	c #919BCA",
"r+	c #BFC6E0",
"s+	c #3D559B",
"t+	c #576BA6",
"u+	c #ABB2D6",
"v+	c #F2F3F9",
"w+	c #EDEEF6",
"x+	c #E7EAF4",
"y+	c #E2E5F1",
"z+	c #DDE0EE",
"A+	c #D2D6E9",
"B+	c #9D9FAA",
"C+	c #BABABA",
"D+	c #D3D3D3",
"E+	c #8F92A3",
"F+	c #A8B0D5",
"G+	c #A3ABD2",
"H+	c #9DA6D0",
"I+	c #98A1CD",
"J+	c #939DCB",
"K+	c #BCC3DF",
"L+	c #3C559B",
"M+	c #566AA6",
"N+	c #A5AED3",
"O+	c #EEF0F7",
"P+	c #E9EBF4",
"Q+	c #E3E6F2",
"R+	c #DEE1EF",
"S+	c #D9DDED",
"T+	c #888B96",
"U+	c #A6A6A6",
"V+	c #C6C6C6",
"W+	c #7A7D8F",
"X+	c #AAB1D5",
"Y+	c #A4ACD3",
"Z+	c #9FA7D0",
"`+	c #9AA3CE",
" @	c #949ECB",
".@	c #8F99C9",
"+@	c #8A94C6",
"@@	c #B9C1DD",
"#@	c #3C549A",
"$@	c #5569A6",
"%@	c #EAECF5",
"&@	c #E5E7F2",
"*@	c #E0E2F0",
"=@	c #DADEED",
"-@	c #D5D9EB",
";@	c #B6B8C2",
">@	c #AEAFB5",
",@	c #ADAEB5",
"'@	c #ABADB4",
")@	c #AAACB3",
"!@	c #A9AAB3",
"~@	c #A7A9B2",
"{@	c #A3A6B2",
"]@	c #A0A9D1",
"^@	c #9BA4CF",
"/@	c #969FCC",
"(@	c #919AC9",
"_@	c #8B95C7",
":@	c #8691C4",
"<@	c #B6BEDC",
"[@	c #3B539A",
"}@	c #5468A5",
"|@	c #9AA4CE",
"1@	c #E7E9F3",
"2@	c #E1E4F1",
"3@	c #D1D5E9",
"4@	c #CCD1E6",
"5@	c #898B97",
"6@	c #67696F",
"7@	c #66686F",
"8@	c #65666E",
"9@	c #63656E",
"0@	c #62646D",
"a@	c #61636C",
"b@	c #707486",
"c@	c #9DA5CF",
"d@	c #97A1CD",
"e@	c #929CCA",
"f@	c #8D97C8",
"g@	c #8892C5",
"h@	c #828DC2",
"i@	c #B3BBDB",
"j@	c #3A539A",
"k@	c #94A0CC",
"l@	c #E8EAF4",
"m@	c #D8DCEC",
"n@	c #C8CDE4",
"o@	c #C3C8E2",
"p@	c #B8BFDD",
"q@	c #B3BADA",
"r@	c #AEB5D8",
"s@	c #A9B0D5",
"t@	c #A3ACD3",
"u@	c #9EA7D0",
"v@	c #949DCB",
"w@	c #8993C6",
"x@	c #848FC3",
"y@	c #97A0CD",
"z@	c #B0B9D9",
"A@	c #395299",
"B@	c #5367A4",
"C@	c #8D9AC9",
"D@	c #8C99C8",
"E@	c #8B99C8",
"F@	c #8A98C8",
"G@	c #8A97C7",
"H@	c #8997C7",
"I@	c #8795C6",
"J@	c #8593C5",
"K@	c #8493C5",
"L@	c #8492C5",
"M@	c #8392C5",
"N@	c #8291C4",
"O@	c #385199",
"P@	c #5266A4",
"Q@	c #8995C6",
"R@	c #375199",
"S@	c #5166A4",
"T@	c #FAFBFD",
"U@	c #F6F6FA",
"V@	c #F1F3F8",
"W@	c #EEEFF7",
"X@	c #EAEBF5",
"Y@	c #DDE0EC",
"Z@	c #DADCE7",
"`@	c #D8DAE6",
" #	c #D5D8E4",
".#	c #D2D5E3",
"+#	c #CDD1E3",
"@#	c #C6CBE3",
"##	c #C2C7E1",
"$#	c #BEC4DF",
"%#	c #BAC0DE",
"&#	c #B6BDDC",
"*#	c #B2B9DA",
"=#	c #B7BFDC",
"-#	c #375098",
";#	c #5065A3",
">#	c #F4F5FA",
",#	c #EFF0F7",
"'#	c #E4E7F2",
")#	c #DFE2F0",
"!#	c #D5D8EA",
"~#	c #B8BAC4",
"{#	c #B5B5B5",
"]#	c #BCBCBC",
"^#	c #AAADBD",
"/#	c #B0B7D9",
"(#	c #AAB2D6",
"_#	c #A5ADD3",
":#	c #A0A8D1",
"<#	c #9BA3CE",
"[#	c #959FCC",
"}#	c #BAC2DE",
"|#	c #364F98",
"1#	c #4F64A3",
"2#	c #92949F",
"3#	c #BDBDBD",
"4#	c #DEDEDE",
"5#	c #848798",
"6#	c #B7BFDD",
"7#	c #354F97",
"8#	c #4E64A3",
"9#	c #CDD1E7",
"0#	c #979BA9",
"a#	c #A8A9B0",
"b#	c #BDBEC5",
"c#	c #BBBDC5",
"d#	c #BABCC4",
"e#	c #868AA1",
"f#	c #8893C6",
"g#	c #B4BDDB",
"h#	c #344E97",
"i#	c #4E63A2",
"j#	c #ADAFB9",
"k#	c #A2A3A9",
"l#	c #A0A2A8",
"m#	c #9FA0A8",
"n#	c #9E9FA7",
"o#	c #9C9EA6",
"p#	c #9B9DA6",
"q#	c #989AA6",
"r#	c #858FC4",
"s#	c #B1BADA",
"t#	c #334D97",
"u#	c #4D62A2",
"v#	c #CBCFE6",
"w#	c #9699A8",
"x#	c #838593",
"y#	c #808392",
"z#	c #7D8190",
"A#	c #7B7E8F",
"B#	c #787C8E",
"C#	c #75798D",
"D#	c #787D94",
"E#	c #818CC2",
"F#	c #AEB8D9",
"G#	c #324C96",
"H#	c #4C61A1",
"I#	c #8794C6",
"J#	c #D9DCED",
"K#	c #CED3E7",
"L#	c #CCD0E6",
"M#	c #C9CEE5",
"N#	c #C6CBE4",
"O#	c #C4C9E2",
"P#	c #C1C7E1",
"Q#	c #C7CCE4",
"R#	c #A0ACD2",
"S#	c #314C96",
"T#	c #435A9D",
"U#	c #6B7CB8",
"V#	c #6274B4",
"W#	c #6073B4",
"X#	c #5D70B2",
"Y#	c #596DB1",
"Z#	c #566AAF",
"`#	c #314B96",
" $	c #1D3B86",
".$	c #7D8ABF",
"+$	c #7685BE",
"@$	c #6475B5",
"#$	c #6174B4",
"$$	c #5A6EB1",
"%$	c #4F64AB",
"&$	c #1B3986",
"*$	c #0D2971",
"=$	c #081B4A",
"              . + @ # $ % & * = - ; > , ' ) ! ~ { ] ^           ",
"            / ( _ : < [ } | 1 2 3 4 5 6 7 8 9 0 a b c d         ",
"            e f g h i j k l m n o p q r s t u v w x y z         ",
"            A B C D E F G H I J K L M N O P Q R S T U V         ",
"            W X Y Z ` |  ...+.@.#.$.%.&.*.=.-.b ;.>.,.'.).      ",
"          !.~.{.[ ].k ^.2 /.(._.6 :.<.9 0 v w [.}.|.1.2.3.      ",
"          4.5.6.E F 7.m n 8.p q M N t 9.0.a.b.c.d.e.f.g.h.      ",
"          i.j.E k.G H l.m.K L n.%.o.p.=.q.S r.s.t.u.v.w.x.      ",
"          y.z.} |  .2 3 4 A.6 7 8 *.B.C.b D.E.,.F.G.H.I.J.      ",
"          K.L.M.N.O.P.Q.R.S.T.U.V.W.X.Y.Z.`. +.+++@+#+$+%+      ",
"          &+[ E ` k G  .m l.3 8.@._.*+6 =+%.8 -+;+0 0.-.>+      ",
"          ,+'+)+!+~+{+]+^+/+(+_+:+<+[+}+|+1+2+3+4+5+1+6+7+      ",
"          8+9+0+a+b+)+c+d+e+f+g+h+i+j+k+l+m+n+o+p+ .q+r+s+      ",
"          t+u+v+w+x+y+z+<+A+B+C+D+D+D+E+P.F+G+H+I+J+8.K+L+      ",
"          M+N+O+P+Q+R+S+|+4+T+U+V+V+V+W+X+Y+Z+`+ @.@+@@@#@      ",
"          $@U.%@&@*@=@-@3+;@>@,@'@)@!@~@{@]@^@/@(@_@:@<@[@      ",
"          }@|@1@2@(+[+3@4@5@6@7@8@9@0@a@b@c@d@e@f@g@h@i@j@      ",
"          }@k@l@/+m@1+5+n@o@L.p@q@r@s@t@u@7.v@8.w@x@y@z@A@      ",
"          B@A.C@C@D@E@ +F@G@H@.+.+I@I@++++J@K@L@M@@+N@}.O@      ",
"          P@H l  .H m 2 l.I 3 +.J o 4 K Q@A.L q 6 n.r -.R@      ",
"          S@9+T@U@V@W@X@)+{+Y@Z@`@ #.#+#@###$#%#&#*#o@=#-#      ",
"          ;#u+>#,#%@'#)#:+!#~#{#]#]#]#^#/#(#_#:#<#[#3 }#|#      ",
"          1#N+a+b+)+c+d+e+3@2#3#4#4#4#5#m+n+o+p+ .q+@.6#7#      ",
"          8#U.w+x+y+z+<+A+9#0#a#b#c#d#e#F+G+H+I+J+8.f#g#h#      ",
"          i#|@P+Q+R+S+|+4+j#k#l#m#n#o#p#q#Z+`+ @.@+@r#s#t#      ",
"          u#k@&@*@=@-@3+v#w#x#y#z#A#B#C#D#^@/@(@_@:@E#F#G#      ",
"          H#I#v+O+b+P+)+Q+c+R+d+J#e+|+3@K#L#M#N#O#P#Q#R#S#      ",
"          T#%.9.=.0.-.a.b b.U#T }.U |.V#W#u.X#v.Y#w.Z#I.`#      ",
"           $.$r %.<.-+;++$0.C.w S D.y >.@$#$F.X#$$H.Z#%$&$      ",
"            d h.*$*$*$*$*$*$*$*$*$*$*$*$*$*$*$*$*$*$*$*$=$      ",
"                                                                ",
"                                                                "};
