/* XPM */
static char * ascending_xpm[] = {
"48 48 230 2",
"  	c None",
". 	c #000000",
"+ 	c #73683E",
"@ 	c #B5A362",
"# 	c #B5A35F",
"$ 	c #B5A05D",
"% 	c #B4A059",
"& 	c #B29D57",
"* 	c #B29C54",
"= 	c #B19B50",
"- 	c #7C6B36",
"; 	c #938550",
"> 	c #EED680",
", 	c #EED67F",
"' 	c #ECD37B",
") 	c #EBD277",
"! 	c #EACF73",
"~ 	c #EACC6F",
"{ 	c #E8CA6B",
"] 	c #E7C867",
"^ 	c #9F8944",
"/ 	c #EED47D",
"( 	c #ECD279",
"_ 	c #EBCF75",
": 	c #EACE71",
"< 	c #EACB6D",
"[ 	c #E8CA69",
"} 	c #E7C665",
"| 	c #9F8844",
"1 	c #EED67D",
"2 	c #EBD075",
"3 	c #EACC6D",
"4 	c #E7C765",
"5 	c #E6C661",
"6 	c #9F8640",
"7 	c #93854F",
"8 	c #E7C663",
"9 	c #E6C35F",
"0 	c #9E863F",
"a 	c #93844F",
"b 	c #E6C461",
"c 	c #E6C25D",
"d 	c #9E853E",
"e 	c #92834B",
"f 	c #E6C35D",
"g 	c #E4C059",
"h 	c #9C833B",
"i 	c #EBCF74",
"j 	c #EACC70",
"k 	c #EACA6C",
"l 	c #E8C868",
"m 	c #E7C664",
"n 	c #E6C360",
"o 	c #E6C25C",
"p 	c #E4BF58",
"q 	c #9C833A",
"r 	c #928149",
"s 	c #E3BE55",
"t 	c #9C8139",
"u 	c #040402",
"v 	c #B09B55",
"w 	c #E2BC51",
"x 	c #B7963E",
"y 	c #070502",
"z 	c #050401",
"A 	c #020201",
"B 	c #17140C",
"C 	c #17140B",
"D 	c #18150C",
"E 	c #938349",
"F 	c #EACE70",
"G 	c #E3BE54",
"H 	c #E2BA50",
"I 	c #E2B84C",
"J 	c #997C31",
"K 	c #181407",
"L 	c #151106",
"M 	c #151105",
"N 	c #030201",
"O 	c #2F2409",
"P 	c #010100",
"Q 	c #C4B06A",
"R 	c #E2BB51",
"S 	c #E2BA4D",
"T 	c #E0B749",
"U 	c #DFB445",
"V 	c #DEB241",
"W 	c #DEB03D",
"X 	c #DCAE39",
"Y 	c #C1962F",
"Z 	c #070501",
"` 	c #5D4610",
" .	c #5D5231",
"..	c #E4C05B",
"+.	c #E2BA4F",
"@.	c #E0B74B",
"#.	c #DFB645",
"$.	c #DEB341",
"%.	c #DEB23F",
"&.	c #DCAE3B",
"*.	c #DBAC35",
"=.	c #624C17",
"-.	c #33270B",
";.	c #624A11",
">.	c #0E0C07",
",.	c #E3CA74",
"'.	c #E6C460",
").	c #E0B648",
"!.	c #DFB444",
"~.	c #DEB240",
"{.	c #DEAF3C",
"].	c #DCAE38",
"^.	c #D8A734",
"/.	c #150F04",
"(.	c #6B5316",
"_.	c #877744",
":.	c #DBAB35",
"<.	c #8C6D20",
"[.	c #AE8525",
"}.	c #2B2615",
"|.	c #E7C767",
"1.	c #E6C663",
"2.	c #E4C25B",
"3.	c #E3BE57",
"4.	c #E2BC53",
"5.	c #DFB647",
"6.	c #DEB343",
"7.	c #DBAC37",
"8.	c #DAAA33",
"9.	c #34280B",
"0.	c #140F05",
"a.	c #DAA72D",
"b.	c #B79E55",
"c.	c #DBAB34",
"d.	c #B78E29",
"e.	c #473712",
"f.	c #514625",
"g.	c #DAAA31",
"h.	c #594412",
"i.	c #826620",
"j.	c #090804",
"k.	c #D8B95D",
"l.	c #E0B84B",
"m.	c #D5A52D",
"n.	c #0F0B03",
"o.	c #C69B30",
"p.	c #796733",
"q.	c #E2BB50",
"r.	c #DAA830",
"s.	c #81621A",
"t.	c #251C0B",
"u.	c #221C0E",
"v.	c #2C2109",
"w.	c #5C4919",
"x.	c #A58A3F",
"y.	c #DAA82F",
"z.	c #AE8522",
"A.	c #9C7C2B",
"B.	c #463B19",
"C.	c #DAA62C",
"D.	c #503D0F",
"E.	c #090703",
"F.	c #D8AB3C",
"G.	c #050402",
"H.	c #CCA846",
"I.	c #CE9F28",
"J.	c #0A0802",
"K.	c #372E11",
"L.	c #6D5A24",
"M.	c #DCAF3B",
"N.	c #D8A62B",
"O.	c #775A15",
"P.	c #715C23",
"Q.	c #1A1508",
"R.	c #DEB344",
"S.	c #DAAA30",
"T.	c #D8A429",
"U.	c #231A06",
"V.	c #B69539",
"W.	c #96782C",
"X.	c #D8A629",
"Y.	c #A17B1C",
"Z.	c #171308",
"`.	c #3C3010",
" +	c #D7A327",
".+	c #46340B",
"++	c #4C3E1A",
"@+	c #C19732",
"#+	c #DAA62D",
"$+	c #C79522",
"%+	c #060501",
"&+	c #8A712F",
"*+	c #604C17",
"=+	c #D7A325",
"-+	c #6C5110",
";+	c #D0AB48",
">+	c #140E04",
",+	c #D6A62E",
"'+	c #D6A223",
")+	c #1B1504",
"!+	c #292210",
"~+	c #89681D",
"{+	c #D7A225",
"]+	c #957017",
"^+	c #615125",
"/+	c #31260A",
"(+	c #D6A021",
"_+	c #3C2D09",
":+	c #A4893E",
"<+	c #B3871F",
"[+	c #BD8D1C",
"}+	c #040300",
"|+	c #0B0904",
"1+	c #DFBA54",
"2+	c #553F0E",
"3+	c #62480E",
"4+	c #3C3319",
"5+	c #0D0A02",
"6+	c #150F02",
"7+	c #C0A44F",
"8+	c #1A170B",
"9+	c #0C0A05",
"0+	c #272110",
"a+	c #27210F",
"b+	c #26200E",
"c+	c #261F0C",
"d+	c #261E0B",
"e+	c #251E0A",
"f+	c #251D07",
"g+	c #130E03",
"                                                                                                ",
"                                                                                                ",
"                    . . . . . . . . . . . .                                                     ",
"                  . . . . . . . . . . . . . .                                         . .       ",
"                . . . . . . . . . . . . . . . .                                     . . .       ",
"                . . . + @ @ # $ % & * = - . . .                                     . . .       ",
"                . . . ; > , ' ) ! ~ { ] ^ . . .                                     . . .       ",
"                . . . ; > / ( _ : < [ } | . . .                                   . . . .       ",
"                . . . ; 1 ( 2 : 3 [ 4 5 6 . . .                                   . . . .       ",
"                . . . 7 ' ) ! ~ { ] 8 9 0 . . .                                   . . . .       ",
"                . . . a ( _ : < [ } b c d . . .                                   . . . .       ",
"                . . . e 2 : 3 [ 4 5 f g h . . .                                 . . . . .       ",
"                . . . e i j k l m n o p q . . .                                 . . . . .       ",
"      . . . . . . . . r : < [ } b c g s t . . . . . . . .                       . . . . .       ",
"      . . . . . . . u v 3 [ 4 5 f g s w x y . . . . . . . .                     . . z . .       ",
"      . . A B B C D E F k l m n o p G H I J K L M M N . .                     . . . O . .       ",
"      . . P Q / ( 2 : < [ } b c g s R S T U V W X Y N . .                     . . Z ` . .       ",
"      . . .  .' 2 : 3 { 4 5 9 ..s w +.@.#.$.%.&.*.=.. . .                     . . -.;.. .       ",
"        . . >.,.i F k l m '.o p G H I ).!.~.{.].^./.. .                     . . . (.;.. .       ",
"        . . . _.: < [ 4 b c g s R S T U V W X :.<.. . .                     . . . [.;.. .       ",
"          . . }.~ { |.1.9 2.3.4.+.@.5.6.%.&.7.8.9.. .                       . . 0.a.;.. .       ",
"          . . . b.l m '.o p G H I ).!.~.{.].c.d.P . .                       . . e.a.;.. .       ",
"            . . f.4 b c g s R S T U V W X :.g.h.. . .                     . . . i.a.;.. .       ",
"            . . j.k.9 2.3.4.+.l.5.6.%.&.7.8.m.n.. .                       . . P o.a.;.. .       ",
"            . . . p.o p G q.I ).!.~.{.].c.r.s.. . .                       . . t.:.a.;.. .       ",
"              . . u.g s R S T #.V W X :.g.a.v.. .                         . . w.:.a.;.. .       ",
"              . . . x.4.+.l.5.6.%.&.7.8.y.z.. . .                       . . . A.:.a.;.. .       ",
"                . . B.q.I ).!.~.{.].c.r.C.D.. .                         . . E.F.:.a.;.. .       ",
"                . . G.H.T #.V W X *.g.a.I.J.. .                         . . K.W :.a.;.. .       ",
"                . . . L.5.6.%.M.7.8.y.N.O.. . .                       . . . P.W :.a.;.. .       ",
"                  . . Q.R.~.{.X c.S.C.T.U.. .                         . . . V.W :.a.;.. .       ",
"                  . . . W.W X *.g.a.X.Y.. . .                         . . Z.#.W :.a.;.. .       ",
"                    . . `.M.7.8.y.N. +.+. .                           . . ++#.W :.a.;.. .       ",
"                    . . N @+:.g.#+T.$+%+. .                         . . . &+#.W :.a.;.. .       ",
"                    . . . *+g.a.X.=+-+. . .                         . . A ;+#.W :.a.;.. .       ",
"                      . . >+,+N. +'+)+. .                           . . !+S #.W :.a.;.. .       ",
"                      . . . ~+T.{+]+. . .                         . . . ^+S #.W :.a.;.. .       ",
"                        . . /+=+(+_+. .                           . . . :+S #.W :.a.;.. .       ",
"                        . . P <+[+}+. .                           . . |+1+S #.W :.a.;.. .       ",
"                        . . . 2+3+. . .                           . . 4+s S #.W :.a.;.. .       ",
"                          . . 5+6+. .                           . . . p.s S #.W :.a.;.. .       ",
"                          . . . . . .                           . . . 7+s S #.W :.a.;.. .       ",
"                            . . . .                             . . 8+9 s S #.W :.a.;.. .       ",
"                            . . . .                             . . 9+0+a+b+c+d+e+f+g+. .       ",
"                              . . .                           . . . . . . . . . . . . . .       ",
"                              . .                               . . . . . . . . . . . . .       ",
"                                                                                                ",
"                                                                                                "};
