/* XPM */
static char * calendar_xpm[] = {
"32 32 624 2",
"  	c None",
". 	c #1F52B7",
"+ 	c #2E5FC1",
"@ 	c #4170CF",
"# 	c #4974CC",
"$ 	c #4E75C4",
"% 	c #2551AF",
"& 	c #355DB9",
"* 	c #486FC8",
"= 	c #5178CE",
"- 	c #5F85D7",
"; 	c #789AE6",
"> 	c #87A7ED",
", 	c #98B7F7",
"' 	c #A3BFF9",
") 	c #B4CCFE",
"! 	c #C8DAFF",
"~ 	c #DDEAFF",
"{ 	c #F0F7FF",
"] 	c #FCFFFF",
"^ 	c #FEFFFF",
"/ 	c #3D5583",
"( 	c #1F4BA6",
"_ 	c #3459B1",
": 	c #4667BC",
"< 	c #5673C3",
"[ 	c #6681CD",
"} 	c #728ED9",
"| 	c #7E9AE3",
"1 	c #8DA7EE",
"2 	c #9FB8FB",
"3 	c #9EB8FA",
"4 	c #A9C3FE",
"5 	c #AEC7FE",
"6 	c #90ADED",
"7 	c #B2C9FA",
"8 	c #B9CFFA",
"9 	c #88A4DE",
"0 	c #B4C9F0",
"a 	c #ADC1E7",
"b 	c #9DB2DB",
"c 	c #CBD9F1",
"d 	c #EDF5FF",
"e 	c #EEF4FF",
"f 	c #F2F7FF",
"g 	c #FAFCFF",
"h 	c #FAFEFF",
"i 	c #38507E",
"j 	c #6871FD",
"k 	c #8485FE",
"l 	c #8DA9FF",
"m 	c #8FB3FF",
"n 	c #92B6FF",
"o 	c #96BAFF",
"p 	c #99BCFF",
"q 	c #9ABDFF",
"r 	c #5781D3",
"s 	c #305EB8",
"t 	c #537BCC",
"u 	c #587FCD",
"v 	c #2B58B1",
"w 	c #3660B5",
"x 	c #6487CC",
"y 	c #6284C8",
"z 	c #7996D0",
"A 	c #B9CDF2",
"B 	c #8AA3D4",
"C 	c #B3C6E9",
"D 	c #E6F0FF",
"E 	c #E7F0FF",
"F 	c #EDF4FF",
"G 	c #F5F9FF",
"H 	c #F6FCFF",
"I 	c #38507F",
"J 	c #6064FF",
"K 	c #6668FF",
"L 	c #6D97FF",
"M 	c #75A6FF",
"N 	c #7AA7FF",
"O 	c #80ABFF",
"P 	c #87AFFF",
"Q 	c #8FB4FF",
"R 	c #8CB0FA",
"S 	c #5781D4",
"T 	c #426EC4",
"U 	c #335FB9",
"V 	c #335AB4",
"W 	c #7193D5",
"X 	c #1E4CA8",
"Y 	c #4C72BF",
"Z 	c #7393D2",
"` 	c #7795D0",
" .	c #A3BAE6",
"..	c #95ACDB",
"+.	c #B4C6EA",
"@.	c #E6F1FF",
"#.	c #EBF3FF",
"$.	c #F3F9FF",
"%.	c #F5FAFF",
"&.	c #EBF4FF",
"*.	c #355083",
"=.	c #606EFF",
"-.	c #687AFF",
";.	c #6D9AFF",
">.	c #74A3FF",
",.	c #79A5FF",
"'.	c #7EA9FF",
").	c #85ADFF",
"!.	c #8BB2FF",
"~.	c #95BAFF",
"{.	c #648CDD",
"].	c #0C3DA1",
"^.	c #5B82D2",
"/.	c #3C68BE",
"(.	c #2755B0",
"_.	c #4871C1",
":.	c #83A2E0",
"<.	c #6285CA",
"[.	c #ACC3F0",
"}.	c #A9C0ED",
"|.	c #A2BAE9",
"1.	c #C2D3F8",
"2.	c #BFD0F2",
"3.	c #AABEE4",
"4.	c #A3B6DB",
"5.	c #A8B9DA",
"6.	c #899BBE",
"7.	c #11213D",
"8.	c #6080FF",
"9.	c #688DFF",
"0.	c #6B9AFF",
"a.	c #72A0FF",
"b.	c #76A4FF",
"c.	c #7BA8FF",
"d.	c #83ACFF",
"e.	c #8DB4FF",
"f.	c #7FA7F4",
"g.	c #2A59B8",
"h.	c #3B68C2",
"i.	c #6A92DF",
"j.	c #8EB1F4",
"k.	c #6E94DF",
"l.	c #9AB9F5",
"m.	c #9FBBF3",
"n.	c #8CA9E3",
"o.	c #8FA9DC",
"p.	c #94AAD6",
"q.	c #99ACD2",
"r.	c #95A8CA",
"s.	c #9FAFCA",
"t.	c #B4BED0",
"u.	c #BCC5D4",
"v.	c #CAD3DF",
"w.	c #9CA2A9",
"x.	c #6394FF",
"y.	c #699CFF",
"z.	c #699DFF",
"A.	c #70A2FF",
"B.	c #77A6FF",
"C.	c #7BA9FF",
"D.	c #7BA6FC",
"E.	c #7CA5F6",
"F.	c #769DEC",
"G.	c #769CE6",
"H.	c #7F9FDF",
"I.	c #84A0D6",
"J.	c #91A7D0",
"K.	c #91A4C8",
"L.	c #9BABC7",
"M.	c #B0BACC",
"N.	c #B2BCCE",
"O.	c #BAC3D4",
"P.	c #B3BFD4",
"Q.	c #BCC7DB",
"R.	c #C2CCDF",
"S.	c #D9DFE6",
"T.	c #DCE2E8",
"U.	c #E3E9F0",
"V.	c #A9B0B7",
"W.	c #4F86F3",
"X.	c #5A8FFA",
"Y.	c #598DF7",
"Z.	c #5687EA",
"`.	c #5281DE",
" +	c #5B83D6",
".+	c #6B8CD0",
"++	c #6686C4",
"@+	c #6985BC",
"#+	c #9EADC8",
"$+	c #A6B2C7",
"%+	c #6A83B4",
"&+	c #A4B0C5",
"*+	c #8E9FC0",
"=+	c #879BC1",
"-+	c #93A6C9",
";+	c #94A8CE",
">+	c #6D8AC3",
",+	c #7893C8",
"'+	c #8EA4D0",
")+	c #B2C1DD",
"!+	c #A2B5D8",
"~+	c #E0E4EA",
"{+	c #E2E8EF",
"]+	c #AAB1B8",
"^+	c #112342",
"/+	c #5C75A3",
"(+	c #5F77A4",
"_+	c #7F90AE",
":+	c #AFBACC",
"<+	c #BAC0CA",
"[+	c #365CA6",
"}+	c #627EB4",
"|+	c #6A84B7",
"1+	c #5573B0",
"2+	c #2F51A5",
"3+	c #3159AA",
"4+	c #4967B1",
"5+	c #92A8D1",
"6+	c #456BB5",
"7+	c #708DC5",
"8+	c #889FCE",
"9+	c #A1B2D6",
"0+	c #C0CBE0",
"a+	c #BAC7DF",
"b+	c #A1B3D6",
"c+	c #BCC8DD",
"d+	c #A8B8D6",
"e+	c #B4C3DE",
"f+	c #A9B1B9",
"g+	c #989C9C",
"h+	c #9B9F9F",
"i+	c #9EA3A6",
"j+	c #CFD3D8",
"k+	c #CACED3",
"l+	c #C3C8D0",
"m+	c #3C5CA8",
"n+	c #8196BE",
"o+	c #244FA3",
"p+	c #4066B0",
"q+	c #708CC4",
"r+	c #7A94C7",
"s+	c #A9B9D9",
"t+	c #DBE1EC",
"u+	c #B1C0DC",
"v+	c #B9C6DE",
"w+	c #B0C0DC",
"x+	c #A9BBD9",
"y+	c #A2B5D6",
"z+	c #90A6CF",
"A+	c #9CAED2",
"B+	c #A8B8D7",
"C+	c #B2C0DA",
"D+	c #CAD4E6",
"E+	c #B1B7BF",
"F+	c #91979E",
"G+	c #969CA2",
"H+	c #8D949B",
"I+	c #C8CDD4",
"J+	c #C8CCD2",
"K+	c #8EA0C1",
"L+	c #C1C8D2",
"M+	c #C6CFE0",
"N+	c #BECBE3",
"O+	c #BDC9E1",
"P+	c #B2C0DC",
"Q+	c #ABBBDA",
"R+	c #99ADD3",
"S+	c #9FB1D5",
"T+	c #A7BCDD",
"U+	c #B1C2DE",
"V+	c #C0C8DD",
"W+	c #CFCFDE",
"X+	c #DBE0E9",
"Y+	c #E0E6EC",
"Z+	c #E4E8ED",
"`+	c #E5E9ED",
" @	c #E8ECF2",
".@	c #B6BCC3",
"+@	c #91979D",
"@@	c #9AA0A7",
"#@	c #82898F",
"$@	c #C6CBD2",
"%@	c #AAB6CB",
"&@	c #91A2C3",
"*@	c #8FA1C3",
"=@	c #94A8CF",
"-@	c #9FB2D8",
";@	c #A4B6D9",
">@	c #ADBDDC",
",@	c #BDC9E2",
"'@	c #CDD6E7",
")@	c #E4F2F8",
"!@	c #EFCCCF",
"~@	c #FE9998",
"{@	c #FF9493",
"]@	c #FDA3A3",
"^@	c #E8E7EC",
"/@	c #E4EAEF",
"(@	c #E2E7EC",
"_@	c #E1E5EC",
":@	c #E5EAF1",
"<@	c #C0C5CC",
"[@	c #92989E",
"}@	c #9FA5AB",
"|@	c #767E84",
"1@	c #C8CDD3",
"2@	c #A2B1CC",
"3@	c #93A5C6",
"4@	c #B8C4DA",
"5@	c #DEE4F0",
"6@	c #E9ECF4",
"7@	c #F0F2F6",
"8@	c #F4F6F7",
"9@	c #F6F7F7",
"0@	c #F3F4F6",
"a@	c #EFFAFD",
"b@	c #F1D8DB",
"c@	c #FD6767",
"d@	c #FF6262",
"e@	c #FF7878",
"f@	c #FC9595",
"g@	c #E8E6EB",
"h@	c #E5EAF0",
"i@	c #E3E7ED",
"j@	c #E7EBF1",
"k@	c #C8CED5",
"l@	c #2B2D31",
"m@	c #969BA2",
"n@	c #A6ABB1",
"o@	c #6B747B",
"p@	c #BBC1C8",
"q@	c #D4D9E0",
"r@	c #D5DADE",
"s@	c #FBFCFC",
"t@	c #F7F8F9",
"u@	c #F6F7F9",
"v@	c #F4F5F7",
"w@	c #F1F3F6",
"x@	c #EFFBFE",
"y@	c #F0E6E9",
"z@	c #FC6262",
"A@	c #FF4645",
"B@	c #FF6363",
"C@	c #FF7373",
"D@	c #FC9091",
"E@	c #E9E8ED",
"F@	c #E7ECF1",
"G@	c #E6EAEF",
"H@	c #E4E8EE",
"I@	c #D2D8DF",
"J@	c #323639",
"K@	c #949AA0",
"L@	c #AAAFB6",
"M@	c #6F777E",
"N@	c #A2A9B0",
"O@	c #DAE0E7",
"P@	c #DBE0E6",
"Q@	c #F9FAFB",
"R@	c #F8F9FB",
"S@	c #F7F8FA",
"T@	c #F5F6F8",
"U@	c #F3FDFF",
"V@	c #F3DFE1",
"W@	c #FC5657",
"X@	c #FF2928",
"Y@	c #FD5D5D",
"Z@	c #FE6262",
"`@	c #FF6A6A",
" #	c #FD8787",
".#	c #EBE8EC",
"+#	c #E8EEF2",
"@#	c #E7EBF0",
"##	c #E6E9EF",
"$#	c #DEE3E9",
"%#	c #3C4145",
"&#	c #AEB4BA",
"*#	c #858C93",
"=#	c #959CA3",
"-#	c #DBE1E8",
";#	c #E3E8ED",
">#	c #FCFCFD",
",#	c #FAFBFC",
"'#	c #F8F8FA",
")#	c #F6FDFF",
"!#	c #F6EFF0",
"~#	c #FD494A",
"{#	c #FF0909",
"]#	c #FD4848",
"^#	c #F5C5C8",
"/#	c #FE6161",
"(#	c #FE7C7C",
"_#	c #EBEEF2",
":#	c #E9F2F7",
"<#	c #E9ECF0",
"[#	c #E8EBF0",
"}#	c #E8ECF1",
"|#	c #E5E9EF",
"1#	c #4F5557",
"2#	c #949AA1",
"3#	c #B5BAC0",
"4#	c #A4A9AF",
"5#	c #8A9198",
"6#	c #E8EDF1",
"7#	c #FDFDFE",
"8#	c #FBFBFC",
"9#	c #F9FDFE",
"0#	c #F8FDFE",
"a#	c #FC5C5C",
"b#	c #FF0000",
"c#	c #FF1E1E",
"d#	c #F5CBCC",
"e#	c #F2F0F1",
"f#	c #FE5455",
"g#	c #FF5A5A",
"h#	c #FE7373",
"i#	c #F5BBBD",
"j#	c #F0DADD",
"k#	c #EAF1F5",
"l#	c #E9EDF1",
"m#	c #E9EDF2",
"n#	c #E9ECF2",
"o#	c #656A6F",
"p#	c #BDC2C9",
"q#	c #C1C6CA",
"r#	c #9DA2A7",
"s#	c #D4DAE0",
"t#	c #EBEFF4",
"u#	c #FEFEFF",
"v#	c #FEFEFE",
"w#	c #FCFDFE",
"x#	c #FBFFFF",
"y#	c #FC8080",
"z#	c #FF0E0E",
"A#	c #FA9899",
"B#	c #F7C9CB",
"C#	c #FA8D8E",
"D#	c #FF4747",
"E#	c #FF5555",
"F#	c #FF6565",
"G#	c #FF6867",
"H#	c #F6BABC",
"I#	c #EBF7FB",
"J#	c #EEF1F6",
"K#	c #82888E",
"L#	c #91969D",
"M#	c #C3C9CF",
"N#	c #C9CDD1",
"O#	c #BCBFC2",
"P#	c #C8CED3",
"Q#	c #FDFEFE",
"R#	c #FFFFFF",
"S#	c #FEABAC",
"T#	c #FF0C0C",
"U#	c #FF2020",
"V#	c #FF1414",
"W#	c #FF1A19",
"X#	c #FF3C3C",
"Y#	c #FF4F4F",
"Z#	c #FF5D5D",
"`#	c #F3D3D5",
" $	c #EDF5F9",
".$	c #EDF0F4",
"+$	c #EBEFF3",
"@$	c #F3F6FA",
"#$	c #9BA1A7",
"$$	c #8E9399",
"%$	c #CAD0D6",
"&$	c #CED1D3",
"*$	c #BEC3C7",
"=$	c #F4F7FA",
"-$	c #FAFBFD",
";$	c #FF7171",
">$	c #FF1F1F",
",$	c #FE5151",
"'$	c #FF3A3A",
")$	c #FF4242",
"!$	c #FE5858",
"~$	c #F4E1E4",
"{$	c #F1F9FC",
"]$	c #F0F2F5",
"^$	c #EEF1F4",
"/$	c #EEF0F3",
"($	c #F5F8FC",
"_$	c #B5BABF",
":$	c #90969C",
"<$	c #D1D7DD",
"[$	c #B1B6BB",
"}$	c #E1E3E4",
"|$	c #B4B9BE",
"1$	c #F8FAFD",
"2$	c #FF7272",
"3$	c #FF0303",
"4$	c #FE8282",
"5$	c #FCB0B0",
"6$	c #FAE8E9",
"7$	c #F9DFE0",
"8$	c #FF2D2D",
"9$	c #FF3D3D",
"0$	c #FE6D6C",
"a$	c #F6ECED",
"b$	c #F5FAFB",
"c$	c #EFF2F5",
"d$	c #F4F6F9",
"e$	c #D2D6DB",
"f$	c #2D3334",
"g$	c #EFF0F0",
"h$	c #B7BCBF",
"i$	c #F3F5F7",
"j$	c #FBFCFD",
"k$	c #FFDFDF",
"l$	c #FFE6E6",
"m$	c #FDFFFF",
"n$	c #FEF3F3",
"o$	c #FFAAA7",
"p$	c #FED9D7",
"q$	c #DADBE8",
"r$	c #E9EEF4",
"s$	c #E6EBF3",
"t$	c #E7EBF3",
"u$	c #F2F4F7",
"v$	c #4D5256",
"w$	c #8F969C",
"x$	c #C8CED4",
"y$	c #979DA3",
"z$	c #F2F3F4",
"A$	c #BDC0C3",
"B$	c #ECEDEE",
"C$	c #FFFFFE",
"D$	c #F2F5FB",
"E$	c #C0CDE6",
"F$	c #DDE4F1",
"G$	c #E6EDF6",
"H$	c #C7DFF3",
"I$	c #B1C7E6",
"J$	c #88A3D1",
"K$	c #9EB1D8",
"L$	c #A3B6DA",
"M$	c #D3DCEC",
"N$	c #F7F9FC",
"O$	c #FDFEFF",
"P$	c #83898E",
"Q$	c #8B9297",
"R$	c #BDC3C9",
"S$	c #D5D7D9",
"T$	c #D3D5D7",
"U$	c #D9DBDD",
"V$	c #BAC8E4",
"W$	c #3E65B2",
"X$	c #88A0D0",
"Y$	c #7793C9",
"Z$	c #4067B3",
"`$	c #6181C0",
" %	c #6D8BC5",
".%	c #839CCE",
"+%	c #AFC0E3",
"@%	c #C8D5EF",
"#%	c #E3EBF8",
"$%	c #F8F9FA",
"%%	c #DCDFE2",
"&%	c #B8BBBF",
"*%	c #898C8F",
"=%	c #464A4D",
"-%	c #7A8085",
";%	c #B2B8BF",
">%	c #8E949B",
",%	c #BABDC1",
"'%	c #EDEEEF",
")%	c #C4C7C9",
"!%	c #FEFFFE",
"~%	c #889DCE",
"{%	c #9BAFD7",
"]%	c #3861B1",
"^%	c #8AA2D4",
"/%	c #BFCEED",
"(%	c #DEE6F7",
"_%	c #E8EDF4",
":%	c #D5D8DA",
"<%	c #A0A4A8",
"[%	c #6B6E72",
"}%	c #3A3D40",
"|%	c #1A1D1D",
"1%	c #6B7075",
"2%	c #ACB3B9",
"3%	c #B0B4B8",
"4%	c #F8F9F9",
"5%	c #BFC3C6",
"6%	c #FCFCFC",
"7%	c #D7E0F2",
"8%	c #EEF3FA",
"9%	c #E9EEF8",
"0%	c #E0E1E0",
"a%	c #ABABAA",
"b%	c #6A6C6C",
"c%	c #3A3C3C",
"d%	c #62686B",
"e%	c #A6ACB2",
"f%	c #959BA1",
"g%	c #A7ACB0",
"h%	c #C3C6C9",
"i%	c #F2F3F3",
"j%	c #C2C3C1",
"k%	c #868888",
"l%	c #474949",
"m%	c #5D6266",
"n%	c #A4AAB1",
"o%	c #9A9FA5",
"p%	c #F9F9F9",
"q%	c #E0E1E3",
"r%	c #D8DADC",
"s%	c #D0D2D4",
"t%	c #797C7E",
"u%	c #2B2E31",
"v%	c #494F52",
"w%	c #889095",
"x%	c #9AA1A7",
"y%	c #E7E9EA",
"z%	c #E2E4E5",
"A%	c #B9BDC0",
"B%	c #C1C3C4",
"C%	c #525558",
"D%	c #2D3033",
"E%	c #63686E",
"F%	c #707579",
"G%	c #292C2E",
"                                              . + @ # $         ",
"                          % & * = - ; > , ' ) ! ~ { ] ^ /       ",
"      ( _ : < [ } | 1 2 3 4 5 6 7 8 9 0 a b c d e f g h i       ",
"    j k l m n o o p q r s t u v w x y z A B C D E F G H I       ",
"    J K L M N O P Q R S T U V W X Y Z `  ...+.@.#.$.%.&.*.      ",
"    =.-.;.>.,.'.).!.~.{.].^./.(._.:.<.[.}.|.1.2.3.4.5.6.7.      ",
"    8.9.0.a.b.c.d.e.f.g.h.i.j.k.l.m.n.o.p.q.r.s.t.u.v.w.        ",
"    x.y.z.A.B.C.N D.E.F.G.H.I.J.K.L.M.N.O.P.Q.R.S.T.U.V.        ",
"    W.X.Y.Z.`. +.+++@+#+$+%+&+*+=+-+;+>+,+'+)+!+~+~+{+]+        ",
"    ^+/+(+_+:+<+<+[+}+|+1+2+3+4+5+6+7+8+9+0+a+b+c+d+e+f+        ",
"      g+h+i+j+k+l+m+n+o+p+q+r+s+t+u+v+w+x+y+z+A+B+C+D+E+        ",
"      F+G+H+I+k+J+K+L+M+N+O+P+Q+R+S+T+U+V+W+X+Y+Z+`+ @.@        ",
"      +@@@#@$@%@&@*@=@-@;@>@,@'@t+)@!@~@{@]@^@/@(@_@:@<@        ",
"      [@}@|@1@2@3@4@5@6@7@8@9@0@a@b@c@d@e@f@g@h@Z+i@j@k@l@      ",
"      m@n@o@p@q@r@9@s@t@u@v@w@x@y@z@A@B@C@D@E@F@G@H@j@I@J@      ",
"      K@L@M@N@O@P@Q@R@S@u@T@U@V@W@X@Y@Z@`@ #.#+#@###F@$#%#      ",
"      m@&#*#=#-#;#>#,#Q@'#)#!#~#{#]#^#/#d@(#_#:#<#[#}#|#1#      ",
"      2#3#4#5#O@6#7#>#8#9#0#a#b#c#d#e#f#g#h#i#j#k#l#m#n#o#      ",
"      +@p#q#r#s#t#u#v#w#x#y#b#z#A#B#C#D#E#F#G#H#I#_#_#J#K#      ",
"      L#M#N#O#P#J#Q#R#^ S#b#b#T#U#V#W#X#Y#Z# #`# $.$+$@$#$      ",
"      $$%$q#&$*$=$-$R#R#;$b#b#b#b#>$,$'$)$!$~${$]$^$/$($_$      ",
"      :$<$[$}$|$1$Q@R#R#2$3$D#4$5$6$7$8$9$0$a$b$v@]$c$d$e$f$    ",
"      [@I@}@g$h$i$j$R#R#k$l$R#R#^ m$n$o$p$q$r$s$t$i$w@u$m#v$    ",
"      w$x$y$z$A$B$R#C$C$R#R#D$E$F$R#G$H$I$J$K$L$M$8#N$O$^ P$    ",
"      Q$R$+@S$T$U$R#R#C$C$R#V$W$X$Y$Z$`$ %.%+%@%#%$%%%&%*%=%    ",
"      -%;%>%,%'%)%R#R#R#C$R#!%~%{%]%^%/%(%_%:%<%[%}%|%          ",
"      1%2%+@3%4%5%6%R#R#v#R#R#7%8%9%0%a%b%c%                    ",
"      d%e%f%g%R#h%'%R#R#R#R#i%j%k%l%                            ",
"      m%n%f%o%p%q%r%R#R#s%t%u%                                  ",
"      v%w%>%x%y%z%A%B%C%                                        ",
"          D%E%F%D%G%                                            ",
"                                                                "};
