/* XPM */
static char * clock_xpm[] = {
"32 32 556 2",
"  	c None",
". 	c #002E84",
"+ 	c #083A8E",
"@ 	c #0B3E91",
"# 	c #093C90",
"$ 	c #03358A",
"% 	c #002166",
"& 	c #0C4090",
"* 	c #356DBA",
"= 	c #729FD9",
"- 	c #9BC0EC",
"; 	c #B3D0F2",
"> 	c #BED7F4",
", 	c #B7D3F3",
"' 	c #A2C5EE",
") 	c #7DACE6",
"! 	c #467DC9",
"~ 	c #154EA2",
"{ 	c #00276D",
"] 	c #114BA1",
"^ 	c #6395D7",
"/ 	c #BDD8F8",
"( 	c #DFEDFC",
"_ 	c #CFE1F4",
": 	c #BBD2EC",
"< 	c #B5CFEB",
"[ 	c #BAD4EF",
"} 	c #B5CFEC",
"| 	c #B8D0EB",
"1 	c #C8DCF0",
"2 	c #DFECFA",
"3 	c #CBE2FC",
"4 	c #7BADEA",
"5 	c #1F5FB8",
"6 	c #012566",
"7 	c #05307B",
"8 	c #457ECA",
"9 	c #BBD8F8",
"0 	c #D3E3F5",
"a 	c #A3C4E6",
"b 	c #95BCE6",
"c 	c #B2D1F0",
"d 	c #CEE3F9",
"e 	c #D3E5F8",
"f 	c #BAD3EF",
"g 	c #CBDFF5",
"h 	c #CFE4F9",
"i 	c #BAD6F3",
"j 	c #98BEE7",
"k 	c #9CC0E6",
"l 	c #C7DAEF",
"m 	c #CBE3FD",
"n 	c #5E9AE4",
"o 	c #094299",
"p 	c #0C3E90",
"q 	c #6FA3E3",
"r 	c #CFE4FA",
"s 	c #9DC0E5",
"t 	c #8CB7E6",
"u 	c #CFE4F7",
"v 	c #F1F8FE",
"w 	c #EDF3F9",
"x 	c #E3EBF6",
"y 	c #EAF1F8",
"z 	c #CEDDEF",
"A 	c #D8E3F2",
"B 	c #E5EDF6",
"C 	c #EBF1F9",
"D 	c #F2F7FD",
"E 	c #DBECFB",
"F 	c #98C0EA",
"G 	c #8DB5E1",
"H 	c #CCDFF4",
"I 	c #8ABBF3",
"J 	c #1454B1",
"K 	c #0D3E8C",
"L 	c #78ACE8",
"M 	c #C1DAF4",
"N 	c #83AFE0",
"O 	c #BEDAF4",
"P 	c #D3E2F3",
"Q 	c #DBE8F6",
"R 	c #E2EDF8",
"S 	c #ECF4FC",
"T 	c #F5FAFE",
"U 	c #D5E4F4",
"V 	c #E8F1FB",
"W 	c #EEF6FD",
"X 	c #E5F0FA",
"Y 	c #D9E7F5",
"Z 	c #E0EAF7",
"` 	c #D0E1F3",
" .	c #C7E1F8",
"..	c #87B5E5",
"+.	c #B1CDEB",
"@.	c #94C1F6",
"#.	c #175AB8",
"$.	c #072D6E",
"%.	c #6AA3E6",
"&.	c #B5D2F2",
"*.	c #80AFE1",
"=.	c #D0E6FA",
"-.	c #E0ECF8",
";.	c #D4E4F6",
">.	c #C0D6EF",
",.	c #ECF6FE",
"'.	c #F0F9FF",
").	c #EEF7FF",
"!.	c #EDF7FF",
"~.	c #EFF8FF",
"{.	c #F1F9FF",
"].	c #D2E3F6",
"^.	c #C5DBF0",
"/.	c #D6E3F3",
"(.	c #CAD7F1",
"_.	c #89B8E8",
":.	c #A7C6EA",
"<.	c #81B7F2",
"[.	c #114DA6",
"}.	c #4782D0",
"|.	c #ACD0F5",
"1.	c #7CABDE",
"2.	c #CEE6FB",
"3.	c #D6E7F7",
"4.	c #D1E3F7",
"5.	c #E6F4FE",
"6.	c #E2F0FD",
"7.	c #E5F3FF",
"8.	c #E7F4FF",
"9.	c #E8F4FF",
"0.	c #E3F2FD",
"a.	c #E9F7FE",
"b.	c #8287C2",
"c.	c #A2A9D6",
"d.	c #E1F5FF",
"e.	c #84B3E5",
"f.	c #A4C7ED",
"g.	c #5C9DE9",
"h.	c #09347C",
"i.	c #1D4E99",
"j.	c #93C3F5",
"k.	c #80ADE0",
"l.	c #BEDAF7",
"m.	c #D7E8F9",
"n.	c #CCE1F6",
"o.	c #E8F5FF",
"p.	c #E4F2FF",
"q.	c #EDFCFF",
"r.	c #9CA2D2",
"s.	c #8E91C8",
"t.	c #D8EAF9",
"u.	c #CEE2F5",
"v.	c #D4EAFE",
"w.	c #82B0E2",
"x.	c #98C4F2",
"y.	c #3075CE",
"z.	c #5C95DC",
"A.	c #8FBCEB",
"B.	c #8FB8E5",
"C.	c #C5DCF4",
"D.	c #C4DBF3",
"E.	c #E6F4FF",
"F.	c #E3F2FF",
"G.	c #E3F3FF",
"H.	c #ADB6DD",
"I.	c #7B7DBE",
"J.	c #E3F1FC",
"K.	c #EAF8FF",
"L.	c #CDE1F6",
"M.	c #C9DEF4",
"N.	c #9CC1EB",
"O.	c #87B4E5",
"P.	c #69A8EE",
"Q.	c #12418A",
"R.	c #1B4589",
"S.	c #84B9F2",
"T.	c #7AAADF",
"U.	c #D0E5FA",
"V.	c #C9DFF5",
"W.	c #BCD5F0",
"X.	c #E0EFFD",
"Y.	c #E5F2FF",
"Z.	c #E5EFFB",
"`.	c #E4F1FD",
" +	c #E4F3FF",
".+	c #ECFBFF",
"++	c #C1CBE9",
"@+	c #7375B9",
"#+	c #DAE6F7",
"$+	c #E9F7FF",
"%+	c #E6F3FF",
"&+	c #DAECFB",
"*+	c #7BADE3",
"=+	c #4694E6",
"-+	c #2A6DC5",
";+	c #3E73BA",
">+	c #83B9F0",
",+	c #92B9E4",
"'+	c #E0EFFC",
")+	c #CEE2F6",
"!+	c #E7F3FF",
"~+	c #E4F1FF",
"{+	c #E5F5FF",
"]+	c #F6AB9E",
"^+	c #F6AD9A",
"/+	c #E5F7FF",
"(+	c #EBF9FF",
"_+	c #D2DEF2",
":+	c #7172B7",
"<+	c #CBD5EE",
"[+	c #ECFAFF",
"}+	c #E2F2FF",
"|+	c #DDEFFE",
"1+	c #C8E1F9",
"2+	c #CAE3F9",
"3+	c #AACDF1",
"4+	c #408DDE",
"5+	c #3A88E2",
"6+	c #0F2958",
"7+	c #5F98DB",
"8+	c #73ABE5",
"9+	c #BDD6F1",
"0+	c #D4E5F7",
"a+	c #DEEDFC",
"b+	c #E9F5FF",
"c+	c #E6F9FF",
"d+	c #F3BCB5",
"e+	c #FF7E5D",
"f+	c #EDDFDD",
"g+	c #EBFCFF",
"h+	c #E2EEFA",
"i+	c #787ABB",
"j+	c #BBC1E3",
"k+	c #F0FDFF",
"l+	c #DFF0FF",
"m+	c #DBEEFF",
"n+	c #D7EBFE",
"o+	c #C1DBF5",
"p+	c #D3E7FB",
"q+	c #5899DF",
"r+	c #4393E8",
"s+	c #1C4688",
"t+	c #0C2E6A",
"u+	c #6FABE9",
"v+	c #6DA4DE",
"w+	c #D8E8F8",
"x+	c #D3E4F6",
"y+	c #E9F4FE",
"z+	c #EBF6FF",
"A+	c #EBF5FF",
"B+	c #ECEFF6",
"C+	c #FF8970",
"D+	c #FFAB90",
"E+	c #EFFAFD",
"F+	c #878BC4",
"G+	c #A8ACD7",
"H+	c #F3FFFF",
"I+	c #CBE1F6",
"J+	c #DFEEFD",
"K+	c #7AAEE6",
"L+	c #4797E9",
"M+	c #295DA9",
"N+	c #19428B",
"O+	c #72AFEA",
"P+	c #76AAE0",
"Q+	c #E0ECF9",
"R+	c #D7E6F7",
"S+	c #F2FAFF",
"T+	c #F1FAFF",
"U+	c #F4FEFF",
"V+	c #F8FFFF",
"W+	c #F2CCC9",
"X+	c #D5A9AA",
"Y+	c #919DCF",
"Z+	c #8789C3",
"`+	c #F5FFFF",
" @	c #EAF6FF",
".@	c #EAF5FF",
"+@	c #EEF8FF",
"@@	c #D6E7F8",
"#@	c #E9F4FD",
"$@	c #92BCEB",
"%@	c #4A9AE9",
"&@	c #326BB8",
"*@	c #1F488E",
"=@	c #6EADEA",
"-@	c #7AADE1",
";@	c #CFDFF1",
">@	c #C6D9EF",
",@	c #D8E6F6",
"'@	c #F3F9FF",
")@	c #F2F9FF",
"!@	c #F4FBFF",
"~@	c #F3FAFF",
"{@	c #E8EFFA",
"]@	c #C9CFE8",
"^@	c #A9A9D2",
"/@	c #7690D0",
"(@	c #42A8FF",
"_@	c #2176E1",
":@	c #A3A8D5",
"<@	c #F9FFFF",
"[@	c #F0F8FF",
"}@	c #E6F0FB",
"|@	c #C7DAF0",
"1@	c #D3E2F2",
"2@	c #96BDE9",
"3@	c #509EEA",
"4@	c #3975C2",
"5@	c #1E468C",
"6@	c #6DAEEA",
"7@	c #70A4DC",
"8@	c #E2ECF6",
"9@	c #DBE7F5",
"0@	c #EFF6FC",
"a@	c #F6FBFF",
"b@	c #FBFEFF",
"c@	c #CBCEE7",
"d@	c #7574B6",
"e@	c #6462AC",
"f@	c #7371B5",
"g@	c #8C88C0",
"h@	c #868AC5",
"i@	c #3D79D7",
"j@	c #7C8FC4",
"k@	c #F1F3F8",
"l@	c #F7FCFF",
"m@	c #F4FAFE",
"n@	c #DCE8F6",
"o@	c #EBF2F9",
"p@	c #9DC2EC",
"q@	c #56A3EC",
"r@	c #3B74BF",
"s@	c #153775",
"t@	c #72B2EC",
"u@	c #5F9AD7",
"v@	c #E8EFF6",
"w@	c #DFEAF6",
"x@	c #FAFDFF",
"y@	c #FDFEFF",
"z@	c #DEDFF0",
"A@	c #C3C3E0",
"B@	c #E7E8F4",
"C@	c #F6F8FC",
"D@	c #FFFFFF",
"E@	c #FDFFFF",
"F@	c #F0EDF3",
"G@	c #FFC5B0",
"H@	c #FEE2D6",
"I@	c #FAFFFF",
"J@	c #E0EBF6",
"K@	c #F3F7FC",
"L@	c #95BEEB",
"M@	c #5CA7ED",
"N@	c #386DB5",
"O@	c #71ACE7",
"P@	c #5998D8",
"Q@	c #D8E2F1",
"R@	c #E2EBF6",
"S@	c #F8FAFD",
"T@	c #FEFFFF",
"U@	c #FEECE9",
"V@	c #FFBCA6",
"W@	c #FDFEFD",
"X@	c #FEFEFF",
"Y@	c #DEE9F4",
"Z@	c #F3F7FB",
"`@	c #7DB0E7",
" #	c #64ACEF",
".#	c #2F5B9B",
"+#	c #6092CB",
"@#	c #67A9E5",
"##	c #A9C1E0",
"$#	c #EEF4FA",
"%#	c #EFF4FA",
"&#	c #FFC4B3",
"*#	c #FFE2D5",
"=#	c #F7F9FC",
"-#	c #E5ECF6",
";#	c #E3ECF8",
">#	c #6AA6E5",
",#	c #69AEF1",
"'#	c #1E3C6F",
")#	c #3D659C",
"!#	c #82C1F4",
"~#	c #6D9ACE",
"{#	c #F8FAFC",
"]#	c #E2EBF5",
"^#	c #E7EEF7",
"/#	c #F9FBFD",
"(#	c #FFEDE9",
"_#	c #FFFFFD",
":#	c #EBF1F8",
"<#	c #DCE7F4",
"[#	c #FAFBFD",
"}#	c #AFCAED",
"|#	c #6CAFEC",
"1#	c #5E9BE0",
"2#	c #0C1B3B",
"3#	c #102853",
"4#	c #8EC4F2",
"5#	c #5E99D4",
"6#	c #BFCFE6",
"7#	c #D7E3F2",
"8#	c #D6E2F1",
"9#	c #E9F0F8",
"0#	c #CCDBED",
"a#	c #D8E3F3",
"b#	c #7CAEE5",
"c#	c #7BBEF6",
"d#	c #4070B2",
"e#	c #5984B9",
"f#	c #91CBF5",
"g#	c #6390C9",
"h#	c #E6EEF7",
"i#	c #FBFCFE",
"j#	c #FFBCA5",
"k#	c #FDFDFE",
"l#	c #E0EAF5",
"m#	c #FCFDFD",
"n#	c #A1C0E9",
"o#	c #77B5EC",
"p#	c #75B3F0",
"q#	c #182F5B",
"r#	c #112651",
"s#	c #9BCCF3",
"t#	c #71ABDE",
"u#	c #92AFD6",
"v#	c #FFC1AE",
"w#	c #FFE3D5",
"x#	c #FDFEFE",
"y#	c #E3ECF6",
"z#	c #F1F5F9",
"A#	c #D3E2F7",
"B#	c #75ACE6",
"C#	c #8ECCFA",
"D#	c #4471B1",
"E#	c #3B5E92",
"F#	c #B4E6FF",
"G#	c #6399D2",
"H#	c #A8BEDF",
"I#	c #F8FBFD",
"J#	c #E4ECF7",
"K#	c #F4F8FC",
"L#	c #ECF2FA",
"M#	c #FFECE7",
"N#	c #F3B5A3",
"O#	c #EFF4F9",
"P#	c #E4EDF7",
"Q#	c #EEF3F8",
"R#	c #DFE9F9",
"S#	c #7BADE4",
"T#	c #95D0F9",
"U#	c #6CA2E1",
"V#	c #0C1C3A",
"W#	c #5E84B6",
"X#	c #BBEBFF",
"Y#	c #6398CF",
"Z#	c #9DB7DC",
"`#	c #F6F9FD",
" $	c #E6EFF9",
".$	c #DBE7F7",
"+$	c #F9FBFE",
"@$	c #F9FBFF",
"#$	c #FBFFFF",
"$$	c #EEB6AB",
"%$	c #D5C4C7",
"&$	c #F5FAFD",
"*$	c #D6E3F9",
"=$	c #7FAEE7",
"-$	c #9BD3F8",
";$	c #84BCF1",
">$	c #1D3765",
",$	c #648BBC",
"'$	c #C4F0FF",
")$	c #79ACDA",
"!$	c #7BA0D1",
"~$	c #C7D7EE",
"{$	c #F4F9FE",
"]$	c #F1F6FD",
"^$	c #EEF4FD",
"/$	c #F2F7FE",
"($	c #F7FAFE",
"_$	c #E4EEFD",
":$	c #EEF5FD",
"<$	c #F3F7FD",
"[$	c #EDF4FC",
"}$	c #EBF4FD",
"|$	c #F6E9E7",
"1$	c #E0CBCE",
"2$	c #AAC9F3",
"3$	c #85B7EB",
"4$	c #AADFFD",
"5$	c #8DC2F4",
"6$	c #264375",
"7$	c #5173A5",
"8$	c #C3E9FD",
"9$	c #ACD8F1",
"0$	c #73A1D3",
"a$	c #8FAFDB",
"b$	c #C9D7EE",
"c$	c #EDF2FB",
"d$	c #F6FAFF",
"e$	c #ECF3FD",
"f$	c #F2F7FF",
"g$	c #F8FBFF",
"h$	c #F2F6FE",
"i$	c #DEE7F8",
"j$	c #B3CFF4",
"k$	c #90BBEE",
"l$	c #9ECFF3",
"m$	c #BAEDFF",
"n$	c #81B2E8",
"o$	c #1F3966",
"p$	c #274272",
"q$	c #95B7DC",
"r$	c #D3F4FF",
"s$	c #B7DEF4",
"t$	c #8BB5DF",
"u$	c #83ABDA",
"v$	c #91B1DD",
"w$	c #9FBBE3",
"x$	c #A3BEE6",
"y$	c #A6BFE7",
"z$	c #9DBBE6",
"A$	c #95BAE7",
"B$	c #93BEEA",
"C$	c #AAD8F6",
"D$	c #C5F3FF",
"E$	c #ACDCFE",
"F$	c #5681B8",
"G$	c #0C1D3E",
"H$	c #3A5584",
"I$	c #8EABD1",
"J$	c #CCE6FB",
"K$	c #DAF3FF",
"L$	c #D6EEFD",
"M$	c #D2EAFB",
"N$	c #CCE5F9",
"O$	c #CFE9FC",
"P$	c #CFEFFF",
"Q$	c #CDF0FF",
"R$	c #C8F0FF",
"S$	c #9FCAEF",
"T$	c #5E85BA",
"U$	c #1C345E",
"V$	c #162A4F",
"W$	c #3D5581",
"X$	c #6581AC",
"Y$	c #7C99C4",
"Z$	c #82A0CA",
"`$	c #7F9FCB",
" %	c #6C8FBD",
".%	c #4E6D9C",
"+%	c #284370",
"@%	c #0B1B39",
"                          . + @ # $ %                           ",
"                    & * = - ; > , ' ) ! ~ {                     ",
"                ] ^ / ( _ : < [ } | 1 2 3 4 5 6                 ",
"            7 8 9 0 a b c d e f g h i j k l m n o               ",
"          p q r s t u v w x y z A B C D E F G H I J             ",
"        K L M N O 0 P Q R S T U V W X Y Z `  ...+.@.#.          ",
"      $.%.&.*.=.-.;.>.,.'.).!.!.!.!.~.{.].^./.(._.:.<.[.        ",
"      }.|.1.2.3.4.5.6.7.8.8.8.8.8.8.8.9.0.a.b.c.d.e.f.g.h.      ",
"    i.j.k.l.m.n.o.7.7.7.p.p.p.p.p.p.p.7.q.r.s.t.u.v.w.x.y.      ",
"    z.A.B.C.D.E.p.F.F.F.F.G.G.F.F.F.p.q.H.I.J.K.L.M.N.O.P.Q.    ",
"  R.S.T.U.V.W.X.Y.p.p.p.p.Z.`. +p.p..+++@+#+$+%+n.f &+*+=+-+    ",
"  ;+>+,+'+)+!+~+%+Y.Y.7.{+]+^+/+7.(+_+:+<+[+Y.}+|+1+2+3+4+5+6+  ",
"  7+8+9+0+a+b+9.8.8.8.8.c+d+e+f+g+h+i+j+k+p.l+m+m+n+o+p+q+r+s+  ",
"t+u+v+w+x+y+z+A+A+A+A+A+K.B+C+D+E+F+G+H+7.}+}+}+F. +I+J+K+L+M+  ",
"N+O+P+Q+R+S+).).).).~.T+U+V+W+X+Y+Z+`+ @b+b+.@.@b++@@@#@$@%@&@  ",
"*@=@-@;@>@,@'@)@)@!@~@{@]@^@/@(@_@:@<@[@[@[@[@[@)@}@|@1@2@3@4@  ",
"5@6@7@8@9@0@a@a@b@c@d@e@f@g@h@i@j@k@l@a@a@a@a@a@a@m@n@o@p@q@r@  ",
"s@t@u@v@w@b@x@x@y@z@A@B@C@D@E@F@G@H@I@x@x@x@x@x@x@E@J@K@L@M@N@  ",
"  O@P@Q@R@S@T@y@y@D@D@D@D@y@T@D@U@V@W@E@y@y@y@y@X@X@Y@Z@`@ #.#  ",
"  +#@###$#%#D@D@D@D@D@D@D@D@D@D@D@&#*#D@D@D@D@D@D@=#-#;#>#,#'#  ",
"  )#!#~#{#]#^#/#D@D@D@D@D@D@D@D@D@(#V@_#D@D@D@D@:#<#[#}#|#1#2#  ",
"  3#4#5#6#7#8#y@D@D@D@D@D@D@D@D@D@D@&#*#D@D@D@D@9#0#a#b#c#d#    ",
"    e#f#g#%#h#i#D@D@D@D@D@D@D@D@D@D@(#j#_#D@D@k#l#m#n#o#p#q#    ",
"    r#s#t#u#X@R@i#D@D@D@D@D@D@D@D@D@D@v#w#D@x#y#z#A#B#C#D#      ",
"      E#F#G#H#I#J#K#L#T@D@D@D@D@D@D@D@M#N#O#P#Q#R#S#T#U#V#      ",
"        W#X#Y#Z#`# $.$+$D@D@D@@$X@D@D@#$$$%$&$*$=$-$;$>$        ",
"          ,$'$)$!$~${$]$^$/$($_$:$<$[$}$|$1$2$3$4$5$6$          ",
"            7$8$9$0$a$b$c$d$b@e$f$g$h$i$j$k$l$m$n$o$            ",
"              p$q$r$s$t$u$v$w$x$y$z$A$B$C$D$E$F$G$              ",
"                  H$I$J$K$L$M$N$O$P$Q$R$S$T$U$                  ",
"                      V$W$X$Y$Z$`$ %.%+%@%                      ",
"                                                                "};
