/* XPM */
static char * date_xpm[] = {
"16 16 188 2",
"  	c None",
". 	c #3D67BF",
"+ 	c #4E76C6",
"@ 	c #688DD5",
"# 	c #8AAAE7",
"$ 	c #B1C9F7",
"% 	c #556B9A",
"& 	c #1B3895",
"* 	c #516BD8",
"= 	c #5F86DA",
"- 	c #7093E4",
"; 	c #84A4EF",
"> 	c #799AE5",
", 	c #6B8EDA",
"' 	c #6E91DA",
") 	c #7798DA",
"! 	c #8FABE2",
"~ 	c #A7BEEA",
"{ 	c #C4D4EF",
"] 	c #FBFFFF",
"^ 	c #FFFFFF",
"/ 	c #7989A9",
"( 	c #3745B0",
"_ 	c #7A8CFF",
": 	c #7CABFF",
"< 	c #85B1FF",
"[ 	c #93BBFF",
"} 	c #5C86D8",
"| 	c #3562BC",
"1 	c #416CC2",
"2 	c #5178C6",
"3 	c #7A99D8",
"4 	c #A0B7E6",
"5 	c #B8CAED",
"6 	c #CBD9F3",
"7 	c #D1DDF3",
"8 	c #556683",
"9 	c #3358B3",
"0 	c #6E9EFF",
"a 	c #699DFF",
"b 	c #709FFD",
"c 	c #87AEFE",
"d 	c #688FDE",
"e 	c #668AD4",
"f 	c #85A2DB",
"g 	c #95ADDA",
"h 	c #A0B3D8",
"i 	c #A2B4D6",
"j 	c #A6B7D4",
"k 	c #C3CCDC",
"l 	c #D2D9E4",
"m 	c #404449",
"n 	c #1B3668",
"o 	c #6389D0",
"p 	c #7292D0",
"q 	c #91A8D7",
"r 	c #6080BD",
"s 	c #6E89BC",
"t 	c #5E7CB6",
"u 	c #6D87BA",
"v 	c #879DC5",
"w 	c #7D97C6",
"x 	c #95ABD1",
"y 	c #B2C1DC",
"z 	c #BECAE0",
"A 	c #CED8E7",
"B 	c #484D4F",
"C 	c #878C90",
"D 	c #9FA3A5",
"E 	c #D0D2D4",
"F 	c #7F94BB",
"G 	c #7991C0",
"H 	c #7893C7",
"I 	c #90A5D0",
"J 	c #AFC2DF",
"K 	c #AFC2DE",
"L 	c #BAC2D9",
"M 	c #BBC7DD",
"N 	c #C4CFE1",
"O 	c #D6DEEC",
"P 	c #4F5155",
"Q 	c #8F959A",
"R 	c #959BA1",
"S 	c #ADB9CC",
"T 	c #A9B7D2",
"U 	c #CCD6E7",
"V 	c #D9E0ED",
"W 	c #DDE9F4",
"X 	c #E2E1EA",
"Y 	c #F38E92",
"Z 	c #FD8D8D",
"` 	c #EEE0E2",
" .	c #E7EEF2",
"..	c #E9EFF4",
"+.	c #5C5F64",
"@.	c #92979D",
"#.	c #91979E",
"$.	c #CCD2DA",
"%.	c #EFF1F4",
"&.	c #FDFDFC",
"*.	c #F8FEFE",
"=.	c #F5F2F3",
"-.	c #FB7171",
";.	c #FF504F",
">.	c #FF7575",
",.	c #ECDDE1",
"'.	c #E6EFF4",
").	c #ECF1F7",
"!.	c #6C7176",
"~.	c #979CA1",
"{.	c #9DA3AA",
"].	c #D6DCE2",
"^.	c #F8FAFB",
"/.	c #FBFEFE",
"(.	c #F7FBFC",
"_.	c #FB6364",
":.	c #FC6060",
"<.	c #F8A3A5",
"[.	c #FF605F",
"}.	c #F3C1C4",
"|.	c #EAEEF3",
"1.	c #F2F6FB",
"2.	c #868A8F",
"3.	c #9BA1A7",
"4.	c #B8BEC3",
"5.	c #CBD1D5",
"6.	c #FDFFFF",
"7.	c #FEFFFF",
"8.	c #FD7070",
"9.	c #FF0000",
"0.	c #FC5555",
"a.	c #FD5555",
"b.	c #FF4C4C",
"c.	c #FC8C8D",
"d.	c #EEEDF1",
"e.	c #F4F9FE",
"f.	c #A8ACB1",
"g.	c #9EA4AA",
"h.	c #C2C6CB",
"i.	c #C4C8CC",
"j.	c #FFF6F6",
"k.	c #FF2B2B",
"l.	c #FF3231",
"m.	c #FF7473",
"n.	c #FF6E6D",
"o.	c #FF4D4C",
"p.	c #FAD4D4",
"q.	c #F2F9FC",
"r.	c #F5F7FB",
"s.	c #CDD1D6",
"t.	c #BFC4C9",
"u.	c #D2D5D7",
"v.	c #F8FAFA",
"w.	c #FFFDFD",
"x.	c #FFEBEB",
"y.	c #E9EBF4",
"z.	c #ECFCFF",
"A.	c #E3D8E2",
"B.	c #C5B4CB",
"C.	c #C1CFEA",
"D.	c #E8EEF8",
"E.	c #F3F7FA",
"F.	c #878D93",
"G.	c #B6BBC0",
"H.	c #D9DBDC",
"I.	c #F5F6F6",
"J.	c #AABDE1",
"K.	c #7E9BD4",
"L.	c #8BA8DC",
"M.	c #A6BDE0",
"N.	c #ABB7CD",
"O.	c #9CA2AA",
"P.	c #818282",
"Q.	c #525456",
"R.	c #73797E",
"S.	c #ABB1B6",
"T.	c #E2E4E5",
"U.	c #EBECED",
"V.	c #D8DBE0",
"W.	c #959AA2",
"X.	c #686B6E",
"Y.	c #5C6267",
"Z.	c #9AA0A7",
"`.	c #D5D7D9",
" +	c #D8DADB",
".+	c #B1B2B3",
"++	c #4F5152",
"@+	c #343739",
"                  . + @ # $ %   ",
"& * = - ; > , ' ) ! ~ { ] ^ /   ",
"( _ : < [ } | 1 2 3 4 5 6 7 8   ",
"9 0 a b c d e f g h i j k l m   ",
"n o p q r s t u v w x y z A B   ",
"  C D E F G H I J K L M N O P   ",
"  Q R S T U V W X Y Z `  ...+.  ",
"  @.#.$.%.&.*.=.-.;.>.,.'.).!.  ",
"  ~.{.].^./.(._.:.<.[.}.|.1.2.  ",
"  3.4.5.6.7.8.9.0.a.b.c.d.e.f.  ",
"  g.h.i.7.j.k.l.m.n.o.p.q.r.s.  ",
"  3.t.u.v.w.x.y.z.A.B.C.D.^ E.  ",
"  F.G.H.I.^ ^ J.K.L.M.N.O.P.Q.  ",
"  R.S.T.U.^ ^ V.W.X.            ",
"  Y.Z.`. +.+++                  ",
"      @+                        "};
