/* XPM */
static char * descending_xpm[] = {
"48 48 225 2",
"  	c None",
". 	c #000000",
"+ 	c #050402",
"@ 	c #0F0D07",
"# 	c #443C21",
"$ 	c #61542E",
"% 	c #A7924F",
"& 	c #C5AA5B",
"* 	c #020201",
"= 	c #201C10",
"- 	c #EACB6D",
"; 	c #E8CA69",
"> 	c #383119",
", 	c #776838",
"' 	c #E7C765",
") 	c #96813F",
"! 	c #080704",
"~ 	c #D6BB63",
"{ 	c #E7C867",
"] 	c #E7C663",
"^ 	c #E3C15D",
"/ 	c #171409",
"( 	c #4E4425",
"_ 	c #E7C665",
": 	c #E6C461",
"< 	c #E6C25D",
"[ 	c #69592A",
"} 	c #B19950",
"| 	c #E6C661",
"1 	c #E6C35D",
"2 	c #E4C059",
"3 	c #CBA94D",
"4 	c #040301",
"5 	c #282312",
"6 	c #E8C868",
"7 	c #E7C664",
"8 	c #E6C360",
"9 	c #E6C25C",
"0 	c #E4BF58",
"a 	c #E3BC54",
"b 	c #423617",
"c 	c #2C2107",
"d 	c #81713B",
"e 	c #E3BE55",
"f 	c #E2BB51",
"g 	c #A08336",
"h 	c #100C03",
"i 	c #4F3C0D",
"j 	c #0C0A05",
"k 	c #DDBE60",
"l 	c #E2BC51",
"m 	c #E2BA4D",
"n 	c #E0B749",
"o 	c #1E1809",
"p 	c #42330E",
"q 	c #564A27",
"r 	c #E3BE54",
"s 	c #E2BA50",
"t 	c #E2B84C",
"u 	c #E0B648",
"v 	c #715B23",
"w 	c #7D5F1A",
"x 	c #BA9F51",
"y 	c #DFB445",
"z 	c #CDA53C",
"A 	c #070602",
"B 	c #010100",
"C 	c #C19228",
"D 	c #302A15",
"E 	c #E6C35F",
"F 	c #DFB645",
"G 	c #DEB341",
"H 	c #DEB03D",
"I 	c #493A13",
"J 	c #221A08",
"K 	c #DAA62D",
"L 	c #8A773C",
"M 	c #E6C460",
"N 	c #DFB444",
"O 	c #DEB240",
"P 	c #DEAF3C",
"Q 	c #A8852B",
"R 	c #574416",
"S 	c #100E07",
"T 	c #E0BF60",
"U 	c #DEB241",
"V 	c #DCAE39",
"W 	c #DBAB35",
"X 	c #261E08",
"Y 	c #967525",
"Z 	c #5E5129",
"` 	c #E4C25B",
" .	c #E3BE57",
"..	c #E2BC53",
"+.	c #E2BA4F",
"@.	c #E0B74B",
"#.	c #DFB647",
"$.	c #DEB23F",
"%.	c #DBAC35",
"&.	c #DAAA33",
"*.	c #7A5E19",
"=.	c #D3A534",
"-.	c #010101",
";.	c #C3A752",
">.	c #DCAE38",
",.	c #DBAA34",
"'.	c #DAA830",
").	c #D19F2A",
"!.	c #0B0902",
"~.	c #34290E",
"{.	c #373018",
"].	c #DAAA31",
"^.	c #DAA72D",
"/.	c #D8A429",
"(.	c #513D0F",
"_.	c #6D571E",
":.	c #947E3D",
"<.	c #DEB343",
"[.	c #DCAE3B",
"}.	c #DBAC37",
"|.	c #DAA72F",
"1.	c #D8A62B",
"2.	c #D7A327",
"3.	c #AF831C",
"4.	c #010000",
"5.	c #B28D31",
"6.	c #171309",
"7.	c #E3BF5A",
"8.	c #E2BB50",
"9.	c #DBAB34",
"0.	c #DAA62C",
"a.	c #D8A428",
"b.	c #D7A224",
"c.	c #D69F20",
"d.	c #2E2106",
"e.	c #151106",
"f.	c #68582B",
"g.	c #D7A225",
"h.	c #D6A021",
"i.	c #D69E1D",
"j.	c #825F10",
"k.	c #483B16",
"l.	c #030301",
"m.	c #CAAB50",
"n.	c #E0B84B",
"o.	c #DAA82F",
"p.	c #D6A223",
"q.	c #D69E1F",
"r.	c #D49C1B",
"s.	c #CF9617",
"t.	c #100C01",
"u.	c #866D2A",
"v.	c #41361A",
"w.	c #D69E1C",
"x.	c #D49B18",
"y.	c #D39814",
"z.	c #594007",
"A.	c #CCA640",
"B.	c #9F853E",
"C.	c #D8A629",
"D.	c #D49B19",
"E.	c #D39A15",
"F.	c #D29711",
"G.	c #B4810C",
"H.	c #020100",
"I.	c #26200E",
"J.	c #211B0D",
"K.	c #211B0C",
"L.	c #211A0A",
"M.	c #876D2B",
"N.	c #A07614",
"O.	c #221803",
"P.	c #1E1603",
"Q.	c #1E1602",
"R.	c #1E1502",
"S.	c #040300",
"T.	c #5E4D20",
"U.	c #030201",
"V.	c #9A7B2C",
"W.	c #B78718",
"X.	c #0B0801",
"Y.	c #745D20",
"Z.	c #9A7113",
"`.	c #090804",
" +	c #DCB64C",
".+	c #735C1F",
"++	c #D69F1F",
"@+	c #997010",
"#+	c #3A3116",
"$+	c #735A1D",
"%+	c #DAAA30",
"&+	c #99700F",
"*+	c #76632D",
"=+	c #72591C",
"-+	c #D49C19",
";+	c #996D0C",
">+	c #BB9D46",
",+	c #72581B",
"'+	c #D39A17",
")+	c #D29813",
"!+	c #996C0B",
"~+	c #19150A",
"{+	c #72581A",
"]+	c #D39A14",
"^+	c #D29610",
"/+	c #996C09",
"(+	c #4F4320",
"_+	c #725718",
":+	c #D7A325",
"<+	c #D2960D",
"[+	c #907A3A",
"}+	c #715616",
"|+	c #D2960F",
"1+	c #D2940C",
"2+	c #D5B456",
"3+	c #5D4712",
"4+	c #AD811E",
"5+	c #AB801B",
"6+	c #AB7E18",
"7+	c #AA7C14",
"8+	c #A97B10",
"9+	c #A7770E",
"0+	c #A7770A",
"a+	c #7B5707",
"b+	c #2C2513",
"                                                                                                ",
"                                                                                                ",
"                                                                                                ",
"                              . .                                                     . .       ",
"                            . . . .                                                 . . .       ",
"                            . . . .                                                 . . .       ",
"                          . . . . . .                                               . . .       ",
"                          . . + @ . .                                             . . . .       ",
"                          . . # $ . . .                                           . . . .       ",
"                        . . . % & * . .                                           . . . .       ",
"                        . . = - ; > . .                                           . . . .       ",
"                      . . . , ; ' ) . . .                                       . . . . .       ",
"                      . . ! ~ { ] ^ / . .                                       . . . . .       ",
"                      . . ( ; _ : < [ . . .                                     . . . . .       ",
"                    . . . } ' | 1 2 3 4 . .                                   . . . 4 . .       ",
"                    . . 5 6 7 8 9 0 a b . .                                   . . . c . .       ",
"                  . . . d _ : < 2 e f g . . .                                 . . h i . .       ",
"                  . . j k | 1 2 e l m n o . .                                 . . p i . .       ",
"                  . . q 7 8 9 0 r s t u v . . .                             . . . w i . .       ",
"                . . . x : < 2 e f m n y z A . .                             . . B C i . .       ",
"                . . D | E 2 e l m n F G H I . .                             . . J K i . .       ",
"              . . . L M 9 0 r s t u N O P Q . . .                           . . R K i . .       ",
"              . . S T < 2 e f m n y U H V W X . .                         . . . Y K i . .       ",
"            . . . Z E `  ...+.@.#.G $.V %.&.*.. . .                       . . A =.K i . .       ",
"            . . -.;.9 0 r s t u N O P >.,.'.).!.. .                       . . ~.W K i . .       ",
"            . . {.< 2 e f m n y U H V W ].^./.(.. .                     . . . _.W K i . .       ",
"          . . . :.`  ...+.@.#.<.$.[.}.&.|.1.2.3.4.. .                   . . . 5.W K i . .       ",
"          . . 6.7.0 r 8.t u N O P >.9.'.0.a.b.c.d.. .                   . . e.H W K i . .       ",
"        . . . f.2 e f m n y U H V W ].^./.g.h.i.j.. . .                 . . k.H W K i . .       ",
"        . . l.m. ...+.n.#.<.$.[.}.&.o.1.2.p.q.r.s.t.. .               . . . u.H W K i . .       ",
"        . . v.0 r 8.t u N O P >.9.'.0.a.b.c.w.x.y.z.. . .             . . B A.H W K i . .       ",
"      . . . B.e f m n F U H V W ].^.C.g.h.i.D.E.F.G.H.. .             . . I.F H W K i . .       ",
"      . . . J.K.K.L.M.<.$.[.}.&.o.1.2.p.q.N.O.P.Q.R.S.. .             . . T.F H W K i . .       ",
"      . . . . . . . U.V.P >.9.'.0.a.b.c.W.X.. . . . . . . .         . . . g F H W K i . .       ",
"      . . . . . . . . Y.V %.].^.C.g.h.i.Z.. . . . . . . .           . . `. +F H W K i . .       ",
"                  . . .+}.&.o.1.2.p.++r.@+. . .                     . . #+m F H W K i . .       ",
"                  . . $+9.%+0.a.b.c.w.x.&+. . .                   . . . *+m F H W K i . .       ",
"                  . . =+].^.C.g.h.i.-+E.;+. . .                   . . . >+m F H W K i . .       ",
"                  . . ,+o.1.2.p.++r.'+)+!+. . .                   . . ~+e m F H W K i . .       ",
"                  . . {+0./.g.c.i.x.]+^+/+. . .                   . . (+e m F H W K i . .       ",
"                  . . _+C.:+h.i.-+E.F.<+/+. . .                 . . . [+e m F H W K i . .       ",
"                  . . }+2.p.++r.'+)+|+1+/+. . .                 . . U.2+e m F H W K i . .       ",
"                  . . 3+4+5+6+7+8+9+0+0+a+. . .                 . . b+1 e m F H W K i . .       ",
"                  . . . . . . . . . . . . . . .                 . . . . . . . . . . . . .       ",
"                  . . . . . . . . . . . . . .                 . . . . . . . . . . . . . .       ",
"                    . . . . . . . . . . . .                     . . . . . . . . . . . .         ",
"                                                                                                ",
"                                                                                                "};
