/* XPM */
static char * deselect_all_xpm[] = {
"32 32 13 1",
" 	c None",
".	c #000000",
"+	c #575757",
"@	c #525252",
"#	c #686868",
"$	c #636363",
"%	c #454545",
"&	c #424242",
"*	c #565656",
"=	c #393939",
"-	c #676767",
";	c #444444",
">	c #2D2D2D",
"                                ",
"                                ",
"                                ",
"                                ",
"   .+++++++++++++++++++++++@.   ",
"   .#######################$.   ",
"   .#######################$.   ",
"   .%%%%%%%%%%%%%%%%%%%%%%%&.   ",
"                                ",
"                                ",
"   .+++++++++++++++++++++++@.   ",
"   .#######################$.   ",
"   .#######################$.   ",
"   .%%%%%%%%%%%%%%%%%%%%%%%&.   ",
"                                ",
"                                ",
"        .*++++++++++++++++++=   ",
"        .-##################;   ",
"        .-##################;   ",
"        .;%%%%%%%%%%%%%%%%%%>   ",
"                                ",
"                                ",
"   .+++++++++++++++++++++++@.   ",
"   .#######################$.   ",
"   .#######################$.   ",
"   .%%%%%%%%%%%%%%%%%%%%%%%&.   ",
"                                ",
"                                ",
"                                ",
"                                ",
"                                ",
"                                "};
