/* XPM */
static char * done_xpm[] = {
"32 32 319 2",
"  	c None",
". 	c #06380D",
"+ 	c #315A8E",
"@ 	c #124153",
"# 	c #003300",
"$ 	c #2B5549",
"% 	c #5E7EC9",
"& 	c #4066D9",
"* 	c #093A3E",
"= 	c #023503",
"- 	c #5E7E90",
"; 	c #819AE6",
"> 	c #5C7DDE",
", 	c #2B55D5",
"' 	c #013424",
") 	c #043606",
"! 	c #738EA2",
"~ 	c #94A9EA",
"{ 	c #7591E3",
"] 	c #486DDA",
"^ 	c #0F3FCF",
"/ 	c #003310",
"( 	c #063809",
"_ 	c #8099AC",
": 	c #A4B6ED",
"< 	c #8BA2E8",
"[ 	c #6382E0",
"} 	c #2C56D5",
"| 	c #0031BE",
"1 	c #8CA3B8",
"2 	c #AFBFEF",
"3 	c #9CB0EB",
"4 	c #7A95E4",
"5 	c #476CDA",
"6 	c #0739CD",
"7 	c #002DA8",
"8 	c #003200",
"9 	c #7E98A7",
"0 	c #B3C2F0",
"a 	c #A7B9ED",
"b 	c #8DA4E8",
"c 	c #6080DF",
"d 	c #224ED3",
"e 	c #002FBD",
"f 	c #002993",
"g 	c #003100",
"h 	c #5A7B79",
"i 	c #B2C1F0",
"j 	c #ACBDEE",
"k 	c #99ADEB",
"l 	c #738FE3",
"m 	c #3860D7",
"n 	c #0032C6",
"o 	c #002AA8",
"p 	c #002487",
"q 	c #385F4E",
"r 	c #ADBDEF",
"s 	c #ABBCEE",
"t 	c #9DB1EB",
"u 	c #7F99E5",
"v 	c #496DDB",
"w 	c #0235CC",
"x 	c #002BAD",
"y 	c #002491",
"z 	c #001F7B",
"A 	c #003108",
"B 	c #1D4A2A",
"C 	c #9FB2E5",
"D 	c #A5B7ED",
"E 	c #839CE6",
"F 	c #5375DD",
"G 	c #0D3DCF",
"H 	c #002CB0",
"I 	c #002492",
"J 	c #001E7A",
"K 	c #001A6A",
"L 	c #002D19",
"M 	c #849CC2",
"N 	c #97ACEA",
"O 	c #829BE6",
"P 	c #5678DD",
"Q 	c #1141CF",
"R 	c #002CB1",
"S 	c #002490",
"T 	c #001D76",
"U 	c #001965",
"V 	c #001659",
"W 	c #00242F",
"X 	c #507377",
"Y 	c #9AAEEB",
"Z 	c #91A7E9",
"` 	c #7E98E5",
" .	c #5577DD",
"..	c #1241D0",
"+.	c #00238D",
"@.	c #001C71",
"#.	c #00175D",
"$.	c #001451",
"%.	c #00124B",
"&.	c #001840",
"*.	c #224F32",
"=.	c #98ADE8",
"-.	c #8FA5E9",
";.	c #7C96E5",
">.	c #1443D0",
",.	c #00238B",
"'.	c #001B6D",
").	c #001658",
"!.	c #001249",
"~.	c #001341",
"{.	c #00231F",
"].	c #003103",
"^.	c #879FC8",
"/.	c #5879DE",
"(.	c #1B49D1",
"_.	c #002DB4",
":.	c #001B6C",
"<.	c #001554",
"[.	c #001145",
"}.	c #001836",
"|.	c #002F09",
"1.	c #002000",
"2.	c #000400",
"3.	c #023403",
"4.	c #416764",
"5.	c #4E7270",
"6.	c #98ADEA",
"7.	c #5E7EDF",
"8.	c #2450D3",
"9.	c #002EB9",
"0.	c #001B6F",
"a.	c #001555",
"b.	c #001144",
"c.	c #001F27",
"d.	c #003202",
"e.	c #001800",
"f.	c #000000",
"g.	c #265135",
"h.	c #89A1C3",
"i.	c #A0B3EC",
"j.	c #436966",
"k.	c #124219",
"l.	c #98ACE1",
"m.	c #89A1E7",
"n.	c #6584E0",
"o.	c #2E58D5",
"p.	c #0030BE",
"q.	c #002698",
"r.	c #001D73",
"s.	c #002222",
"t.	c #002200",
"u.	c #000B00",
"v.	c #0C3D11",
"w.	c #6C8995",
"x.	c #A9BAEE",
"y.	c #A3B5ED",
"z.	c #8EA5D5",
"A.	c #07390B",
"B.	c #648391",
"C.	c #90A6E9",
"D.	c #6D8AE2",
"E.	c #0031C5",
"F.	c #0028A0",
"G.	c #001E7B",
"H.	c #001146",
"I.	c #00251B",
"J.	c #000600",
"K.	c #3B625B",
"L.	c #97ACDB",
"M.	c #A8B9EE",
"N.	c #AABBEE",
"O.	c #9EB1EC",
"P.	c #476B6C",
"Q.	c #002E00",
"R.	c #1C4A2A",
"S.	c #8FA6E6",
"T.	c #728EE3",
"U.	c #3F65D9",
"V.	c #0032C9",
"W.	c #0029A6",
"X.	c #002082",
"Y.	c #001863",
"Z.	c #00134C",
"`.	c #002100",
" +	c #134228",
".+	c #5C7CB1",
"++	c #8EA5E8",
"@+	c #A2B5EC",
"#+	c #A1B4EC",
"$+	c #8CA3D9",
"%+	c #5F7F9E",
"&+	c #6F8CE2",
"*+	c #0033CB",
"=+	c #002AAA",
"-+	c #002288",
";+	c #001452",
">+	c #002320",
",+	c #26517B",
"'+	c #486CD8",
")+	c #5174DC",
"!+	c #5B7CDE",
"~+	c #6886E1",
"{+	c #7691E4",
"]+	c #92A8E9",
"^+	c #436972",
"/+	c #002900",
"(+	c #1A4830",
"_+	c #6483E0",
":+	c #3A61D8",
"<+	c #002BAB",
"[+	c #002126",
"}+	c #05371E",
"|+	c #13427C",
"1+	c #234FD1",
"2+	c #2A55D4",
"3+	c #355DD7",
"4+	c #4369D9",
"5+	c #5476DD",
"6+	c #718DE3",
"7+	c #7893E4",
"8+	c #7792E4",
"9+	c #6A88D3",
"0+	c #386099",
"a+	c #0032C7",
"b+	c #00238C",
"c+	c #00165B",
"d+	c #001C33",
"e+	c #002700",
"f+	c #000800",
"g+	c #003321",
"h+	c #00329F",
"i+	c #0033CC",
"j+	c #0C3DCE",
"k+	c #3D64D8",
"l+	c #4C70DB",
"m+	c #1F4C6D",
"n+	c #083923",
"o+	c #1040CF",
"p+	c #0029A5",
"q+	c #002289",
"r+	c #001C70",
"s+	c #00175C",
"t+	c #003104",
"u+	c #001200",
"v+	c #003304",
"w+	c #003062",
"x+	c #002FBB",
"y+	c #0030BF",
"z+	c #0032CA",
"A+	c #0638CD",
"B+	c #0A3BCE",
"C+	c #0537CD",
"D+	c #0032C0",
"E+	c #003181",
"F+	c #002CB2",
"G+	c #00279C",
"H+	c #002183",
"I+	c #00165A",
"J+	c #001548",
"K+	c #002E0A",
"L+	c #001B00",
"M+	c #002B00",
"N+	c #00312E",
"O+	c #002B98",
"P+	c #002BAC",
"Q+	c #002CAF",
"R+	c #002AA7",
"S+	c #00279E",
"T+	c #00238F",
"U+	c #001A67",
"V+	c #001557",
"W+	c #00124A",
"X+	c #002914",
"Y+	c #002500",
"Z+	c #003210",
"`+	c #00287F",
" @	c #002596",
".@	c #002593",
"+@	c #002287",
"@@	c #001F7E",
"#@	c #001862",
"$@	c #001553",
"%@	c #002321",
"&@	c #002300",
"*@	c #00320A",
"=@	c #002569",
"-@	c #001F7D",
";@	c #001E77",
">@	c #001967",
",@	c #00134F",
"'@	c #001C2E",
")@	c #002800",
"!@	c #000500",
"~@	c #001F00",
"{@	c #003206",
"]@	c #002357",
"^@	c #001A68",
"/@	c #001860",
"(@	c #00134E",
"_@	c #00153C",
":@	c #001300",
"<@	c #001E00",
"[@	c #003203",
"}@	c #002147",
"|@	c #00175F",
"1@	c #001147",
"2@	c #002A12",
"3@	c #001D00",
"4@	c #001C00",
"5@	c #003204",
"6@	c #001E45",
"7@	c #002026",
"8@	c #003105",
"9@	c #001A45",
"0@	c #00153F",
"a@	c #000A00",
"b@	c #002F0C",
"c@	c #00174C",
"d@	c #002918",
"                                                          . + @ ",
"                                                      # $ % & * ",
"                                                    = - ; > , ' ",
"                                                  ) ! ~ { ] ^ / ",
"                                                ( _ : < [ } | # ",
"                                              ( 1 2 3 4 5 6 7 8 ",
"                                            # 9 0 a b c d e f g ",
"                                          # h i j k l m n o p 8 ",
"                                        # q r s t u v w x y z A ",
"                                        B C D 3 E F G H I J K L ",
"                                      ) M t N O P Q R S T U V W ",
"                                    # X Y Z `  ...H +.@.#.$.%.&.",
"                                    *.=.-.;. .>.H ,.'.).!.~.{.].",
"                                  ) ^.Z ;./.(._.+.:.<.[.}.|.1.2.",
"              3.4.)             # 5.6.O 7.8.9.y 0.a.b.c.d.e.f.f.",
"          # g.h.i.j.8           k.l.m.n.o.p.q.r.).b.s.t.u.f.f.f.",
"      # v.w.j x.y.z.A.        # B.C.D.m E.F.G.#.H.I.t.J.f.f.f.f.",
"    # K.L.M.N.x.D O.P.Q.      R.S.T.U.V.W.X.Y.Z.I.`.f.f.f.f.f.  ",
"#  +.+O ++N O.@+#+3 $+A.    g %+&+& *+=+-+K ;+>+t.f.f.f.f.      ",
",+'+)+!+~+{+O b ]+]+b ^+/+  (+_+:+*+<+,.0.).[+t.2.f.f.f.        ",
"}+|+1+2+3+4+5+_+6+7+8+9+. Q.0+, a+=+b+@.c+d+e+f+f.f.f.          ",
"  8 g+h+i+j+(.} k+] l+5 m+n+o+p.p+q+r+s+&.t+u+f.f.f.            ",
"      v+w+x+y+E.z+A+B+C+D+E+F+G+H+'.I+J+K+L+f.f.f.              ",
"        M+N+O+P+Q+H H x R+S+T+z U+V+W+X+`.f.f.f.                ",
"          Y+Z+`+ @ @.@T++@@@@.#@$@!.%@&@f.f.f.f.                ",
"            t.*@=@X.-@;@r+>@s+,@H.'@)@!@f.f.f.                  ",
"              ~@{@]@0.^@/@).(@b._@t+:@f.f.f.                    ",
"                <@[@}@|@).,@1@b.2@3@f.f.f.                      ",
"                  4@5@6@$@%.b.7@t.f.f.f.                        ",
"                    1.8@9@Z.0@].a@f.f.f.                        ",
"                      &@b@c@d@<@f.f.f.                          ",
"                        e+b@&@f.f.f.                            "};
