/* XPM */
static char * edit_xpm[] = {
"32 32 281 2",
"  	c None",
". 	c #C4D0E5",
"+ 	c #9DAAC1",
"@ 	c #FBFFFF",
"# 	c #FFFFFF",
"$ 	c #FEFFFF",
"% 	c #F5FAFF",
"& 	c #EDF3FE",
"* 	c #E4EBF9",
"= 	c #D8E1F2",
"- 	c #C2D0E9",
"; 	c #A7B2C4",
"> 	c #FCFFFF",
", 	c #F8FDFF",
"' 	c #F2F7FF",
") 	c #EAF1FD",
"! 	c #E1E9F7",
"~ 	c #D5DFF0",
"{ 	c #DBAC55",
"] 	c #F2C584",
"^ 	c #E6AE84",
"/ 	c #DD9A6F",
"( 	c #EDF4FE",
"_ 	c #E6EDFA",
": 	c #DBD6D4",
"< 	c #F5BC00",
"[ 	c #FEE43E",
"} 	c #FEE8C3",
"| 	c #FEECD3",
"1 	c #EEC5A3",
"2 	c #F8FCFF",
"3 	c #F1F7FF",
"4 	c #E9EFFC",
"5 	c #E6B76B",
"6 	c #FEE600",
"7 	c #FECA00",
"8 	c #FEB610",
"9 	c #FEC451",
"0 	c #FECB93",
"a 	c #C15B1D",
"b 	c #FAFEFF",
"c 	c #F3F9FF",
"d 	c #EBEAED",
"e 	c #F5C40F",
"f 	c #FEB600",
"g 	c #FEAF00",
"h 	c #FE9610",
"i 	c #F98219",
"j 	c #AF725E",
"k 	c #F5F9FF",
"l 	c #EDC07F",
"m 	c #FDDE00",
"n 	c #FED201",
"o 	c #FEB001",
"p 	c #FEAC01",
"q 	c #FE871C",
"r 	c #E1701E",
"s 	c #CED1E2",
"t 	c #9EABC1",
"u 	c #F7FBFF",
"v 	c #F5C120",
"w 	c #FEBB07",
"x 	c #FEB306",
"y 	c #FE9C0E",
"z 	c #AF684C",
"A 	c #98A9C5",
"B 	c #FDFFFF",
"C 	c #F3CF9F",
"D 	c #FDE005",
"E 	c #FEDB06",
"F 	c #FEB70D",
"G 	c #FEB30C",
"H 	c #FE8C1C",
"I 	c #E06510",
"J 	c #B5B1C1",
"K 	c #B4C3DC",
"L 	c #AEBEDB",
"M 	c #8495B1",
"N 	c #F5B824",
"O 	c #FEE80D",
"P 	c #FEC613",
"Q 	c #FEB913",
"R 	c #FEA918",
"S 	c #FE8E23",
"T 	c #C7805B",
"U 	c #BBC9E0",
"V 	c #B9C6DF",
"W 	c #B5C5E0",
"X 	c #FBE1BF",
"Y 	c #FCDC15",
"Z 	c #FEE117",
"` 	c #FEBE1C",
" .	c #FEBD19",
"..	c #FE9929",
"+.	c #E9781D",
"@.	c #BFA9AC",
"#.	c #C2CFE5",
"$.	c #C1CDE4",
"%.	c #BDCBE5",
"&.	c #F8C449",
"*.	c #FEEB22",
"=.	c #FED123",
"-.	c #FEC023",
";.	c #FEB128",
">.	c #FE9A34",
",.	c #CD7947",
"'.	c #C9D4E9",
").	c #C7D2E7",
"!.	c #C6D2E6",
"~.	c #C3D0E8",
"{.	c #FDEACF",
"].	c #F9D121",
"^.	c #FEE72C",
"/.	c #FEC42E",
"(.	c #FEC32A",
"_.	c #FEA938",
":.	c #F59031",
"<.	c #C5A5A3",
"[.	c #CED9EC",
"}.	c #CCD7EA",
"|.	c #CBD7EA",
"1.	c #C8D5EC",
"2.	c #F8CE6C",
"3.	c #FEED39",
"4.	c #FED837",
"5.	c #FEC835",
"6.	c #FEBE37",
"7.	c #FEA645",
"8.	c #D06F31",
"9.	c #D2DCEF",
"0.	c #D0DBED",
"a.	c #CEDAF0",
"b.	c #FEF1DF",
"c.	c #F9C828",
"d.	c #FEEC44",
"e.	c #FECE3F",
"f.	c #FECA3C",
"g.	c #FEB649",
"h.	c #F9A247",
"i.	c #C9A098",
"j.	c #D9E2F3",
"k.	c #D7E1F2",
"l.	c #D4DEF0",
"m.	c #D4DDEF",
"n.	c #D2DEF2",
"o.	c #F3CD87",
"p.	c #FEF054",
"q.	c #FEE04D",
"r.	c #FECE48",
"s.	c #FECA47",
"t.	c #FEB258",
"u.	c #D87833",
"v.	c #DEE6F5",
"w.	c #DDE5F4",
"x.	c #DBE4F3",
"y.	c #D8E1F1",
"z.	c #D5E0F4",
"A.	c #F2F1EF",
"B.	c #FAD148",
"C.	c #FEF15F",
"D.	c #FED654",
"E.	c #FED150",
"F.	c #FEC35B",
"G.	c #F9AF58",
"H.	c #CC947F",
"I.	c #E1E9F8",
"J.	c #DDE6F4",
"K.	c #DCE5F4",
"L.	c #DAE4F3",
"M.	c #D9E3F6",
"N.	c #F6FBFF",
"O.	c #F5D193",
"P.	c #FDEC66",
"Q.	c #FEE766",
"R.	c #FED55C",
"S.	c #FED259",
"T.	c #FEBF6B",
"U.	c #E2914A",
"V.	c #E0DFE9",
"W.	c #E4EBF8",
"X.	c #E2EAF8",
"Y.	c #DFE7F7",
"Z.	c #7C8CA8",
"`.	c #F9FEFF",
" +	c #F8C74E",
".+	c #FEF37A",
"++	c #FEDC69",
"@+	c #FED864",
"#+	c #FECF6B",
"$+	c #FEC573",
"%+	c #CD8968",
"&+	c #E7EEFB",
"*+	c #E5ECF9",
"=+	c #E3EBF9",
"-+	c #DBE3F1",
";+	c #D2D9E9",
">+	c #CBD2E3",
",+	c #C6CFE3",
"'+	c #7786A3",
")+	c #F9FDFF",
"!+	c #F5B651",
"~+	c #FEEE86",
"{+	c #FEDC70",
"]+	c #FEDA6E",
"^+	c #FECE7D",
"/+	c #E4964E",
"(+	c #E2D8DC",
"_+	c #E3E9F6",
":+	c #D8DEED",
"<+	c #CFD7E5",
"[+	c #CCD2E2",
"}+	c #CAD1E2",
"|+	c #CAD1E1",
"1+	c #C8D1E5",
"2+	c #EEAB59",
"3+	c #FEEBCE",
"4+	c #FEE4A4",
"5+	c #FEDD8D",
"6+	c #FBD08B",
"7+	c #CB9373",
"8+	c #D7DCEA",
"9+	c #D2D8E6",
"0+	c #CFD6E5",
"a+	c #CED5E4",
"b+	c #CDD4E4",
"c+	c #C9D0E2",
"d+	c #C9D2E5",
"e+	c #E7A259",
"f+	c #F8E7D0",
"g+	c #C0856A",
"h+	c #D0D0DA",
"i+	c #D4DAE7",
"j+	c #D0D7E5",
"k+	c #CDD4E3",
"l+	c #CCD3E3",
"m+	c #F7FDFF",
"n+	c #C6966D",
"o+	c #F5DBC0",
"p+	c #B67252",
"q+	c #D3D2DB",
"r+	c #D8DDE9",
"s+	c #D5DAE8",
"t+	c #D1D8E6",
"u+	c #CBD2E2",
"v+	c #CAD2E5",
"w+	c #936D5C",
"x+	c #978585",
"y+	c #B88571",
"z+	c #D9DFE9",
"A+	c #D8DEE9",
"B+	c #D7DCE9",
"C+	c #D5DAE7",
"D+	c #CDD3E4",
"E+	c #CCD4E7",
"F+	c #8D6050",
"G+	c #AA7A69",
"H+	c #DBE0E9",
"I+	c #D3D9E7",
"J+	c #CFD5E4",
"K+	c #D4DBEA",
"L+	c #DFE9FA",
"M+	c #F4F9FC",
"N+	c #BF968A",
"O+	c #E2E6EE",
"P+	c #DADFE9",
"Q+	c #D6DBE8",
"R+	c #D9DFEC",
"S+	c #DFE6F3",
"T+	c #E3EBF8",
"U+	c #E0E9FB",
"V+	c #F7FCFF",
"W+	c #F4F9FF",
"X+	c #F2F8FF",
"Y+	c #F0F6FF",
"Z+	c #EBF1FC",
"`+	c #E7EEFA",
" @	c #E4ECF9",
".@	c #E1E8F7",
"+@	c #E0EAFC",
"@@	c #E9F0FC",
"#@	c #F4FDFF",
". . . . . . . . . . . . . . . +                                 ",
". @ # # # # # # # # $ % & * = - ;                               ",
". > # # # # # # # # , ' ) ! ~ { ] ^ /                           ",
". > # # # # # # # # @ % ( _ : < [ } | 1                         ",
". > # # # # # # # # $ 2 3 4 5 6 7 8 9 0 a                       ",
". > # # # # # # # # # b c d e 6 f g h i j                       ",
". > # # # # # # # # # > k l m n o p q r s t                     ",
". > # # # # # # # # # > u v 6 w x y q z A A A                   ",
". > # # # # # # # # # B C D E F G H I J K L M                   ",
". > # # # # # # # # # # N O P Q R S T U V W M                   ",
". > # # # # # # # # # X Y Z `  ...+.@.#.$.%.M                   ",
". > # # # # # # # # # &.*.=.-.;.>.,.'.).!.~.M                   ",
". > # # # # # # # # {.].^./.(._.:.<.[.}.|.1.M                   ",
". > # # # # # # # # 2.3.4.5.6.7.8.~ 9.0.0.a.M                   ",
". > # # # # # # # b.c.d.e.f.g.h.i.j.k.l.m.n.M                   ",
". > # # # # # # B o.p.q.r.s.t.u.v.w.x.= y.z.M                   ",
". > # # # # # > A.B.C.D.E.F.G.H.I.v.J.K.L.M.M                   ",
". > # # # # # N.O.P.Q.R.S.T.U.V.W.X.Y.v.J.l.Z.                  ",
". > # # # # `.,  +.+++@+#+$+%+&+*+=+-+;+>+,+'+                  ",
". > # # # # )+, !+~+{+]+^+/+(+_+:+<+[+}+|+1+'+                  ",
". > # # # > `.`.2+3+4+5+6+7+8+9+0+a+b+}+c+d+'+                  ",
". > # # # > `., e+| | f+g+h+i+9+j+0+k+l+>+d+'+                  ",
". > # # # @ `.m+n+| o+p+q+r+s+9+t+0+a+u+l+v+'+                  ",
". > # # $ b `., w+x+y+z+A+B+C+9+j+0+D+u+l+E+Z.                  ",
". > # # $ b `., F+G+H+z+A+r+i+I+j+0+J+K+-+L+M                   ",
". > # # > b , M+N+O+P+z+A+Q+i+9+R+S+T+X.! U+M                   ",
". > # # `.`., V+W+W+X+3 Y+Z+W.`+_  @X.X..@+@M                   ",
". > # # `.`., V+W+W+X+3 Y+& ) @@_  @X.X..@+@M                   ",
". #@# # `.`., V+W+W+X+3 Y+& ) @@_  @X.X..@+@M                   ",
". M M M M M M M M M M M M M M M M M M M M M M                   ",
"                                                                ",
"                                                                "};
