/* XPM */
static char * editcopy_xpm[] = {
"32 32 65 1",
" 	c None",
".	c #DDDCE4",
"+	c #A6A7B0",
"@	c #FFFFFF",
"#	c #EEEEF2",
"$	c #FEFEFE",
"%	c #FBFAFC",
"&	c #F8F7F9",
"*	c #F3F3F5",
"=	c #F0F0F4",
"-	c #B0B1BA",
";	c #F9F9FB",
">	c #F7F6F8",
",	c #F2F1F5",
"'	c #DEDDE5",
")	c #B2B3BA",
"!	c #FCFBFD",
"~	c #F7F7F9",
"{	c #E6E5EB",
"]	c #B7B7BF",
"^	c #F5F5F7",
"/	c #ECEBF1",
"(	c #E1E0E6",
"_	c #D7D7DF",
":	c #E5E4EA",
"<	c #DCDBE3",
"[	c #D9D9E1",
"}	c #9C9CA0",
"|	c #C7C6CE",
"1	c #E8E7ED",
"2	c #E0E0E6",
"3	c #B7B7B7",
"4	c #EAEAEA",
"5	c #EAEAEE",
"6	c #E4E3E9",
"7	c #E2E1E7",
"8	c #B4B4B6",
"9	c #E3E2E4",
"0	c #EEEDF1",
"a	c #E9E9ED",
"b	c #E7E6EC",
"c	c #EBEBEF",
"d	c #B5B5B5",
"e	c #E4E3E5",
"f	c #E5E4E6",
"g	c #F4F4F6",
"h	c #E6E6E8",
"i	c #FAFAFC",
"j	c #B2B2B2",
"k	c #B3B3B3",
"l	c #E1E1E3",
"m	c #B0B0B2",
"n	c #DCDCDE",
"o	c #ADADAF",
"p	c #DDDDDF",
"q	c #DEDEE0",
"r	c #B2B1B3",
"s	c #AFAFB1",
"t	c #C1C0C2",
"u	c #E3E3E5",
"v	c #E8E7E9",
"w	c #E2E2E4",
"x	c #DFDFE1",
"y	c #E4E3E7",
"z	c #EFEFF1",
"                                ",
" ............+                  ",
" .@@@@@@@@@@.#+                 ",
" .@@@@$%&*#=.#-+                ",
" .@@@@$%;>,=.#')+               ",
" .@@@@@!%~*=.$={]+              ",
" .@@@@@$%&>=++++++              ",
" .@@@@@$!;^=#/(__+              ",
" .@@@@@$!;>*#:<_[+}|.....+      ",
" .@@@@@$$%~=12'.'+34@@@@.#+     ",
" .@@@@@$%&=5{6727+89&*#=.#-+    ",
" .@@@$!%;*0ab{{6b+89;>,=.#')+   ",
" .@@$$$;*#/caa1{1+de%~*=.$={]+  ",
" .@@@@;*==#0/5a15+df%&>=++++++  ",
" .@@@%^g,==#0c5a/+dh!;^=#/(__+  ",
" .@@$&^^*==##/5a0+8h!;>*#:<_[+  ",
" .@@%~>^*,==#0ca0+dh$%~=12'.'+  ",
" .@@i~>^g*,=#0/5#+df%&=5{6727+  ",
" .@@;~>^g*,=#0c5#+j9;*0ab{{6b+  ",
" .@@~>^^*,==#0c5#+kl*#/caa1{1+  ",
" .@$~~^g*,=##/ca0+mn==#0/5a15+  ",
" .@@$$$$!%%;~^^*~+op,==#0c5a/+  ",
" +++++++++++++++++oq*==##/5a0+  ",
"             }33rstu*,==#0ca0+  ",
"             |4vwxyzg*,=#0/5#+  ",
"             .@@;~>^g*,=#0c5#+  ",
"             .@@~>^^*,==#0c5#+  ",
"             .@$~~^g*,=##/ca0+  ",
"             .@@$$$$!%%;~^^*~+  ",
"             +++++++++++++++++  ",
"                                ",
"                                "};
