/* XPM */
static char * eraser_xpm[] = {
"32 32 348 2",
"  	c None",
". 	c #BA7631",
"+ 	c #EBCAAD",
"@ 	c #F0D6C6",
"# 	c #BB7E4A",
"$ 	c #D4975C",
"% 	c #F5D7CB",
"& 	c #FDDAD5",
"* 	c #FEDAD4",
"= 	c #F9D8D2",
"- 	c #D7AB88",
"; 	c #8E552A",
"> 	c #975A2B",
", 	c #DFB594",
"' 	c #FACFC7",
") 	c #FBCEC4",
"! 	c #FCD2C2",
"~ 	c #F5CABF",
"{ 	c #FAC3BC",
"] 	c #FFC0B9",
"^ 	c #E8BBAC",
"/ 	c #B3774E",
"( 	c #B2784F",
"_ 	c #EAC2B3",
": 	c #FCC2B9",
"< 	c #FCC7B5",
"[ 	c #F9C5B1",
"} 	c #F3B9AE",
"| 	c #FBB2AA",
"1 	c #FEB2A6",
"2 	c #F4B2A2",
"3 	c #F3A99F",
"4 	c #F9A89B",
"5 	c #C7947A",
"6 	c #8B4D2E",
"7 	c #78442C",
"8 	c #C59980",
"9 	c #F6BFB4",
"0 	c #FABCAE",
"a 	c #FFC4A9",
"b 	c #F4B7A3",
"c 	c #F3AB9F",
"d 	c #FEA69A",
"e 	c #FCA695",
"f 	c #EAA290",
"g 	c #DA928B",
"h 	c #F19886",
"i 	c #FF9081",
"j 	c #FF8E7C",
"k 	c #E58C7B",
"l 	c #9A5D40",
"m 	c #683624",
"n 	c #8F5945",
"o 	c #DBB0A5",
"p 	c #FCB6AB",
"q 	c #F9BAA4",
"r 	c #F9BA9E",
"s 	c #F0AB98",
"t 	c #F8A092",
"u 	c #FF9C8C",
"v 	c #F59D86",
"w 	c #E0907F",
"x 	c #DD897A",
"y 	c #F88974",
"z 	c #FE836E",
"A 	c #FB8B68",
"B 	c #E67D5C",
"C 	c #E64A31",
"D 	c #FD2404",
"E 	c #A0391E",
"F 	c #6E3320",
"G 	c #5A2F2A",
"H 	c #A87C73",
"I 	c #F2BAAF",
"J 	c #F9B5A5",
"K 	c #FBBB9E",
"L 	c #F4B096",
"M 	c #EE9581",
"N 	c #FC7860",
"O 	c #FD6B4A",
"P 	c #E36742",
"Q 	c #C64E3A",
"R 	c #DC5131",
"S 	c #FC4C2B",
"T 	c #FC4C24",
"U 	c #EE531A",
"V 	c #CD3408",
"W 	c #C61A00",
"X 	c #FB2600",
"Y 	c #F84423",
"Z 	c #F33613",
"` 	c #75301A",
" .	c #7E4A41",
"..	c #CBA5A0",
"+.	c #FDB8AB",
"@.	c #F8B6A1",
"#.	c #FC9C6E",
"$.	c #E45C2D",
"%.	c #EB320B",
"&.	c #FF2C00",
"*.	c #F43600",
"=.	c #CA2C00",
"-.	c #B41C00",
";.	c #EB2E00",
">.	c #FE2A00",
",.	c #FF3F00",
"'.	c #E13D00",
").	c #C32600",
"!.	c #E12500",
"~.	c #FF360E",
"{.	c #FF6140",
"].	c #FE3008",
"^.	c #FF2800",
"/.	c #793319",
"(.	c #AA8376",
"_.	c #F1C7BD",
":.	c #FFBAAB",
"<.	c #FC8462",
"[.	c #F15B18",
"}.	c #DD3200",
"|.	c #F82C00",
"1.	c #FF3200",
"2.	c #E53900",
"3.	c #BE2500",
"4.	c #C72700",
"5.	c #F83000",
"6.	c #FC3000",
"7.	c #F74600",
"8.	c #D53700",
"9.	c #C22100",
"0.	c #F42D00",
"a.	c #FF5F3F",
"b.	c #FF5630",
"c.	c #FF2D01",
"d.	c #FF2900",
"e.	c #FF2700",
"f.	c #7D371A",
"g.	c #8A8A8A",
"h.	c #D9D9D9",
"i.	c #EEEDEC",
"j.	c #DEB6AC",
"k.	c #F94618",
"l.	c #FF3300",
"m.	c #FD3300",
"n.	c #F13300",
"o.	c #B82000",
"p.	c #DE3200",
"q.	c #FE3300",
"r.	c #FD3D00",
"s.	c #E94600",
"t.	c #C92F00",
"u.	c #D22500",
"v.	c #FC3F11",
"w.	c #FF7F61",
"x.	c #FF3F12",
"y.	c #FF2D00",
"z.	c #FF2B00",
"A.	c #FF2500",
"B.	c #81391A",
"C.	c #B4B4B4",
"D.	c #F1F1F1",
"E.	c #EEEEEE",
"F.	c #D0CFCF",
"G.	c #BFBFBF",
"H.	c #B19B95",
"I.	c #E16442",
"J.	c #FF3904",
"K.	c #FF3600",
"L.	c #FE3600",
"M.	c #FF3500",
"N.	c #FA3600",
"O.	c #D32C00",
"P.	c #EB3100",
"Q.	c #FF7652",
"R.	c #FF714C",
"S.	c #FF3302",
"T.	c #FF2F00",
"U.	c #FE2300",
"V.	c #853D1B",
"W.	c #8C8B8B",
"X.	c #E0E0E0",
"Y.	c #F7F7F7",
"Z.	c #E6E6E6",
"`.	c #C4C3C3",
" +	c #C1C0C0",
".+	c #B8B7B7",
"++	c #C29184",
"@+	c #F35C31",
"#+	c #FC3A01",
"$+	c #FD3A01",
"%+	c #FD3900",
"&+	c #FE3900",
"*+	c #FF3800",
"=+	c #FF4815",
"-+	c #FF987D",
";+	c #FF4F21",
">+	c #FF3000",
",+	c #FF2600",
"'+	c #FD2300",
")+	c #88411D",
"!+	c #B6B6B6",
"~+	c #F8F8F8",
"{+	c #FAFAFA",
"]+	c #ECECEC",
"^+	c #C5C4C4",
"/+	c #C6C5C5",
"(+	c #C7C6C6",
"_+	c #C9C8C8",
":+	c #C8C8C8",
"<+	c #B9B0AF",
"[+	c #D5907B",
"}+	c #F24E19",
"|+	c #F34008",
"1+	c #F33F07",
"2+	c #F43F07",
"3+	c #F88866",
"4+	c #FD8A6A",
"5+	c #FF3A05",
"6+	c #FF3400",
"7+	c #FF3100",
"8+	c #FF2A00",
"9+	c #F02C07",
"0+	c #A04A1C",
"a+	c #774126",
"b+	c #848484",
"c+	c #D9D8D8",
"d+	c #F9F9F9",
"e+	c #F4F4F4",
"f+	c #CBCACA",
"g+	c #CAC9C9",
"h+	c #CDCCCC",
"i+	c #CDCDCD",
"j+	c #CECDCD",
"k+	c #C3AEA8",
"l+	c #E38B6E",
"m+	c #EB6031",
"n+	c #F8B8A3",
"o+	c #F9693D",
"p+	c #CF4818",
"q+	c #A7571C",
"r+	c #828282",
"s+	c #D2D1D1",
"t+	c #D1CFCF",
"u+	c #D4D4D4",
"v+	c #CCCCCC",
"w+	c #CFCECE",
"x+	c #D1D1D1",
"y+	c #D3D2D2",
"z+	c #D4D3D3",
"A+	c #D5D5D5",
"B+	c #CECCCA",
"C+	c #E8C0B3",
"D+	c #F54A16",
"E+	c #F73205",
"F+	c #C5661C",
"G+	c #9F5A23",
"H+	c #818181",
"I+	c #D7D6D6",
"J+	c #BBBABA",
"K+	c #D7D7D7",
"L+	c #DADADA",
"M+	c #DBDADA",
"N+	c #D8D8D8",
"O+	c #D8D7D7",
"P+	c #DDDDDD",
"Q+	c #E29B85",
"R+	c #F93C04",
"S+	c #FF2E00",
"T+	c #E35418",
"U+	c #D0751B",
"V+	c #DBDBDB",
"W+	c #B5B4B4",
"X+	c #BEBEBE",
"Y+	c #E2E2E2",
"Z+	c #E1E0E0",
"`+	c #E1E1E1",
" @	c #E4E4E4",
".@	c #E3E2E2",
"+@	c #CACACA",
"@@	c #C3C2C2",
"#@	c #E28D74",
"$@	c #FF3700",
"%@	c #F83303",
"&@	c #CD6C1E",
"*@	c #BD7223",
"=@	c #E0DFDF",
"-@	c #CCCBCB",
";@	c #B7B6B6",
">@	c #BBBBBB",
",@	c #EAE9E9",
"'@	c #E8E8E8",
")@	c #E7E7E7",
"!@	c #EFEFEF",
"~@	c #D1D0D0",
"{@	c #E4866A",
"]@	c #D74A17",
"^@	c #BE681B",
"/@	c #E5E5E5",
"(@	c #DCDCDC",
"_@	c #C0BFBF",
":@	c #BAB9B9",
"<@	c #EAEAEA",
"[@	c #F3F3F3",
"}@	c #D5D4D4",
"|@	c #CFCFCF",
"1@	c #E88163",
"2@	c #F93401",
"3@	c #AE5521",
"4@	c #A25C25",
"5@	c #777777",
"6@	c #BFBEBE",
"7@	c #C2C2C2",
"8@	c #EBEBEB",
"9@	c #E4E3E3",
"0@	c #D3D3D3",
"a@	c #CECECE",
"b@	c #E57759",
"c@	c #D04016",
"d@	c #964A1C",
"e@	c #70472A",
"f@	c #717171",
"g@	c #DDDCDC",
"h@	c #CBCBCB",
"i@	c #E7E6E6",
"j@	c #DCDBDB",
"k@	c #894E38",
"l@	c #824425",
"m@	c #8C8C8C",
"n@	c #D2D2D2",
"o@	c #DFDFDF",
"p@	c #F2F2F2",
"q@	c #C6C6C6",
"r@	c #767575",
"s@	c #636363",
"t@	c #9F9F9F",
"u@	c #C4C4C4",
"v@	c #E3E3E3",
"w@	c #EEEDED",
"x@	c #A2A2A2",
"y@	c #676767",
"z@	c #747474",
"A@	c #979797",
"B@	c #D6D6D6",
"C@	c #7D7D7D",
"D@	c #C3C3C3",
"E@	c #B8B8B8",
"F@	c #767676",
"G@	c #6E6E6E",
"                                                                ",
"                                                                ",
"                                                                ",
"                                      . + @ #                   ",
"                                    $ % & * = - ;               ",
"                                > , ' ) ! ~ { ] ^ /             ",
"                              ( _ : < [ } | 1 2 3 4 5 6         ",
"                          7 8 9 0 a b c d e f g h i j k l m     ",
"                        n o p q r s t u v w x y z A B C D E F   ",
"                    G H I J K L M N O P Q R S T U V W X Y Z `   ",
"                   ...+.@.#.$.%.&.*.=.-.;.>.,.'.).!.~.{.].^./.  ",
"                (._.:.<.[.}.|.1.2.3.4.5.6.7.8.9.0.a.b.c.d.e.f.  ",
"            g.h.i.j.k.l.m.l.l.n.o.p.q.r.s.t.u.v.w.x.y.z.^.A.B.  ",
"          C.D.E.F.G.H.I.J.K.K.K.L.M.M.N.O.P.Q.R.S.T.&.d.e.U.V.  ",
"      W.X.Y.Z.`. + + +.+++@+#+$+%+&+&+*+=+-+;+1.>+y.z.^.,+'+)+  ",
"    !+~+{+]+^+^+/+(+_+_+:+<+[+}+|+1+2+3+4+5+6+7+T.&.8+e.9+0+a+  ",
"  b+c+d+e+f+g+f+h+i+j+j+j+h+(+k+l+m+n+o+*+M.l.>+y.z.^.p+q+      ",
"  r+s+t+u+v+w+x+y+z+A+A+z+y+s+w+B+C+D+$+K.6+7+T.&.E+F+G+        ",
"  H+I+j+J+v+h.K+h.L+M+M+L+N+O+P+`.Q+R+*+M.l.>+S+T+U+            ",
"  H+V+y+ +W+X+V+Y+Z+`+`+X. @.@+@@@#@#+$@6+7+%@&@*@              ",
"  H+=@O+-@W+;@>@z+,@'@)@!@`+~@v+(+{@*+M.l.]@^@                  ",
"  r+/@(@y+_@:@X+@@-@<@[@.@L+}@|@f+1@$@2@3@4@                    ",
"  5@Y+`+c+F.6@7@(+f+h.8@9@P+c+0@a@b@c@d@e@                      ",
"    f@>@g@c+h@(+f+w+(@!@i@`+j@K+w+k@l@                          ",
"        m@:+h.f+w+n@o@p@,@/@=@q@r@                              ",
"          s@t@u@s+K+v@e+w@)@x@y@                                ",
"              z@A@B@ @e+X.H+                                    ",
"                  C@D@E@F@                                      ",
"                    r+G@                                        ",
"                                                                ",
"                                                                ",
"                                                                "};
