/* XPM */
static char * export_list_xpm[] = {
"16 16 170 2",
"  	c None",
". 	c #AAACC1",
"+ 	c #A4A4BC",
"@ 	c #9E9EB7",
"# 	c #9595B0",
"$ 	c #8C8CAA",
"% 	c #8282A2",
"& 	c #79799C",
"* 	c #707094",
"= 	c #66668E",
"- 	c #5E5E87",
"; 	c #4B4C7A",
"> 	c #ACACC2",
", 	c #E2E6ED",
"' 	c #EDF0F4",
") 	c #B6BFD1",
"! 	c #7B8CAD",
"~ 	c #C0C8D8",
"{ 	c #FFFFFF",
"] 	c #D2D8E3",
"^ 	c #8188A8",
"/ 	c #A2A3BC",
"( 	c #D6DCE6",
"_ 	c #E6E9EF",
": 	c #8A99B6",
"< 	c #677AA0",
"[ 	c #BFC7D7",
"} 	c #C6CDDB",
"| 	c #7F88A8",
"1 	c #1B1B55",
"2 	c #999AB4",
"3 	c #CFD5E1",
"4 	c #ACB6CB",
"5 	c #A2AEC5",
"6 	c #DBE0E9",
"7 	c #BEC6D6",
"8 	c #697294",
"9 	c #181852",
"0 	c #9092AE",
"a 	c #C7CEDC",
"b 	c #D4DAE4",
"c 	c #EBEEF3",
"d 	c #EAECF2",
"e 	c #E8EBF0",
"f 	c #E6E9F0",
"g 	c #E4E8EE",
"h 	c #E1E5EC",
"i 	c #D8DCE5",
"j 	c #949DB6",
"k 	c #5B6489",
"l 	c #141450",
"m 	c #8688A7",
"n 	c #B1BBCE",
"o 	c #AAB5CA",
"p 	c #A3B0C6",
"q 	c #9CAAC2",
"r 	c #96A4BE",
"s 	c #8F9EB9",
"t 	c #8494B2",
"u 	c #7483A4",
"v 	c #667497",
"w 	c #5D6B90",
"x 	c #50597F",
"y 	c #12124E",
"z 	c #7E7FA0",
"A 	c #B8C1D3",
"B 	c #AEB8CC",
"C 	c #A8B3C9",
"D 	c #9EAAC2",
"E 	c #929FB9",
"F 	c #8692AE",
"G 	c #7A86A5",
"H 	c #727E9E",
"I 	c #697497",
"J 	c #59668A",
"K 	c #454E76",
"L 	c #10104C",
"M 	c #74769A",
"N 	c #B0BACE",
"O 	c #D0D6E2",
"P 	c #FDFDFE",
"Q 	c #F2F2F5",
"R 	c #E6E6ED",
"S 	c #DEDEE7",
"T 	c #D7D7E2",
"U 	c #D0D0DC",
"V 	c #C8C8D6",
"W 	c #C0C0D0",
"X 	c #8086A4",
"Y 	c #3B446D",
"Z 	c #0C0C48",
"` 	c #6A6C93",
" .	c #A8B4C9",
"..	c #C8CFDC",
"+.	c #D6D6E5",
"@.	c #CECEE0",
"#.	c #C7C7DA",
"$.	c #C0C0D4",
"%.	c #B9B9CF",
"&.	c #B2B2CA",
"*.	c #ABABC4",
"=.	c #A4A4BE",
"-.	c #767D9C",
";.	c #323B64",
">.	c #0A0A46",
",.	c #61648C",
"'.	c #9FACC3",
").	c #B7BED0",
"!.	c #D1D1E1",
"~.	c #CACADB",
"{.	c #C3C3D6",
"].	c #BCBCD0",
"^.	c #B4B4CB",
"/.	c #ADADC5",
"(.	c #A6A6C0",
"_.	c #9F9FBA",
":.	c #6C7494",
"<.	c #2A335C",
"[.	c #080844",
"}.	c #585A86",
"|.	c #909CB6",
"1.	c #ABB2C6",
"2.	c #C8C8DA",
"3.	c #C1C1D4",
"4.	c #B2B2C9",
"5.	c #9C9CB8",
"6.	c #9696B3",
"7.	c #636A8C",
"8.	c #222B54",
"9.	c #060642",
"0.	c #4C4F7C",
"a.	c #828EAC",
"b.	c #A0A7BD",
"c.	c #B4B4CD",
"d.	c #AEAEC8",
"e.	c #A6A6C2",
"f.	c #A0A0BD",
"g.	c #9999B8",
"h.	c #9292B2",
"i.	c #8C8CAD",
"j.	c #8585A8",
"k.	c #5B6284",
"l.	c #1B244D",
"m.	c #060640",
"n.	c #414273",
"o.	c #747B9B",
"p.	c #8C90A8",
"q.	c #B6B6C4",
"r.	c #AFAFBE",
"s.	c #A7A7BA",
"t.	c #A0A0B4",
"u.	c #9999AF",
"v.	c #9292A9",
"w.	c #8B8BA4",
"x.	c #84849F",
"y.	c #4B5072",
"z.	c #121740",
"A.	c #040440",
"B.	c #28285E",
"C.	c #222259",
"D.	c #27275C",
"E.	c #26265A",
"F.	c #24245A",
"G.	c #222258",
"H.	c #202058",
"I.	c #202056",
"J.	c #1E1E55",
"K.	c #1C1C54",
"L.	c #101049",
"M.	c #04043F",
"                                ",
"    . + @ # $ % & * = - ;       ",
"  > , ' ) ! ~ { { { { { ] ^     ",
"  / ( _ : < [ { { { { { } | 1   ",
"  2 3 , 4 5 6 { { { { { 7 8 9   ",
"  0 a b c d e f g , h i j k l   ",
"  m ~ n o p q r s t u v w x y   ",
"  z A B B C D E F G H I J K L   ",
"  M N O P Q R S T U V W X Y Z   ",
"  `  ...+.@.#.$.%.&.*.=.-.;.>.  ",
"  ,.'.).!.~.{.].^./.(._.:.<.[.  ",
"  }.|.1.2.3.%.4.*.=.5.6.7.8.9.  ",
"  0.a.b.c.d.e.f.g.h.i.j.k.l.m.  ",
"  n.o.p.q.r.s.t.u.v.w.x.y.z.A.  ",
"    B.C.D.E.F.G.H.I.J.K.L.M.    ",
"                                "};
