/* XPM */
static char * filefind_xpm[] = {
"32 32 333 2",
"  	c None",
". 	c #C4D0E5",
"+ 	c #BFC7D9",
"@ 	c #BCC0D0",
"# 	c #BBBBCA",
"$ 	c #C2C2CF",
"% 	c #CACAD5",
"& 	c #C6C6D2",
"* 	c #BABAC8",
"= 	c #BCBFCF",
"- 	c #BFC5D7",
"; 	c #9FABC1",
"> 	c #FBFFFF",
", 	c #FFFFFF",
"' 	c #EBEBEF",
") 	c #BDBDCA",
"! 	c #A6B3CA",
"~ 	c #A1B6CD",
"{ 	c #B0C1D0",
"] 	c #B5C0C9",
"^ 	c #B9C2C9",
"/ 	c #B9C4CD",
"( 	c #B0C3D2",
"_ 	c #AFC4D7",
": 	c #AABCD1",
"< 	c #B4B5C5",
"[ 	c #ADB2C3",
"} 	c #FCFFFF",
"| 	c #D5D5DE",
"1 	c #ABAFBE",
"2 	c #A3B4C5",
"3 	c #B7C0C7",
"4 	c #C3CCD1",
"5 	c #C5CED3",
"6 	c #C7D0D5",
"7 	c #C9D1D5",
"8 	c #CBD3D7",
"9 	c #CCD5D8",
"0 	c #CDD5D9",
"a 	c #B5C8D5",
"b 	c #ACB8C8",
"c 	c #AAACBE",
"d 	c #D2D2DB",
"e 	c #A2AABB",
"f 	c #ADB6BF",
"g 	c #C1CACF",
"h 	c #CAD2D6",
"i 	c #CED6DA",
"j 	c #CFD7DB",
"k 	c #CFD8DB",
"l 	c #D3DBDD",
"m 	c #D2DADC",
"n 	c #ADBAC8",
"o 	c #A4A6BA",
"p 	c #E4E7EC",
"q 	c #A1A4B1",
"r 	c #ACB5BE",
"s 	c #D4DCDE",
"t 	c #D7DFE1",
"u 	c #D6DEE0",
"v 	c #C6CFD4",
"w 	c #AAB5C2",
"x 	c #A0A5BA",
"y 	c #A7A7B5",
"z 	c #A8B0B8",
"A 	c #C0C9CE",
"B 	c #D9E1E3",
"C 	c #DFE7E7",
"D 	c #E2E9EA",
"E 	c #DEE6E6",
"F 	c #CED7DA",
"G 	c #D0D9DC",
"H 	c #DCE3E4",
"I 	c #D0D7DA",
"J 	c #9DA0B0",
"K 	c #A0A9BE",
"L 	c #B1B8CE",
"M 	c #999FA9",
"N 	c #B8C1C8",
"O 	c #C4CDD2",
"P 	c #D8E0E2",
"Q 	c #E1E9E9",
"R 	c #E8EEEE",
"S 	c #ECF0F0",
"T 	c #D4DBDE",
"U 	c #D5DDDF",
"V 	c #DDE4E5",
"W 	c #C0C8CC",
"X 	c #A5A9BF",
"Y 	c #9EABC1",
"Z 	c #A1A4B4",
"` 	c #A3AAB1",
" .	c #E7EDED",
"..	c #EEF2F2",
"+.	c #F4F6F6",
"@.	c #E9EFEF",
"#.	c #E0E8E8",
"$.	c #E2EAEA",
"%.	c #D9E0E1",
"&.	c #8E8EA0",
"*.	c #97A7C3",
"=.	c #98A9C5",
"-.	c #8F909B",
";.	c #B5BEC5",
">.	c #DFE6E7",
",.	c #F1F5F5",
"'.	c #FAFCFC",
").	c #F6F8F8",
"!.	c #DAE2E4",
"~.	c #EAEFF0",
"{.	c #E3EAEB",
"].	c #E5EBEB",
"^.	c #9FA4AD",
"/.	c #A3AFCB",
"(.	c #8495B1",
"_.	c #94949A",
":.	c #CCD4D8",
"<.	c #F0F4F4",
"[.	c #F2F5F6",
"}.	c #E1E8E9",
"|.	c #E6ECEC",
"1.	c #B6BABE",
"2.	c #9CA5C0",
"3.	c #9B9B9F",
"4.	c #BCC5CC",
"5.	c #D1D9DB",
"6.	c #D6DDE0",
"7.	c #EFF3F3",
"8.	c #EDF1F1",
"9.	c #EAF0F0",
"0.	c #B5B8BB",
"a.	c #9AA1BC",
"b.	c #89898D",
"c.	c #F2F6F6",
"d.	c #B3B5B7",
"e.	c #9FA6C0",
"f.	c #75757D",
"g.	c #B3BCC3",
"h.	c #93959B",
"i.	c #B0BAD3",
"j.	c #8B8C99",
"k.	c #A1A7AD",
"l.	c #F8FAFA",
"m.	c #F7F9F9",
"n.	c #EAEDEE",
"o.	c #6C6C7A",
"p.	c #C7D3E9",
"q.	c #A2A8B9",
"r.	c #7C7E84",
"s.	c #F9FBFB",
"t.	c #FCFCFC",
"u.	c #C0C2C4",
"v.	c #87889D",
"w.	c #D2DEF2",
"x.	c #77777F",
"y.	c #A4ABB2",
"z.	c #FEFEFE",
"A.	c #FDFDFD",
"B.	c #F0F1F2",
"C.	c #B8BED3",
"D.	c #D5E0F4",
"E.	c #CACBD3",
"F.	c #6F7075",
"G.	c #BDC5CB",
"H.	c #9C9DA0",
"I.	c #75758A",
"J.	c #A7ABC1",
"K.	c #D9E3F6",
"L.	c #A4A4AF",
"M.	c #76777C",
"N.	c #C2CACE",
"O.	c #757586",
"P.	c #A7A7B9",
"Q.	c #9A9EB5",
"R.	c #DBE5F7",
"S.	c #707176",
"T.	c #AFB6BB",
"U.	c #E0E3E4",
"V.	c #919295",
"W.	c #787889",
"X.	c #B7B7C6",
"Y.	c #9A9AAF",
"Z.	c #ABABBD",
"`.	c #CCD1E1",
" +	c #AD8F67",
".+	c #AC7324",
"++	c #CBCBD4",
"@+	c #75757F",
"#+	c #7F8185",
"$+	c #B1B6B9",
"%+	c #D0D3D4",
"&+	c #9E9FA2",
"*+	c #696A75",
"=+	c #989BAE",
"-+	c #9192A9",
";+	c #BEBECB",
">+	c #B5B5C4",
",+	c #C19868",
"'+	c #D18C26",
")+	c #D0871C",
"!+	c #BE7E29",
"~+	c #BDBFCA",
"{+	c #858593",
"]+	c #62626C",
"^+	c #77777D",
"/+	c #838589",
"(+	c #7F8085",
"_+	c #666672",
":+	c #7A7A8A",
"<+	c #9A9DAF",
"[+	c #D6DCEB",
"}+	c #E6EDFA",
"|+	c #D0D7E7",
"1+	c #E3EBF9",
"2+	c #A4A7BC",
"3+	c #B69065",
"4+	c #CF9C4E",
"5+	c #F1BB56",
"6+	c #EBA020",
"7+	c #CA821B",
"8+	c #B57729",
"9+	c #F9FEFF",
"0+	c #F8FDFF",
"a+	c #F6FBFF",
"b+	c #E0E4EE",
"c+	c #CBCFDD",
"d+	c #CBCEDD",
"e+	c #F0F6FF",
"f+	c #EDF3FE",
"g+	c #EBF2FD",
"h+	c #E9F0FC",
"i+	c #E7EEFA",
"j+	c #E3EBF8",
"k+	c #B99670",
"l+	c #CC9F57",
"m+	c #FCF1BF",
"n+	c #F7D78C",
"o+	c #F1BC56",
"p+	c #EBA121",
"q+	c #C47E1C",
"r+	c #AB6F29",
"s+	c #F7FDFF",
"t+	c #F7FCFF",
"u+	c #F4F9FF",
"v+	c #F3F8FF",
"w+	c #F2F8FF",
"x+	c #EFF5FF",
"y+	c #ECF2FE",
"z+	c #E8EFFC",
"A+	c #E4ECF9",
"B+	c #AF814F",
"C+	c #DCA843",
"D+	c #FFEBA1",
"E+	c #F7D78D",
"F+	c #F1BC57",
"G+	c #EBA122",
"H+	c #BE791B",
"I+	c #A16728",
"J+	c #FEFFFF",
"K+	c #FAFEFF",
"L+	c #F5FAFF",
"M+	c #F1F7FF",
"N+	c #EEF4FF",
"O+	c #ECF2FD",
"P+	c #E3EAF9",
"Q+	c #DDE1EA",
"R+	c #A87C4F",
"S+	c #D8A543",
"T+	c #FFEAA0",
"U+	c #F7D78E",
"V+	c #F1BC58",
"W+	c #ECA122",
"X+	c #B8741B",
"Y+	c #986028",
"Z+	c #EAF1FD",
"`+	c #E3EAF8",
" @	c #E2EAF8",
".@	c #DDE1EB",
"+@	c #9F754F",
"@@	c #D4A241",
"#@	c #FFEA9F",
"$@	c #FCF1C0",
"%@	c #F7D88E",
"&@	c #F1BD58",
"*@	c #ECA223",
"=@	c #B26F1B",
"-@	c #8E5827",
";@	c #F2F7FF",
">@	c #E1E9F7",
",@	c #DBE0EE",
"'@	c #865F41",
")@	c #D19F40",
"!@	c #FFE99E",
"~@	c #FDF1C0",
"{@	c #F7D88F",
"]@	c #F1BD59",
"^@	c #ECA224",
"/@	c #AB6B1B",
"(@	c #845127",
"_@	c #E1E8F7",
":@	c #E0EAFC",
"<@	c #8490A8",
"[@	c #774724",
"}@	c #CD9C3F",
"|@	c #FFE99D",
"1@	c #FDF2C0",
"2@	c #F7D890",
"3@	c #F1BD5A",
"4@	c #A6661B",
"5@	c #7B4926",
"6@	c #754426",
"7@	c #CB9A3E",
"8@	c #FFE99B",
"9@	c #FDF2C1",
"0@	c #F7D990",
"a@	c #F1BE5A",
"b@	c #D59125",
"c@	c #76492E",
"d@	c #F4FDFF",
"e@	c #744426",
"f@	c #C2923D",
"g@	c #FFE89A",
"h@	c #DFBD7D",
"i@	c #805333",
"j@	c #887F8D",
"k@	c #A87A3A",
"l@	c #E5C983",
"m@	c #83583B",
"n@	c #B2A9AE",
"o@	c #6A6A89",
"p@	c #72452B",
"q@	c #847B8A",
"r@	c #656585",
". . . . . . + @ # $ % & * = - ;                                 ",
". > , , ' ) ! ~ { ] ^ / ( _ : < [                               ",
". } , | 1 2 3 4 5 6 7 8 9 0 6 a b c                             ",
". } d e f g 5 h 0 i j 6 0 k l m h n o                           ",
". p q r g 7 k s t u t s v 7 0 s t k w x                         ",
". y z A 7 m B C D D i E u F G m t H I J K                       ",
"L M N O F P Q R S S T t D U t P B E V W X Y                     ",
"Z ` g 6 l V  ...+.+.B U @.H E C #.#.$.%.&.*.=.                  ",
"-.;.4 h s >.@.,.'.).t !.~.Q {.].].].].{.^./.(.                  ",
"_.N 5 :.m E  .<.[.V H }.<.|. .R R R R  .1.2.(.                  ",
"3.4.v 9 k 6 5.6.U !.#.7.8.R 9.S 8.8.S 9.0.a.(.                  ",
"b.^ 6 0 l s 0 m P E S c.@.S ..7.<.<.7...d.e.(.                  ",
"f.g.7 0 O l C }. .S 9.R S 7.,.c.+.+.c.<.h.i.(.                  ",
"j.k.h i 7 7 k u V $.|.9...,.+.).l.m.).n.o.p.(.                  ",
"q.r.O F k h G t E {. .9.7.c.).s.t.'.l.u.v.w.(.                  ",
". x.y.0 l 0 m t E {. .S 7.c.m.'.z.A.B.f.C.D.(.                  ",
". E.F.G.l u l t E {. .9.7.c.).s.'.'.H.I.J.K.(.                  ",
". } L.M.N.U B P V $.|.@...<.+.).m.H.O.P.Q.R.(.                  ",
". } , L.S.T.s V >.$.].R S ..,.U.V.W.X.Y.Z.`. +.+                ",
". } , , ++@+#+$+%.>.]. .@.%+&+*+=+P.-+;+>+,+'+)+!+              ",
". } , , , } ~+{+]+^+/+(+_+:+<+[+}+|+1+2+3+4+5+6+7+8+            ",
". } , , , } 9+0+a+b+c+d+e+f+g+h+i+}+j+k+l+m+n+o+p+q+r+          ",
". } , , , > 9+s+t+u+v+w+e+x+y+h+z+}+A+B+C+D+m+E+F+G+H+I+        ",
". } , , J+K+9+0+a+L+v+M+e+N+O+h+i+}+P+Q+R+S+T+m+U+V+W+X+Y+      ",
". } , , J+K+9+0+L+L+v+M+e+x+g+Z+i+}+`+ @.@+@@@#@$@%@&@*@=@-@    ",
". } , , } K+0+t+L+u+;@M+e+f+g+h+i+}+j+ @>@,@'@)@!@~@{@]@^@/@(@  ",
". } , , 9+9+0+t+u+u+w+M+e+f+Z+h+}+A+ @ @_@:@<@[@}@|@1@2@3@^@4@5@",
". } , , 9+9+0+t+u+u+w+M+e+f+Z+h+}+A+ @ @_@:@(.  6@7@8@9@0@a@b@c@",
". d@, , 9+9+0+t+u+u+w+M+e+f+Z+h+}+A+ @ @_@:@(.    e@f@g@9@h@i@j@",
". (.(.(.(.(.(.(.(.(.(.(.(.(.(.(.(.(.(.(.(.(.(.      e@k@l@m@n@o@",
"                                                      e@p@q@r@  ",
"                                                                "};
