/* XPM */
static char * folder_xpm[] = {
"32 32 480 2",
"  	c None",
". 	c #1853BC",
"+ 	c #154DB3",
"@ 	c #1C5AC1",
"# 	c #4B7ED2",
"$ 	c #91BDFB",
"% 	c #2C64C8",
"& 	c #164FB4",
"* 	c #144DB7",
"= 	c #1F60C4",
"- 	c #3B74CE",
"; 	c #93BFF7",
"> 	c #70B5FF",
", 	c #5EA8FF",
"' 	c #2D6ED6",
") 	c #2962C4",
"! 	c #92B0E6",
"~ 	c #537ED4",
"{ 	c #2569CA",
"] 	c #3271CD",
"^ 	c #80AFEC",
"/ 	c #91CEFF",
"( 	c #6EB9FF",
"_ 	c #559EF9",
": 	c #2C6FD3",
"< 	c #759DDD",
"[ 	c #94B5F3",
"} 	c #1E5FD5",
"| 	c #134CC8",
"1 	c #092C70",
"2 	c #266DCD",
"3 	c #87B2EA",
"4 	c #9AD1FF",
"5 	c #7FC7FF",
"6 	c #6CB7FF",
"7 	c #3C83DF",
"8 	c #5C8FD9",
"9 	c #A6C7FD",
"0 	c #5193FF",
"a 	c #0C55E5",
"b 	c #094ECE",
"c 	c #1648CF",
"d 	c #0B358C",
"e 	c #398BDE",
"f 	c #2A74D1",
"g 	c #76A7E6",
"h 	c #A7D6FF",
"i 	c #91D1FF",
"j 	c #82C7FF",
"k 	c #559DEE",
"l 	c #4987DA",
"m 	c #A8C8F6",
"n 	c #77AEFF",
"o 	c #2D7EFF",
"p 	c #297AFF",
"q 	c #115BED",
"r 	c #0C4FDA",
"s 	c #1845D5",
"t 	c #0B389C",
"u 	c #419AE9",
"v 	c #5AA6EE",
"w 	c #ADD5FB",
"x 	c #B6DDFE",
"y 	c #569FE9",
"z 	c #2F76C5",
"A 	c #2E7AD5",
"B 	c #5E9AE3",
"C 	c #A2CFFC",
"D 	c #A9DEFF",
"E 	c #9AD6FF",
"F 	c #6DB2F7",
"G 	c #468CDF",
"H 	c #8EB8EE",
"I 	c #9DC7FF",
"J 	c #4190FF",
"K 	c #3585FF",
"L 	c #2C7EFF",
"M 	c #1A68F9",
"N 	c #104DDF",
"O 	c #1740DB",
"P 	c #0A3AA4",
"Q 	c #51A5F0",
"R 	c #A4D2FB",
"S 	c #EDFEFF",
"T 	c #E7FFFF",
"U 	c #DFFCFF",
"V 	c #D8FAFF",
"W 	c #8CC3F6",
"X 	c #84BBF2",
"Y 	c #A8D1FA",
"Z 	c #BFEAFF",
"` 	c #ACE0FF",
" .	c #88C6FE",
"..	c #4C97E7",
"+.	c #81B1EB",
"@.	c #B0D4FF",
"#.	c #6FAFFF",
"$.	c #4D99FF",
"%.	c #408FFF",
"&.	c #3384FF",
"*.	c #2474FF",
"=.	c #1449E2",
"-.	c #143BD8",
";.	c #0B3BB5",
">.	c #68B3F4",
",.	c #ECFBFF",
"'.	c #F4FFFF",
").	c #EBFFFF",
"!.	c #E5FFFF",
"~.	c #D0F5FF",
"{.	c #C7EFFF",
"].	c #BEEAFF",
"^.	c #ADE0FF",
"/.	c #63ABF1",
"(.	c #5C9FE6",
"_.	c #B0D4FE",
":.	c #97C9FF",
"<.	c #65ACFF",
"[.	c #58A2FF",
"}.	c #4B98FF",
"|.	c #3F8EFF",
"1.	c #3283FF",
"2.	c #2673FF",
"3.	c #1B4AE6",
"4.	c #1238D8",
"5.	c #0C37BB",
"6.	c #429DEC",
"7.	c #EFFCFF",
"8.	c #F7FFFF",
"9.	c #F1FFFF",
"0.	c #59A4ED",
"a.	c #A6CEF8",
"b.	c #BADFFF",
"c.	c #7EBDFF",
"d.	c #71B4FF",
"e.	c #64AAFF",
"f.	c #57A1FF",
"g.	c #4A97FF",
"h.	c #3E8DFF",
"i.	c #3182FF",
"j.	c #2664FB",
"k.	c #1E4EED",
"l.	c #1035DA",
"m.	c #0B33C1",
"n.	c #072C80",
"o.	c #4199E7",
"p.	c #E0F5FF",
"q.	c #AEDFFF",
"r.	c #60A5EA",
"s.	c #CEEBFF",
"t.	c #8AC6FF",
"u.	c #7DBCFF",
"v.	c #70B3FF",
"w.	c #63A9FF",
"x.	c #56A0FF",
"y.	c #4996FF",
"z.	c #3C8CFF",
"A.	c #3181FF",
"B.	c #2973FF",
"C.	c #255AF4",
"D.	c #1F4FF1",
"E.	c #0F36DE",
"F.	c #092DC8",
"G.	c #083393",
"H.	c #3F96E1",
"I.	c #D8EEFF",
"J.	c #95CEFD",
"K.	c #A1CBF6",
"L.	c #AAD8FF",
"M.	c #88C5FF",
"N.	c #7BBBFF",
"O.	c #6EB2FF",
"P.	c #61A8FF",
"Q.	c #549FFF",
"R.	c #4795FF",
"S.	c #3B8BFF",
"T.	c #3081FF",
"U.	c #2D7AFF",
"V.	c #2963F8",
"W.	c #2357F4",
"X.	c #1C4CF1",
"Y.	c #123AE5",
"Z.	c #0A2AD5",
"`.	c #0A39A6",
" +	c #5DACF1",
".+	c #F8FFFF",
"++	c #63ABEF",
"@+	c #CEE6FF",
"#+	c #94CDFF",
"$+	c #87C4FF",
"%+	c #7ABAFF",
"&+	c #6DB1FF",
"*+	c #60A7FF",
"=+	c #539EFF",
"-+	c #4694FF",
";+	c #398AFF",
">+	c #307DFF",
",+	c #2D6BFA",
"'+	c #275FF6",
")+	c #2155F3",
"!+	c #1B49F0",
"~+	c #153FEC",
"{+	c #0B2FDB",
"]+	c #0A36B9",
"^+	c #B2DBFE",
"/+	c #FDFFFF",
"(+	c #ACDDFF",
"_+	c #56A3ED",
":+	c #C6E8FF",
"<+	c #93CCFF",
"[+	c #86C2FF",
"}+	c #78B9FF",
"|+	c #6CB0FF",
"1+	c #5FA6FF",
"2+	c #529DFF",
"3+	c #4593FF",
"4+	c #3982FF",
"5+	c #3171FB",
"6+	c #2C67F9",
"7+	c #265DF6",
"8+	c #1F52F3",
"9+	c #1947F0",
"0+	c #1540EE",
"a+	c #4660DE",
"b+	c #5872C1",
"c+	c #072B7E",
"d+	c #5BAAF1",
"e+	c #FFFFFF",
"f+	c #D5F6FF",
"g+	c #83C4F9",
"h+	c #64ABEF",
"i+	c #CEEAFF",
"j+	c #BCE5FF",
"k+	c #9ED4FF",
"l+	c #91CBFF",
"m+	c #84C1FF",
"n+	c #77B8FF",
"o+	c #6AAFFF",
"p+	c #5DA5FF",
"q+	c #5098FF",
"r+	c #4388FF",
"s+	c #387AFD",
"t+	c #306EFB",
"u+	c #2A65F8",
"v+	c #245BF6",
"w+	c #1E50F2",
"x+	c #234EEE",
"y+	c #8C99DC",
"z+	c #BDBDD1",
"A+	c #A5ABCB",
"B+	c #0938A2",
"C+	c #3C92DF",
"D+	c #D4ECFF",
"E+	c #B2E1FF",
"F+	c #63B1F4",
"G+	c #A1D0FA",
"H+	c #E1FAFF",
"I+	c #B7E6FF",
"J+	c #AADDFF",
"K+	c #9DD3FF",
"L+	c #90CAFF",
"M+	c #83C1FF",
"N+	c #76B7FF",
"O+	c #68ACFF",
"P+	c #599FFF",
"Q+	c #4C91FF",
"R+	c #4184FF",
"S+	c #3577FD",
"T+	c #2E6CFB",
"U+	c #2359F5",
"V+	c #5376EB",
"W+	c #BDBFDA",
"X+	c #C3C3D5",
"Y+	c #BFBFD2",
"Z+	c #BCBCCF",
"`+	c #2B54B4",
" @	c #8AC1F5",
".@	c #FAFFFF",
"+@	c #75BAF6",
"@@	c #E1F8FF",
"#@	c #D6FAFF",
"$@	c #C2EFFF",
"%@	c #B5E5FF",
"&@	c #A9DCFF",
"*@	c #9CD2FF",
"=@	c #8EC9FF",
"-@	c #81BFFF",
";@	c #62A6FF",
">@	c #579AFF",
",@	c #4B8EFF",
"'@	c #3F82FF",
")@	c #3475FD",
"!@	c #2D6AFA",
"~@	c #3268F6",
"{@	c #9BACE7",
"]@	c #CECEDD",
"^@	c #CACADA",
"/@	c #C5C5D7",
"(@	c #C1C1D4",
"_@	c #BDBDD0",
":@	c #6B7EB7",
"<@	c #082E85",
"[@	c #3B8FE2",
"}@	c #F5FFFF",
"|@	c #98D1FC",
"1@	c #D2EDFF",
"2@	c #D9FFFF",
"3@	c #CEF7FF",
"4@	c #C1EEFF",
"5@	c #B4E4FF",
"6@	c #A7DBFF",
"7@	c #8CC7FF",
"8@	c #6DAFFF",
"9@	c #61A4FF",
"0@	c #5598FF",
"a@	c #498CFF",
"b@	c #3D7FFF",
"c@	c #3272FC",
"d@	c #638DF4",
"e@	c #CDD1E6",
"f@	c #D4D4E1",
"g@	c #D0D0DE",
"h@	c #CCCCDB",
"i@	c #C7C7D8",
"j@	c #B9B9CD",
"k@	c #737FB0",
"l@	c #214AAC",
"m@	c #062364",
"n@	c #F2FFFF",
"o@	c #BCE1FF",
"p@	c #D8FEFF",
"q@	c #CDF6FF",
"r@	c #C0EDFF",
"s@	c #B3E3FF",
"t@	c #A6DAFF",
"u@	c #97D0FF",
"v@	c #85C3FF",
"w@	c #78B8FF",
"x@	c #6BADFF",
"y@	c #5FA2FF",
"z@	c #5396FF",
"A@	c #478AFF",
"B@	c #4684FD",
"C@	c #ABBFF1",
"D@	c #DEDEE9",
"E@	c #DADAE6",
"F@	c #D6D6E3",
"G@	c #D2D2E0",
"H@	c #A6A9C4",
"I@	c #4460AC",
"J@	c #0937A0",
"K@	c #4491E1",
"L@	c #FCFFFF",
"M@	c #C1E9FF",
"N@	c #99CCFA",
"O@	c #DAFEFF",
"P@	c #CBF5FF",
"Q@	c #BEECFF",
"R@	c #B1E2FF",
"S@	c #A3D8FF",
"T@	c #90CCFF",
"U@	c #77B6FF",
"V@	c #6AABFF",
"W@	c #5EA0FF",
"X@	c #5194FF",
"Y@	c #7AA8FC",
"Z@	c #DEE2F2",
"`@	c #E4E4EE",
" #	c #E0E0EB",
".#	c #DCDCE8",
"+#	c #D8D8E4",
"@#	c #818DBB",
"##	c #1C47AE",
"$#	c #327DCE",
"%#	c #B8D7F9",
"&#	c #E0FCFF",
"*#	c #66AFF1",
"=#	c #CAF4FF",
"-#	c #BDEBFF",
";#	c #B0E1FF",
">#	c #9DD5FF",
",#	c #8ECAFF",
"'#	c #82C0FF",
")#	c #75B5FF",
"!#	c #68A9FF",
"~#	c #66A3FF",
"{#	c #C1D5FB",
"]#	c #EFEFF5",
"^#	c #EBEBF2",
"/#	c #E6E6EF",
"(#	c #E2E2EC",
"_#	c #B7BAD1",
":#	c #4D69B4",
"<#	c #4D93E2",
"[#	c #5EABF0",
"}#	c #D7F3FF",
"|#	c #C9F3FF",
"1#	c #BCE9FF",
"2#	c #ABDEFF",
"3#	c #9AD3FF",
"4#	c #8DC9FF",
"5#	c #80BEFF",
"6#	c #74B3FF",
"7#	c #97C3FF",
"8#	c #EFF3FE",
"9#	c #F5F5FA",
"0#	c #F1F1F7",
"a#	c #EDEDF4",
"b#	c #E8E8F1",
"c#	c #DBDBE7",
"d#	c #909CC6",
"e#	c #1E4AB0",
"f#	c #2E77CB",
"g#	c #B3D3F7",
"h#	c #9CD0FA",
"i#	c #B4DAFC",
"j#	c #C7F2FF",
"k#	c #BAE8FF",
"l#	c #A7DCFF",
"m#	c #99D2FF",
"n#	c #8DC7FF",
"o#	c #88C1FF",
"p#	c #D7EAFF",
"q#	c #FBFBFF",
"r#	c #F7F7FC",
"s#	c #F3F3F8",
"t#	c #C9CCDF",
"u#	c #5672BB",
"v#	c #498CDD",
"w#	c #D4EFFF",
"x#	c #7AB4EF",
"y#	c #D2F5FF",
"z#	c #A6DBFF",
"A#	c #98D1FF",
"B#	c #B3DBFF",
"C#	c #FDFDFF",
"D#	c #F9F9FD",
"E#	c #A0ADD4",
"F#	c #224FB4",
"G#	c #286CC1",
"H#	c #A5C7F1",
"I#	c #4F99E6",
"J#	c #DCF5FF",
"K#	c #B4E5FF",
"L#	c #ABDDFF",
"M#	c #E7F8FF",
"N#	c #DCDFED",
"O#	c #6483C7",
"P#	c #0D3EA4",
"Q#	c #377BD2",
"R#	c #91BEF1",
"S#	c #B0D3F9",
"T#	c #CEF0FF",
"U#	c #B2C1E2",
"V#	c #2C5EBE",
"W#	c #0C3483",
"X#	c #2260B3",
"Y#	c #6EA0E2",
"Z#	c #5A9AE3",
"`#	c #EDF1FB",
" $	c #7395D4",
".$	c #144AAD",
"+$	c #2264C3",
"@$	c #2C77D5",
"#$	c #EEF7FF",
"$$	c #BFCFED",
"%$	c #356CC8",
"&$	c #123D8A",
"*$	c #266CCE",
"=$	c #8DB7EC",
"-$	c #F2F6FF",
";$	c #7CA2DD",
">$	c #1A53AD",
",$	c #1B55AE",
"'$	c #377BD5",
")$	c #B9CFF0",
"!$	c #3E77CC",
"~$	c #154285",
"{$	c #2160BB",
"]$	c #205DB2",
"                                            . +                 ",
"                                        @ # $ %   & *           ",
"                                    = - ; > , ' ) ! ~           ",
"                                { ] ^ / ( _ : < [ } | 1         ",
"                              2 3 4 5 6 7 8 9 0 a b c d         ",
"              e           f g h i j k l m n o p q r s t         ",
"        u v w x y z   A B C D E F G H I J K L p M N O P         ",
"      Q R S T U V W X Y Z `  ...+.@.#.$.%.&.L p *.=.-.;.        ",
"    >.,.'.).!.U V ~.{.].^./.(._.:.<.[.}.|.1.L p 2.3.4.5.        ",
"  6.7.8.9.).!.U V ~.{.].0.a.b.c.d.e.f.g.h.i.L p j.k.l.m.n.      ",
"  o.p.8.9.).!.U V ~.{.q.r.s.t.u.v.w.x.y.z.A.L B.C.D.E.F.G.      ",
"  H.I.8.9.).!.U V ~.{.J.K.L.M.N.O.P.Q.R.S.T.U.V.W.X.Y.Z.`.      ",
"   +.+8.9.).!.U V ~.{.++@+#+$+%+&+*+=+-+;+>+,+'+)+!+~+{+]+      ",
"  ^+/+8.9.).!.U V (+_+K.:+<+[+}+|+1+2+3+4+5+6+7+8+9+0+a+b+c+    ",
"  d+e+8.9.).!.f+g+h+i+j+k+l+m+n+o+p+q+r+s+t+u+v+w+x+y+z+A+B+    ",
"  C+D+8.9.).E+F+G+H+I+J+K+L+M+N+O+P+Q+R+S+T+V.U+V+W+X+Y+Z+`+    ",
"     @.@9.(++@@@#@$@%@&@*@=@-@v.;@>@,@'@)@!@~@{@]@^@/@(@_@:@<@  ",
"    [@}@9.|@1@2@3@4@5@6@4 7@%+8@9@0@a@b@c@d@e@f@g@h@i@j@k@l@m@  ",
"      K.n@|@o@p@q@r@s@t@u@v@w@x@y@z@A@B@C@D@E@F@G@]@H@I@J@      ",
"      K@L@M@N@O@P@Q@R@S@T@M+U@V@W@X@Y@Z@`@ #.#+#^@@###c+        ",
"      $#%#&#*#!.=#-#;#>#,#'#)#!#~#{#]#^#/#(#D@_#:#J@            ",
"        <#}@[#}#|#1#2#3#4#5#6#7#8#9#0#a#b#c#d#e#c+              ",
"        f#g#h#i#j#k#l#m#n#o#p#e+q#r#s#]#t#u#J@                  ",
"          v#w#x#y#I+z#A#B#e+e+e+C#D#a#E#F#c+                    ",
"          G#H#I#J#K#L#M#e+e+e+e+e+N#O#P#                        ",
"            Q#R#S#T#e+e+e+e+e+e+U#V#W#                          ",
"            X#Y#Z#e+e+e+e+e+`# $.$                              ",
"              +$@$#$e+e+e+$$%$&$                                ",
"                *$=$e+-$;$>$                                    ",
"                ,$'$)$!$~$                                      ",
"                  {$]$                                          ",
"                                                                "};
