/* XPM */
static char * help_xpm[] = {
"16 16 115 2",
"  	c None",
". 	c #3C7CFF",
"+ 	c #4180FF",
"@ 	c #5C90FA",
"# 	c #5D90FA",
"$ 	c #3276FF",
"% 	c #3B7CFF",
"& 	c #538BFE",
"* 	c #A9C5FD",
"= 	c #E2EBFE",
"- 	c #DAE4F8",
"; 	c #D8E2F8",
"> 	c #DDE7FB",
", 	c #BBD0F9",
"' 	c #568CFB",
") 	c #2A70FF",
"! 	c #699AFC",
"~ 	c #D0DFFE",
"{ 	c #CADAF9",
"] 	c #DCE6F8",
"^ 	c #FFFFFF",
"/ 	c #EEF2FC",
"( 	c #D4E0F8",
"_ 	c #D6E4FE",
": 	c #77A0F4",
"< 	c #266DFF",
"[ 	c #4F88FE",
"} 	c #BCD2FE",
"| 	c #BED2FB",
"1 	c #EDF2FB",
"2 	c #EAF1FF",
"3 	c #E2ECFF",
"4 	c #FCFDFF",
"5 	c #CFDEFC",
"6 	c #C2D6FE",
"7 	c #4E87FC",
"8 	c #87AEFD",
"9 	c #B0CAFF",
"0 	c #B7CDFA",
"a 	c #F0F5FF",
"b 	c #C7D7F8",
"c 	c #DEE9FF",
"d 	c #AAC6FE",
"e 	c #7EA7F9",
"f 	c #226BFF",
"g 	c #407FFF",
"h 	c #94B7FE",
"i 	c #9ABCFF",
"j 	c #A0BFFE",
"k 	c #DEEAFF",
"l 	c #B5CEFF",
"m 	c #9AB9F9",
"n 	c #DCE4F6",
"o 	c #AAC5FD",
"p 	c #568EFE",
"q 	c #548DFF",
"r 	c #2E73FF",
"s 	c #4A85FD",
"t 	c #84AEFF",
"u 	c #86ACF7",
"v 	c #DDE6F7",
"w 	c #D9E5FD",
"x 	c #5B91FD",
"y 	c #3678FF",
"z 	c #4883FE",
"A 	c #6C9DFF",
"B 	c #6D9DFF",
"C 	c #C5D4F2",
"D 	c #D7E3FD",
"E 	c #5F94FD",
"F 	c #558EFF",
"G 	c #3578FE",
"H 	c #3D7EFF",
"I 	c #5E93FF",
"J 	c #5E94FE",
"K 	c #5D92FF",
"L 	c #5B91FF",
"M 	c #EBEFF8",
"N 	c #F8FAFF",
"O 	c #6396FE",
"P 	c #5A91FF",
"Q 	c #2B70FD",
"R 	c #3175FF",
"S 	c #5C91FE",
"T 	c #6094FF",
"U 	c #B6CDFC",
"V 	c #ACC7FF",
"W 	c #5A90FE",
"X 	c #1B65FC",
"Y 	c #4984FC",
"Z 	c #6E9EFF",
"` 	c #6D9CFC",
" .	c #BFD0F4",
"..	c #C8D8FA",
"+.	c #709FFF",
"@.	c #3E7CFA",
"#.	c #5F90F6",
"$.	c #7CA8FF",
"%.	c #79A3F9",
"&.	c #FDFEFF",
"*.	c #88B0FF",
"=.	c #598CF4",
"-.	c #1A64FA",
";.	c #256DFF",
">.	c #548AF7",
",.	c #87ADFA",
"'.	c #8CB2FF",
").	c #A6C3FF",
"!.	c #87ACF8",
"~.	c #4E85F5",
"{.	c #286DFB",
"].	c #4B82F3",
"^.	c #568CFC",
"/.	c #4880F0",
"(.	c #2268F8",
"                                ",
"          . + @ # . $           ",
"      % & * = - ; > , ' )       ",
"    % ! ~ { ] ^ ^ / ( _ : <     ",
"    [ } | 1 ^ 2 3 4 ^ 5 6 7     ",
"  . 8 9 0 ^ a 9 9 b ^ c d e f   ",
"  g h i j k l i m n ^ o p q r   ",
"  s t t t t t u v ^ w x q q y   ",
"  z A A A A B C ^ D E F F F G   ",
"  H I J I K L M N O P P P P Q   ",
"  R S T T T T U V T T T T W X   ",
"    Y Z Z Z `  ...+.Z Z Z @.    ",
"    ) #.$.$.%.&.^ *.$.$.=.-.    ",
"      ;.>.,.'.).V '.!.~.-.      ",
"          {.].^.' /.(.          ",
"                                "};
