/* XPM */
static char *high_xpm[] = {
/* columns rows colors chars-per-pixel */
"32 32 65 1",
"  c black",
". c #010000",
"X c #020000",
"o c #060000",
"O c #0A0000",
"+ c #0B0001",
"@ c #0D0001",
"# c #1B0001",
"$ c #1D0001",
"% c #1E0001",
"& c #210001",
"* c #220001",
"= c #230001",
"- c #260001",
"; c #270001",
": c #280001",
"> c #290002",
", c #2B0002",
"< c #2D0001",
"1 c #2D0002",
"2 c #2F0002",
"3 c #310002",
"4 c #330002",
"5 c #340002",
"6 c #360002",
"7 c #370002",
"8 c #380002",
"9 c #390002",
"0 c #3A0002",
"q c #3B0002",
"w c #3D0002",
"e c #3F0002",
"r c #410002",
"t c #420002",
"y c #520003",
"u c #570003",
"i c #5D0003",
"p c #5E0004",
"a c #6A0004",
"s c #7A0004",
"d c #7E0004",
"f c #830005",
"g c #840005",
"h c #9A0005",
"j c #9D0006",
"k c #A60006",
"l c #A80007",
"z c #A90006",
"x c #BA0007",
"c c #BD0007",
"v c #C60007",
"b c #CC0007",
"n c #DB0007",
"m c #E00008",
"M c #E40008",
"N c #ED0008",
"B c #ED0009",
"V c #EF0009",
"C c #F50009",
"Z c #F70009",
"A c #F80009",
"S c #FB0009",
"D c #FD0009",
"F c #FF0009",
"G c None",
/* pixels */
"GGGGGGGGGGGGGGGGGGGGGGGGGGGGGGGG",
"GGGGGGGGGGGGGGGGGGGGGGGGGGGGGGGG",
"GGGGGGGGGGGGGGGGGGGGGGGGGGGGGGGG",
"GGGGGGGGGGGGGGGFFGGGGGGGGGGGGGGG",
"GGGGGGGGGGGGGGFFFFGGGGGGGGGGGGGG",
"GGGGGGGGGGGGGGFFFFGGGGGGGGGGGGGG",
"GGGGGGGGGGGGGFFOgFFGGGGGGGGGGGGG",
"GGGGGGGGGGGGFFg  FFGGGGGGGGGGGGG",
"GGGGGGGGGGGGFA   sFFGGGGGGGGGGGG",
"GGGGGGGGGGGFFp    FFGGGGGGGGGGGG",
"GGGGGGGGGGGFV  G  pFFGGGGGGGGGGG",
"GGGGGGGGGGFF9 GGG  AFGGGGGGGGGGG",
"GGGGGGGGGGFM  FFF  yFFGGGGGGGGGG",
"GGGGGGGGGFF& GFFFG  CFGGGGGGGGGG",
"GGGGGGGGGFb  GFFFFG tFFGGGGGGGGG",
"GGGGGGGGFF@ GGFFFFG  VFGGGGGGGGG",
"GGGGGGGGFk  GGFFFFG  9FFGGGGGGGG",
"GGGGGGGFFo GGGFFFFGG  nFGGGGGGGG",
"GGGGGGFFd  GGGFFFFGGG <FFGGGGGGG",
"GGGGGGFC  GGGGFFFFGGG  bFGGGGGGG",
"GGGGGFFu  GGGGFFFGGGGG >FFGGGGGG",
"GGGGGFV  GGGGGFFFGGGGG  xFGGGGGG",
"GGGGFF7 GGGGGGGFFGGGGGG &FFGGGGG",
"GGGGFn  GGGGGGGGGGGGGGG  lFGGGGG",
"GGGFF% GGGGGGGGGGGGGGGGG &AFGGGG",
"GGFFv  GGGGGGGFFFGGGGGGG  hFGGGG",
"GGFFO GGGGGGGGFFFGGGGGGGG %CFGGG",
"GGFl                       jFGGG",
"GGFa#%&&&;;><><<33777999eetxFFGG",
"GGFFFFFFFFFFFFFFFFFFFFFFFFFFFFGG",
"GGGGGGGGGGGGGGGGGGGGGGGGGGGGGGGG",
"GGGGGGGGGGGGGGGGGGGGGGGGGGGGGGGG"
};
