/* XPM */
static char * hyperlink_xpm[] = {
"24 24 32 1",
" 	c None",
".	c #000000",
"+	c #B9B9B9",
"@	c #BEBEBE",
"#	c #C3C3C3",
"$	c #C8C8C8",
"%	c #EAEAEA",
"&	c #F9F9F9",
"*	c #888888",
"=	c #686868",
"-	c #CACACA",
";	c #B2B2B2",
">	c #B3B3B3",
",	c #EFEFEF",
"'	c #CCCCCC",
")	c #D9D9D9",
"!	c #939393",
"~	c #616161",
"{	c #8E8E8E",
"]	c #AAAAAA",
"^	c #DCDCDC",
"/	c #F4F4F4",
"(	c #F2F2F2",
"_	c #808080",
":	c #979797",
"<	c #9D9D9D",
"[	c #A3A3A3",
"}	c #A7A7A7",
"|	c #A9A9A9",
"1	c #787878",
"2	c #A4A4A4",
"3	c #969696",
"                        ",
"                        ",
"                        ",
"                        ",
"                        ",
"                        ",
"                        ",
"     ......   ....      ",
"    +@#$%&*. .=-@;>     ",
"    ......,...'....     ",
"    )!..~{]''^/(_..     ",
"    ......'...{...      ",
"    :<[}||1. .123*      ",
"    ........  ....      ",
"                        ",
"                        ",
"                        ",
"                        ",
"                        ",
"                        ",
"                        ",
"                        ",
"                        ",
"                        "};
