/* XPM */
static char * in_progress_xpm[] = {
"32 32 378 2",
"  	c None",
". 	c #9D9D9D",
"+ 	c #B6B9B6",
"@ 	c #B3BFB3",
"# 	c #ABC2AB",
"$ 	c #95A495",
"% 	c #7D7D7D",
"& 	c #B7B7B7",
"* 	c #BCC0BC",
"= 	c #C1D3C1",
"- 	c #C0DFC0",
"; 	c #B5DAB5",
"> 	c #A6D1A6",
", 	c #8FB58F",
"' 	c #718171",
") 	c #595959",
"! 	c #A6AAA6",
"~ 	c #B4C4B4",
"{ 	c #BFD9BF",
"] 	c #C4E1C4",
"^ 	c #B7DAB7",
"/ 	c #A9D3A9",
"( 	c #99CB99",
"_ 	c #86BC86",
": 	c #6D966D",
"< 	c #506050",
"[ 	c #3B3C3B",
"} 	c #7D7E7D",
"| 	c #878C87",
"1 	c #9CB99C",
"2 	c #ABD5AB",
"3 	c #B2D9B2",
"4 	c #B7DBB7",
"5 	c #B8DCB8",
"6 	c #B4D9B4",
"7 	c #A8D3A8",
"8 	c #99CC99",
"9 	c #89C489",
"0 	c #7BBD7B",
"a 	c #69A569",
"b 	c #507550",
"c 	c #3A463A",
"d 	c #5A5E5A",
"e 	c #6D8E6D",
"f 	c #7EBA7E",
"g 	c #85C285",
"h 	c #8DC58D",
"i 	c #94C994",
"j 	c #9BCD9B",
"k 	c #A1D0A1",
"l 	c #A2D1A2",
"m 	c #9ECF9E",
"n 	c #94CA94",
"o 	c #7DBE7D",
"p 	c #71B771",
"q 	c #67B267",
"r 	c #569256",
"s 	c #3F5B3F",
"t 	c #2F382F",
"u 	c #3A4A3A",
"v 	c #497B49",
"w 	c #56A756",
"x 	c #57A957",
"y 	c #5AAC5A",
"z 	c #5EAE5E",
"A 	c #65B165",
"B 	c #6DB66D",
"C 	c #75BA75",
"D 	c #7EBE7E",
"E 	c #82C082",
"F 	c #83C183",
"G 	c #80BF80",
"H 	c #7ABC7A",
"I 	c #73B873",
"J 	c #6BB46B",
"K 	c #64B164",
"L 	c #4E864E",
"M 	c #374637",
"N 	c #2A2D2A",
"O 	c #030603",
"P 	c #0F300F",
"Q 	c #226A22",
"R 	c #309130",
"S 	c #319331",
"T 	c #319631",
"U 	c #349934",
"V 	c #3D9D3D",
"W 	c #4AA44A",
"X 	c #57AA57",
"Y 	c #63B163",
"Z 	c #6CB56C",
"` 	c #71B871",
" .	c #72B872",
"..	c #6FB76F",
"+.	c #6AB46A",
"@.	c #60AF60",
"#.	c #5AA55A",
"$.	c #487848",
"%.	c #2F3B2F",
"&.	c #202120",
"*.	c #020802",
"=.	c #143D14",
"-.	c #236B23",
";.	c #2A7F2A",
">.	c #2B822B",
",.	c #2D862C",
"'.	c #2E8B2E",
").	c #309230",
"!.	c #3A9B3A",
"~.	c #4EA64E",
"{.	c #70B770",
"].	c #6DB56D",
"^.	c #68B368",
"/.	c #5DAE5D",
"(.	c #4E934E",
"_.	c #2A3B2A",
":.	c #1B1E1B",
"<.	c #000000",
"[.	c #030A03",
"}.	c #153E15",
"|.	c #226622",
"1.	c #267125",
"2.	c #287828",
"3.	c #2A802A",
"4.	c #2E8A2E",
"5.	c #359635",
"6.	c #48A348",
"7.	c #5EAF5E",
"8.	c #74B974",
"9.	c #58AB58",
"0.	c #4DA64D",
"a.	c #347434",
"b.	c #183318",
"c.	c #050805",
"d.	c #040E04",
"e.	c #164216",
"f.	c #236823",
"g.	c #267226",
"h.	c #2A7E2A",
"i.	c #2E892D",
"j.	c #379737",
"k.	c #4CA54C",
"l.	c #78BB78",
"m.	c #77BB77",
"n.	c #73B973",
"o.	c #69B469",
"p.	c #5BAC5B",
"q.	c #3E9E3E",
"r.	c #349734",
"s.	c #071707",
"t.	c #020702",
"u.	c #020602",
"v.	c #0B230B",
"w.	c #1B521B",
"x.	c #267526",
"y.	c #2F902F",
"z.	c #56AB56",
"A.	c #6AB56A",
"B.	c #79BC79",
"C.	c #5CAD5C",
"D.	c #49A449",
"E.	c #389C38",
"F.	c #329532",
"G.	c #2F8E2F",
"H.	c #2B812B",
"I.	c #1A521A",
"J.	c #123912",
"K.	c #236A23",
"L.	c #379837",
"M.	c #4AA54A",
"N.	c #6FB66F",
"O.	c #75B975",
"P.	c #6BB56B",
"Q.	c #42A042",
"R.	c #308F30",
"S.	c #2E892E",
"T.	c #2B832B",
"U.	c #115F11",
"V.	c #010601",
"W.	c #081A08",
"X.	c #1D571D",
"Y.	c #318731",
"Z.	c #449F44",
"`.	c #57AB57",
" +	c #379A37",
".+	c #2D872D",
"++	c #217120",
"@+	c #1C681C",
"#+	c #145114",
"$+	c #010101",
"%+	c #162C16",
"&+	c #3B7A3B",
"*+	c #52A452",
"=+	c #5FAF5F",
"-+	c #52A852",
";+	c #3B9D3B",
">+	c #309030",
",+	c #2C852C",
"'+	c #287A28",
")+	c #257125",
"!+	c #1F631F",
"~+	c #1C591C",
"{+	c #020202",
"]+	c #131313",
"^+	c #292B29",
"/+	c #487A48",
"(+	c #54A954",
"_+	c #3C9C3C",
":+	c #319031",
"<+	c #287727",
"[+	c #246C23",
"}+	c #216421",
"|+	c #1E5C1E",
"1+	c #1D571C",
"2+	c #1B511B",
"3+	c #2B2D2B",
"4+	c #4B6A4B",
"5+	c #5C9F5C",
"6+	c #389A38",
"7+	c #2F8F2F",
"8+	c #2B812A",
"9+	c #226522",
"0+	c #1E5B1E",
"a+	c #1C541B",
"b+	c #1A4E19",
"c+	c #184918",
"d+	c #174517",
"e+	c #5C605C",
"f+	c #677B67",
"g+	c #6CA36C",
"h+	c #4FA74F",
"i+	c #399A39",
"j+	c #256F24",
"k+	c #205F1F",
"l+	c #1C531B",
"m+	c #184A18",
"n+	c #164416",
"o+	c #153F14",
"p+	c #143C13",
"q+	c #133A13",
"r+	c #808280",
"s+	c #879487",
"t+	c #89AA89",
"u+	c #84BB84",
"v+	c #5BAD5B",
"w+	c #3E9D3E",
"x+	c #297E29",
"y+	c #246D24",
"z+	c #1A4D19",
"A+	c #164115",
"B+	c #123511",
"C+	c #113311",
"D+	c #103110",
"E+	c #0E2B0E",
"F+	c #A2A5A2",
"G+	c #A1AEA1",
"H+	c #A1C5A1",
"I+	c #98CB98",
"J+	c #48A248",
"K+	c #329032",
"L+	c #2A7E29",
"M+	c #246B24",
"N+	c #1E591D",
"O+	c #113411",
"P+	c #103210",
"Q+	c #0F2E0F",
"R+	c #B1B4B1",
"S+	c #B1BAB1",
"T+	c #B4CCB4",
"U+	c #B2D7B2",
"V+	c #A6D2A6",
"W+	c #93C993",
"X+	c #53A853",
"Y+	c #369336",
"Z+	c #1D581D",
"`+	c #184717",
" @	c #133A12",
".@	c #102F10",
"+@	c #0E2A0E",
"@@	c #081708",
"#@	c #B4BAB4",
"$@	c #B8C8B8",
"%@	c #BAD5BA",
"&@	c #B8DBB8",
"*@	c #ADD6AD",
"=@	c #9CCD9C",
"-@	c #3A963A",
";@	c #1D561C",
">@	c #174516",
",@	c #133812",
"'@	c #113211",
")@	c #103010",
"!@	c #0F2D0F",
"~@	c #091B09",
"{@	c #000100",
"]@	c #A7ABA7",
"^@	c #ACB4AC",
"/@	c #B4CDB4",
"(@	c #9ACC9A",
"_@	c #3B963B",
":@	c #226922",
"<@	c #174316",
"[@	c #123712",
"}@	c #113210",
"|@	c #102F0F",
"1@	c #0A1F09",
"2@	c #040C04",
"3@	c #949D94",
"4@	c #A1BAA1",
"5@	c #A8CEA8",
"6@	c #AAD4AA",
"7@	c #9ECE9E",
"8@	c #8FC78F",
"9@	c #369236",
"0@	c #297C29",
"a@	c #123512",
"b@	c #0E290E",
"c@	c #081707",
"d@	c #010301",
"e@	c #7C937C",
"f@	c #88B188",
"g@	c #90C890",
"h@	c #90C790",
"i@	c #8CC58C",
"j@	c #84C184",
"k@	c #76BA76",
"l@	c #5FAE5F",
"m@	c #429D42",
"n@	c #2D8A2D",
"o@	c #277527",
"p@	c #206120",
"q@	c #153E14",
"r@	c #0A1E0A",
"s@	c #4E554E",
"t@	c #5E885E",
"u@	c #6EB66E",
"v@	c #66B266",
"w@	c #53A753",
"x@	c #409C40",
"y@	c #297D29",
"z@	c #184817",
"A@	c #143A13",
"B@	c #0C250C",
"C@	c #071507",
"D@	c #010401",
"E@	c #2B2C2B",
"F@	c #345534",
"G@	c #3C7B3C",
"H@	c #439643",
"I@	c #419D41",
"J@	c #3C9B3C",
"K@	c #359735",
"L@	c #2D882D",
"M@	c #256F25",
"N@	c #1F5F1F",
"O@	c #1A4E1A",
"P@	c #154015",
"Q@	c #123612",
"R@	c #0E2C0E",
"S@	c #091C09",
"T@	c #164316",
"U@	c #2A7D2A",
"V@	c #277627",
"W@	c #1B531B",
"X@	c #0B220B",
"Y@	c #051005",
"Z@	c #030903",
"`@	c #143C14",
" #	c #1C551C",
".#	c #0E280E",
"+#	c #091A09",
"@#	c #071607",
"##	c #133913",
"$#	c #030B03",
"%#	c #061306",
"&#	c #0C230C",
"*#	c #0D260D",
"=#	c #020502",
"                    .                                           ",
"                + @ # $ %                                       ",
"            & * = - ; > , ' )                                   ",
"          ! ~ { ] - ^ / ( _ : < [                               ",
"      } | 1 2 3 4 5 6 7 8 9 0 a b c                             ",
"    d e f g h i j k l m n 9 o p q r s t                         ",
"  u v w x y z A B C D E F G H I J K z L M N                     ",
"    O P Q R S T U V W X Y Z `  ...+.A @.#.$.%.&.                ",
"        *.=.-.;.>.,.'.).!.~.@.Z ` {.].^.Y /.(._.:.              ",
"          <.[.}.|.1.2.3.4.5.6.7.B 8.8.p Z Y 9.0.a.b.c.          ",
"            <.<.d.e.f.g.h.i.j.k.Y  .l.m.n.o.p.k.q.r.s.*.t.      ",
"              <.<.u.v.w.x.>.y.V z.A.C B.m.B C.D.E.F.G.H.I.<.    ",
"                  <.<.d.J.K.i.L.M.@.N.O.C P.9.Q.r.R.S.T.U.V.<.  ",
"                    <.<.<.W.X.Y.Z.`.K P.Z Y ~. +R..+;.++@+#+<.  ",
"                        <.<.$+%+&+*+C.=+z -+;+>+,+'+)+Q !+~+<.  ",
"                            {+]+^+/+9.(+k._+:+T.<+[+}+|+1+2+<.  ",
"                              3+4+5+9.D.6+7+8+g.9+0+a+b+c+d+<.  ",
"                            e+f+g+K h+i+G.3.j+k+l+m+n+o+p+q+<.  ",
"                        r+s+t+u+C v+w+G.x+y+|+z+A+q+B+C+D+E+<.  ",
"                      F+G+H+I+g +.J+K+L+M+N+c+p+O+P+D+D+Q+<.<.  ",
"                  R+S+T+U+V+W+l.X+Y+L+K.Z+`+ @C+D+D+.@+@@@<.    ",
"                #@$@%@&@*@=@G p.-@;.K.;@>@,@'@D+)@!@~@{@<.      ",
"            ]@^@/@&@6 2 (@G C._@;.:@a+<@[@}@D+|@1@2@{@<.        ",
"          3@4@5@6@V+7@8@C X+9@0@|.w.e.a@D+.@b@c@d@<.            ",
"        e@f@g@h@i@j@k@l@m@n@o@p@b+q@O+)@Q+r@u.<.                ",
"    s@t@u@Z +.v@z w@x@G.y@-.Z+z@A@C+.@B@C@D@<.                  ",
"  E@F@G@H@I@J@K@R L@h.M@N@O@P@Q@)@R@S@t.<.                      ",
"      t.T@y+U@h.V@y+p@W@d+ @}@.@X@Y@d@<.                        ",
"        <.Z@`@N@|+ #m+q@B+)@.#+#*.<.                            ",
"            D@@#)@q@##C+Q+X@$#<.<.                              ",
"              <.D@%#&#*#@#t.<.                                  ",
"                  <.=#[.<.<.                                    "};
