/* XPM */
static char * not_planning_xpm[] = {
"32 32 317 2",
"  	c None",
". 	c #DCA300",
"+ 	c #DDA700",
"@ 	c #DDA900",
"# 	c #DCA800",
"$ 	c #DAA700",
"% 	c #D6A200",
"& 	c #D29B00",
"* 	c #DCA100",
"= 	c #E0AA00",
"- 	c #E5B900",
"; 	c #ECC703",
"> 	c #F2D30C",
", 	c #F5D812",
"' 	c #F5D917",
") 	c #F4D919",
"! 	c #EFD312",
"~ 	c #E7C80B",
"{ 	c #DFBB03",
"] 	c #D7AB00",
"^ 	c #D29F00",
"/ 	c #DEA700",
"( 	c #E6BC00",
"_ 	c #F2D510",
": 	c #FCE52F",
"< 	c #FFF7A8",
"[ 	c #FFFDE0",
"} 	c #FFFDDD",
"| 	c #FFFCCE",
"1 	c #FFFABD",
"2 	c #FFF89A",
"3 	c #FEF161",
"4 	c #F8E648",
"5 	c #ECD72A",
"6 	c #DDBF08",
"7 	c #D3AB00",
"8 	c #CA9700",
"9 	c #DFAA00",
"0 	c #EBC401",
"a 	c #FBE42F",
"b 	c #FFFCDF",
"c 	c #FFFAB0",
"d 	c #FFF78A",
"e 	c #FFF471",
"f 	c #FFF265",
"g 	c #FFF264",
"h 	c #FFF470",
"i 	c #FFF683",
"j 	c #FFF88C",
"k 	c #FEF465",
"l 	c #F5E651",
"m 	c #E2CD25",
"n 	c #D2AF01",
"o 	c #C99800",
"p 	c #EBC503",
"q 	c #FEE939",
"r 	c #FFFEEA",
"s 	c #FFF9AA",
"t 	c #FFF370",
"u 	c #FFEB40",
"v 	c #FFE118",
"w 	c #FFDD0C",
"x 	c #FFDB09",
"y 	c #FFE421",
"z 	c #FFEC47",
"A 	c #FFF36E",
"B 	c #FFF665",
"C 	c #F7EB60",
"D 	c #E1CE2D",
"E 	c #CEAB01",
"F 	c #C08F00",
"G 	c #D79F00",
"H 	c #E4BC00",
"I 	c #FAE432",
"J 	c #FFFDE1",
"K 	c #FFF896",
"L 	c #FFED52",
"M 	c #FFDD0E",
"N 	c #FFD000",
"O 	c #FEC300",
"P 	c #FEC000",
"Q 	c #F1B503",
"R 	c #F0B303",
"S 	c #FEC500",
"T 	c #FFEE54",
"U 	c #F4E960",
"V 	c #D8C424",
"W 	c #C7A200",
"X 	c #A07500",
"Y 	c #D9A500",
"Z 	c #EED110",
"` 	c #FFF7A2",
" .	c #FFF9A1",
"..	c #FFEC4A",
"+.	c #FFD703",
"@.	c #9F6C15",
"#.	c #502B27",
"$.	c #1A0134",
"%.	c #1A0034",
"&.	c #1A0035",
"*.	c #1B0135",
"=.	c #593226",
"-.	c #B98310",
";.	c #FFD908",
">.	c #FFED4D",
",.	c #FBF263",
"'.	c #E4D750",
").	c #CAAF0A",
"!.	c #BA8C00",
"~.	c #DAAC00",
"{.	c #F4DD28",
"].	c #FFF9A9",
"^.	c #FFF36D",
"/.	c #FFDB08",
"(.	c #FEC200",
"_.	c #75481F",
":.	c #190034",
"<.	c #1B0035",
"[.	c #1B0036",
"}.	c #1C0037",
"|.	c #1C0038",
"1.	c #84541E",
"2.	c #FEC400",
"3.	c #000000",
"4.	c #C19500",
"5.	c #D8AE00",
"6.	c #F4E037",
"7.	c #FFF880",
"8.	c #FFED4E",
"9.	c #FFD200",
"0.	c #AA7613",
"a.	c #1C003A",
"b.	c #1D003B",
"c.	c #1D003C",
"d.	c #1E003C",
"e.	c #1E003D",
"f.	c #C19800",
"g.	c #D3AA00",
"h.	c #ECD935",
"i.	c #FEF565",
"j.	c #FFEE4D",
"k.	c #FFD501",
"l.	c #D79C09",
"m.	c #1D003A",
"n.	c #1F003E",
"o.	c #1F0040",
"p.	c #200041",
"q.	c #C19700",
"r.	c #513900",
"s.	c #CD9F00",
"t.	c #DFC91F",
"u.	c #F9EE62",
"v.	c #FFF463",
"w.	c #FFE523",
"x.	c #FEC600",
"y.	c #7D4F1F",
"z.	c #1C0039",
"A.	c #1E003E",
"B.	c #200042",
"C.	c #210043",
"D.	c #220045",
"E.	c #C09300",
"F.	c #C69500",
"G.	c #D1B103",
"H.	c #ECDB44",
"I.	c #FDF464",
"J.	c #FFD804",
"K.	c #492230",
"L.	c #230047",
"M.	c #240049",
"N.	c #C1A101",
"O.	c #9E7500",
"P.	c #C89F00",
"Q.	c #DAC318",
"R.	c #F6EA60",
"S.	c #FFEA38",
"T.	c #B17A15",
"U.	c #230046",
"V.	c #26004C",
"W.	c #C2AB0E",
"X.	c #3B2A00",
"Y.	c #BB8B00",
"Z.	c #CCA900",
"`.	c #E6D231",
" +	c #FBF163",
".+	c #FFF15C",
"++	c #FFDF10",
"@+	c #603233",
"#+	c #25004A",
"$+	c #27004E",
"%+	c #C4B225",
"&+	c #C19E00",
"*+	c #8C6800",
"=+	c #C59600",
"-+	c #D5B90A",
";+	c #F2E454",
">+	c #FFD300",
",+	c #C78D13",
"'+	c #CDBF40",
")+	c #C2A605",
"!+	c #B68A00",
"~+	c #110C00",
"{+	c #A57900",
"]+	c #CBA600",
"^+	c #E3CF28",
"/+	c #FFF360",
"(+	c #FFE21A",
"_+	c #C3B01C",
":+	c #C19B00",
"<+	c #644800",
"[+	c #C29200",
"}+	c #D5B706",
"|+	c #F3E44E",
"1+	c #EEE65E",
"2+	c #CBBC35",
"3+	c #C2A202",
"4+	c #A77D00",
"5+	c #CDA600",
"6+	c #E6D026",
"7+	c #FCF264",
"8+	c #F9ED5F",
"9+	c #DFD557",
"0+	c #C3AF1A",
"a+	c #473200",
"b+	c #C49500",
"c+	c #DBBE0A",
"d+	c #FEEA3D",
"e+	c #F3EA60",
"f+	c #D1C33F",
"g+	c #C2A504",
"h+	c #A77C00",
"i+	c #AC7D00",
"j+	c #FCED56",
"k+	c #EBE25D",
"l+	c #C8B623",
"m+	c #C19A00",
"n+	c #634700",
"o+	c #FAEE60",
"p+	c #E2D758",
"q+	c #C4AC0D",
"r+	c #BE9100",
"s+	c #0E0900",
"t+	c #FEE835",
"u+	c #FDE735",
"v+	c #F6EC61",
"w+	c #D8CC4E",
"x+	c #FAF163",
"y+	c #F8EF62",
"z+	c #EBE35D",
"A+	c #CCBF42",
"B+	c #946E00",
"C+	c #F4E44D",
"D+	c #F6E64D",
"E+	c #F2E24C",
"F+	c #DFD046",
"G+	c #C4B220",
"H+	c #C19F00",
"I+	c #805D00",
"J+	c #E3BE01",
"K+	c #F7CE01",
"L+	c #F9D001",
"M+	c #F8CF01",
"N+	c #F3CB01",
"O+	c #DAB601",
"P+	c #C3A301",
"Q+	c #AF8300",
"R+	c #261B00",
"S+	c #B78500",
"T+	c #CA9400",
"U+	c #D3A014",
"V+	c #CBAF62",
"W+	c #C5A650",
"X+	c #C19D3B",
"Y+	c #BB8A00",
"Z+	c #A67A00",
"`+	c #916B00",
" @	c #6B4D00",
".@	c #EAC301",
"+@	c #FFEA80",
"@@	c #FFF9D9",
"#@	c #FFF5C1",
"$@	c #FFF0A5",
"%@	c #FCD201",
"&@	c #DFBA01",
"*@	c #C4A401",
"=@	c #B18500",
"-@	c #D09C00",
";@	c #E3C50B",
">@	c #FAE94E",
",@	c #FEED50",
"'@	c #FDEC4F",
")@	c #D7C943",
"!@	c #C3A705",
"~@	c #AA8000",
"{@	c #C59400",
"]@	c #CDB006",
"^@	c #D9C93B",
"/@	c #E3D447",
"(@	c #E6D748",
"_@	c #E1D247",
":@	c #D3C542",
"<@	c #C5B631",
"[@	c #9A7200",
"}@	c #C19400",
"|@	c #C5A501",
"1@	c #C2A201",
"2@	c #BB8D00",
"3@	c #A97D00",
"4@	c #A37800",
"5@	c #9B7300",
"6@	c #977000",
"7@	c #8A6500",
"8@	c #443000",
"9@	c #AF8200",
"0@	c #AA7E00",
"a@	c #8E6900",
"b@	c #281C00",
"                        . + @ @ # $ % &                         ",
"                  * = - ; > , ' ) ! ~ { ] ^                     ",
"                / ( _ : < [ } | 1 2 3 4 5 6 7 8                 ",
"              9 0 a b [ c d e f g h i j k l m n o               ",
"            + p q r s t u v w x x w y z A B C D E F             ",
"          G H I J K L M N O P Q R P S N v T k U V W X           ",
"          Y Z `  ...+.O @.#.$.%.&.*.=.-.S ;.>.,.'.).!.          ",
"          ~.{.].^./.(._.:.&.&.<.[.[.}.|.1.2.3.3.3.3.4.          ",
"          5.6.7.8.9.0.%.&.<.[.|.a.b.c.d.e.3.3.3.3.3.f.          ",
"          g.h.i.j.k.l.&.[.|.m.c.e.n.o.p.3.3.3.3.3.3.q.r.        ",
"          s.t.u.v.w.x.y.z.b.A.o.B.C.D.3.3.3.3.3.3.3.E.          ",
"          F.G.H.I.j.J.P K.n.B.D.L.M.3.3.3.3.3.3.3.N.O.          ",
"            P.Q.R.k S.N T.C.U.M.V.3.3.3.3.3.3.3.W.E.X.          ",
"            Y.Z.`. +.+++(.@+#+$+3.3.3.3.3.3.3.%+&+*+            ",
"              =+-+;+i.u >+,+$+3.3.3.3.3.3.3.'+)+!+~+            ",
"              {+]+^+ +/+(+O 3.3.3.3.3.3.3.3._+:+<+              ",
"                [+}+|+i.u 3.3.3.3.3.3.3.1+2+3+4+                ",
"                  5+6+7+3.3.3.3.3.3.3.8+9+0+q.a+                ",
"                  b+c+3.3.3.3.3.3.3.d+e+f+g+h+                  ",
"                  i+3.3.3.3.3.3.3.+.j+k+l+m+n+                  ",
"                  3.3.3.3.3.3.3.3.++o+p+q+r+s+                  ",
"                3.3.3.3.3.3.3.t+t+u+v+w+g+h+                    ",
"              3.3.3.3.3.3.3.x+x+x+y+z+A+3+B+                    ",
"            3.3.3.3.3.3.3.C+D+D+D+E+F+G+H+I+                    ",
"            3.3.3.3.3.3.J+K+L+L+M+N+O+P+Q+R+                    ",
"            3.3.3.3.3.S+T+U+V+W+X+Y+Z+`+ @                      ",
"            3.3.3.3.  ^ .@+@@@#@$@%@&@*@=@                      ",
"                      -@;@>@,@,@'@C+)@!@~@                      ",
"                      {@]@^@/@(@_@:@<@3+[@                      ",
"                      }@q.N.*@|@P+1@N.q.2@                      ",
"                          3@4@5@6@B+7@8@                        ",
"                            4@9@0@a@b@                          "};
