/* XPM */
static char * not_not_available_xpm[] = {
"32 32 72 1",
" 	c None",
".	c #000000",
"+	c #707070",
"@	c #E7E7E7",
"#	c #E4E4E4",
"$	c #DDDDDD",
"%	c #DADADA",
"&	c #D7D7D7",
"*	c #D3D3D3",
"=	c #CDCDCD",
"-	c #CBCBCB",
";	c #ACACAC",
">	c #E5E5E5",
",	c #DEDEDE",
"'	c #D2D2D2",
")	c #C5C5C5",
"!	c #BFBFBF",
"~	c #C0C0C0",
"{	c #C3C3C3",
"]	c #C4C4C4",
"^	c #B9B9B9",
"/	c #E3E3E3",
"(	c #D6D6D6",
"_	c #B6B6B6",
":	c #949494",
"<	c #E0E0E0",
"[	c #D8D8D8",
"}	c #C2C2C2",
"|	c #A2A2A2",
"1	c #939393",
"2	c #929292",
"3	c #9A9A9A",
"4	c #A9A9A9",
"5	c #B1B1B1",
"6	c #979797",
"7	c #8B8B8B",
"8	c #D0D0D0",
"9	c #B5B5B5",
"0	c #868686",
"a	c #808080",
"b	c #838383",
"c	c #898989",
"d	c #8F8F8F",
"e	c #959595",
"f	c #CACACA",
"g	c #989898",
"h	c #818181",
"i	c #A8A8A8",
"j	c #8E8E8E",
"k	c #848484",
"l	c #DFDFDF",
"m	c #C9C9C9",
"n	c #7B7B7B",
"o	c #B2B2B2",
"p	c #9C9C9C",
"q	c #8D8D8D",
"r	c #7A7A7A",
"s	c #DCDCDC",
"t	c #D4D4D4",
"u	c #BEBEBE",
"v	c #969696",
"w	c #8C8C8C",
"x	c #828282",
"y	c #A4A4A4",
"z	c #BCBCBC",
"A	c #B7B7B7",
"B	c #909090",
"C	c #888888",
"D	c #858585",
"E	c #7D7D7D",
"F	c #7E7E7E",
"G	c #7C7C7C",
"                                ",
"                                ",
"                                ",
"                                ",
"                                ",
"                                ",
"                                ",
"                      ....      ",
"                     .....      ",
"                    ......      ",
"                   .......      ",
"     +++++++++    ....... +++++ ",
"   +++@#$%&*=+++ ....... ++$-;+ ",
"   +>>,')!~{]~^+.......  +/(_:+ ",
"  ++<[}|12:3455.......  ++$}67+ ",
"  +[8920a+bcde........ ++<fgch+ ",
" ++}ija+++++k.......++++lmg0n++ ",
" +opqar+   +.......}++stuv0n++  ",
" +vwxr++ ++.......vyozA|Bknr+   ",
" +wknr+ ++.......kCwjdwDErr++   ",
" ++++++  ........+FFEGnrr+++ +  ",
"        .......  +++++++++  +   ",
"       .......                  ",
"      .......                   ",
"      ......                    ",
"      .....                     ",
"      ....                      ",
"                                ",
"                                ",
"                                ",
"                                ",
"                                "};
