/* XPM */
static char * not_done_xpm[] = {
"32 32 239 2",
"  	c None",
". 	c #06380D",
"+ 	c #315A8E",
"@ 	c #124153",
"# 	c #003300",
"$ 	c #2B5549",
"% 	c #5E7EC9",
"& 	c #4066D9",
"* 	c #093A3E",
"= 	c #023503",
"- 	c #5E7E90",
"; 	c #819AE6",
"> 	c #5C7DDE",
", 	c #2B55D5",
"' 	c #013424",
") 	c #043606",
"! 	c #738EA2",
"~ 	c #94A9EA",
"{ 	c #7591E3",
"] 	c #486DDA",
"^ 	c #0F3FCF",
"/ 	c #003310",
"( 	c #063809",
"_ 	c #8099AC",
": 	c #A4B6ED",
"< 	c #8BA2E8",
"[ 	c #6382E0",
"} 	c #2C56D5",
"| 	c #0031BE",
"1 	c #8CA3B8",
"2 	c #AFBFEF",
"3 	c #9CB0EB",
"4 	c #7A95E4",
"5 	c #476CDA",
"6 	c #0739CD",
"7 	c #002DA8",
"8 	c #003200",
"9 	c #7E98A7",
"0 	c #B3C2F0",
"a 	c #A7B9ED",
"b 	c #8DA4E8",
"c 	c #6080DF",
"d 	c #224ED3",
"e 	c #002FBD",
"f 	c #002993",
"g 	c #003100",
"h 	c #000000",
"i 	c #738FE3",
"j 	c #3860D7",
"k 	c #0032C6",
"l 	c #002AA8",
"m 	c #002487",
"n 	c #496DDB",
"o 	c #0235CC",
"p 	c #002BAD",
"q 	c #002491",
"r 	c #001F7B",
"s 	c #003108",
"t 	c #0D3DCF",
"u 	c #002CB0",
"v 	c #002492",
"w 	c #001E7A",
"x 	c #001A6A",
"y 	c #002D19",
"z 	c #002CB1",
"A 	c #002490",
"B 	c #001D76",
"C 	c #001965",
"D 	c #001659",
"E 	c #00242F",
"F 	c #00238D",
"G 	c #001C71",
"H 	c #00175D",
"I 	c #001451",
"J 	c #00124B",
"K 	c #001840",
"L 	c #00238B",
"M 	c #001B6D",
"N 	c #001658",
"O 	c #001249",
"P 	c #001341",
"Q 	c #00231F",
"R 	c #003103",
"S 	c #002DB4",
"T 	c #001B6C",
"U 	c #001554",
"V 	c #001145",
"W 	c #001836",
"X 	c #002F09",
"Y 	c #002000",
"Z 	c #000400",
"` 	c #023403",
" .	c #416764",
"..	c #002EB9",
"+.	c #001B6F",
"@.	c #001555",
"#.	c #001144",
"$.	c #001F27",
"%.	c #003202",
"&.	c #001800",
"*.	c #265135",
"=.	c #89A1C3",
"-.	c #A0B3EC",
";.	c #436966",
">.	c #002698",
",.	c #001D73",
"'.	c #002222",
").	c #002200",
"!.	c #000B00",
"~.	c #0C3D11",
"{.	c #6C8995",
"].	c #ACBDEE",
"^.	c #A9BAEE",
"/.	c #A3B5ED",
"(.	c #8EA5D5",
"_.	c #07390B",
":.	c #0031C5",
"<.	c #0028A0",
"[.	c #001E7B",
"}.	c #001146",
"|.	c #00251B",
"1.	c #000600",
"2.	c #3B625B",
"3.	c #97ACDB",
"4.	c #A8B9EE",
"5.	c #AABBEE",
"6.	c #A5B7ED",
"7.	c #9EB1EC",
"8.	c #476B6C",
"9.	c #002E00",
"0.	c #0032C9",
"a.	c #0029A6",
"b.	c #002082",
"c.	c #001863",
"d.	c #00134C",
"e.	c #002100",
"f.	c #134228",
"g.	c #5C7CB1",
"h.	c #829BE6",
"i.	c #8EA5E8",
"j.	c #97ACEA",
"k.	c #A2B5EC",
"l.	c #A1B4EC",
"m.	c #8CA3D9",
"n.	c #0033CB",
"o.	c #002AAA",
"p.	c #002288",
"q.	c #001452",
"r.	c #002320",
"s.	c #26517B",
"t.	c #486CD8",
"u.	c #5174DC",
"v.	c #5B7CDE",
"w.	c #6886E1",
"x.	c #7691E4",
"y.	c #92A8E9",
"z.	c #002BAB",
"A.	c #002126",
"B.	c #05371E",
"C.	c #13427C",
"D.	c #234FD1",
"E.	c #2A55D4",
"F.	c #355DD7",
"G.	c #4369D9",
"H.	c #5476DD",
"I.	c #6483E0",
"J.	c #718DE3",
"K.	c #00238C",
"L.	c #00165B",
"M.	c #001C33",
"N.	c #002700",
"O.	c #000800",
"P.	c #003321",
"Q.	c #00329F",
"R.	c #0033CC",
"S.	c #0C3DCE",
"T.	c #1B49D1",
"U.	c #0030BE",
"V.	c #0029A5",
"W.	c #002289",
"X.	c #001C70",
"Y.	c #00175C",
"Z.	c #003104",
"`.	c #001200",
" +	c #003304",
".+	c #003062",
"++	c #002FBB",
"@+	c #0030BF",
"#+	c #002CB2",
"$+	c #00279C",
"%+	c #002183",
"&+	c #00165A",
"*+	c #001548",
"=+	c #002E0A",
"-+	c #001B00",
";+	c #002B00",
">+	c #00312E",
",+	c #00279E",
"'+	c #00238F",
")+	c #001A67",
"!+	c #001557",
"~+	c #00124A",
"{+	c #002914",
"]+	c #002500",
"^+	c #002287",
"/+	c #001F7E",
"(+	c #001862",
"_+	c #001553",
":+	c #002321",
"<+	c #002300",
"[+	c #001E77",
"}+	c #001967",
"|+	c #00134F",
"1+	c #001C2E",
"2+	c #002800",
"3+	c #000500",
"4+	c #001A68",
"5+	c #001860",
"6+	c #00134E",
"7+	c #00153C",
"8+	c #001300",
"9+	c #001E00",
"0+	c #003203",
"a+	c #002147",
"b+	c #00175F",
"c+	c #001147",
"d+	c #002A12",
"e+	c #001D00",
"f+	c #001C00",
"g+	c #003204",
"h+	c #001E45",
"i+	c #002026",
"j+	c #003105",
"k+	c #001A45",
"l+	c #00153F",
"m+	c #000A00",
"n+	c #002F0C",
"o+	c #00174C",
"p+	c #002918",
"                                                          . + @ ",
"                                                      # $ % & * ",
"                                                    = - ; > , ' ",
"                                                  ) ! ~ { ] ^ / ",
"                                                ( _ : < [ } | # ",
"                                              ( 1 2 3 4 5 6 7 8 ",
"                                            # 9 0 a b c d e f g ",
"                                          # h h h h i j k l m 8 ",
"                                        # h h h h h n o p q r s ",
"                                        h h h h h h t u v w x y ",
"                                      h h h h h h h z A B C D E ",
"                                    h h h h h h h u F G H I J K ",
"                                  h h h h h h h u L M N O P Q R ",
"                                h h h h h h h S F T U V W X Y Z ",
"              `  .)           h h h h h h h ..q +.@.#.$.%.&.h h ",
"          # *.=.-.;.8       h h h h h h h h >.,.N #.'.).!.h h h ",
"      # ~.{.].^./.(._.    h h h h h h h :.<.[.H }.|.).1.h h h h ",
"    # 2.3.4.5.^.6.7.8.9.h h h h h h h 0.a.b.c.d.|.e.h h h h h   ",
"# f.g.h.i.j.7.k.l.3 m.h h h h h h h n.o.p.x q.r.).h h h h       ",
"s.t.u.v.w.x.h.b y.y.h h h h h h h n.z.L +.N A.).Z h h h         ",
"B.C.D.E.F.G.H.I.J.h h h h h h h h o.K.G L.M.N.O.h h h           ",
"  8 P.Q.R.S.T.} h h h h h h h U.V.W.X.Y.K Z.`.h h h             ",
"       +.+++@+h h h h h h h #+$+%+M &+*+=+-+h h h               ",
"        ;+>+h h h h h h h ,+'+r )+!+~+{+e.h h h                 ",
"          ]+h h h h h h ^+/+G (+_+O :+<+h h h h                 ",
"            h h h h h [+X.}+Y.|+}.1+2+3+h h h                   ",
"            h h h h +.4+5+N 6+#.7+Z.8+h h h                     ",
"                9+0+a+b+N |+c+#.d+e+h h h                       ",
"                  f+g+h+_+J #.i+).h h h                         ",
"                    Y j+k+d.l+R m+h h h                         ",
"                      <+n+o+p+9+h h h                           ",
"                        N.n+<+h h h                             "};
