/* XPM */
static char * not_dead_xpm[] = {
"32 32 217 2",
"  	c None",
". 	c #E4E4E3",
"+ 	c #CECDC8",
"@ 	c #EEEEEA",
"# 	c #F7F7F5",
"$ 	c #E1E1E0",
"% 	c #F9F9F8",
"& 	c #E4E4E2",
"* 	c #C8C6BD",
"= 	c #E0DED6",
"- 	c #E7E5DF",
"; 	c #EEEDE8",
"> 	c #F0EFED",
", 	c #F4F3F0",
"' 	c #EAEAE5",
") 	c #ACAAA1",
"! 	c #D6D4CA",
"~ 	c #DDDBD3",
"{ 	c #E4E3DC",
"] 	c #EBEAE5",
"^ 	c #D7D6D3",
"/ 	c #F0F0EE",
"( 	c #F1F0ED",
"_ 	c #ECEBE6",
": 	c #E6E5DF",
"< 	c #C8C7C0",
"[ 	c #A19F96",
"} 	c #C8C6BC",
"| 	c #DBD9CF",
"1 	c #E1E0D8",
"2 	c #E7E6E0",
"3 	c #D3D2CD",
"4 	c #DDDCD8",
"5 	c #E4E3E0",
"6 	c #EAE9E8",
"7 	c #EAEAEA",
"8 	c #EAEAE7",
"9 	c #EEEDE9",
"0 	c #E9E8E2",
"a 	c #E3E2DB",
"b 	c #CBC9C2",
"c 	c #C6C5BC",
"d 	c #DFDDD5",
"e 	c #C6C5C0",
"f 	c #C7C6BF",
"g 	c #E2E1DA",
"h 	c #EDECE7",
"i 	c #F8F8F6",
"j 	c #FBFBFA",
"k 	c #FDFDFD",
"l 	c #FEFEFE",
"m 	c #FFFFFF",
"n 	c #E6E6E6",
"o 	c #E7E6E3",
"p 	c #D7D6D0",
"q 	c #BAB9B3",
"r 	c #D1CFC7",
"s 	c #C5C4BE",
"t 	c #DCDAD2",
"u 	c #E1DFD7",
"v 	c #E5E3DD",
"w 	c #F3F2EF",
"x 	c #F7F6F4",
"y 	c #FAF9F8",
"z 	c #FCFCFB",
"A 	c #FCFCFC",
"B 	c #E6E6E1",
"C 	c #E4E3DD",
"D 	c #B6B6B0",
"E 	c #BAB9B1",
"F 	c #CDCBC2",
"G 	c #DAD8CE",
"H 	c #DEDCD4",
"I 	c #E2E0D9",
"J 	c #F0EFEB",
"K 	c #F5F4F1",
"L 	c #F9F8F6",
"M 	c #E7E6E1",
"N 	c #CFCCC1",
"O 	c #D7D5CA",
"P 	c #DBD9D0",
"Q 	c #DFDED5",
"R 	c #EFEEEB",
"S 	c #F8F7F6",
"T 	c #FCFBFA",
"U 	c #E7E6E5",
"V 	c #E8E7E1",
"W 	c #C1BFB4",
"X 	c #CFCDC2",
"Y 	c #D8D6CC",
"Z 	c #DCDBD2",
"` 	c #E0DFD7",
" .	c #ECECE7",
"..	c #F0F0EC",
"+.	c #F4F4F1",
"@.	c #F9F8F7",
"#.	c #E6E6E4",
"$.	c #9F9D92",
"%.	c #B7B4A9",
"&.	c #C4C2B7",
"*.	c #D2D0C5",
"=.	c #DEDCD3",
"-.	c #E6E4DE",
";.	c #E5E4DF",
">.	c #AAA9A6",
",.	c #81817F",
"'.	c #E2E2E0",
").	c #ACAA9F",
"!.	c #BAB8AC",
"~.	c #C7C5BA",
"{.	c #D4D2C8",
"].	c #E3E2DA",
"^.	c #E2E1DB",
"/.	c #C9C8C4",
"(.	c #BDBCB9",
"_.	c #C7C7C4",
":.	c #A7A599",
"<.	c #AFADA2",
"[.	c #BCBAAF",
"}.	c #CAC8BE",
"|.	c #D7D5CB",
"1.	c #E1E0D9",
"2.	c #DBDAD4",
"3.	c #E9E8E3",
"4.	c #BABAB7",
"5.	c #ABA99D",
"6.	c #B2B0A5",
"7.	c #C0BEB3",
"8.	c #D0CEC3",
"9.	c #DDDCD3",
"0.	c #D9D7D0",
"a.	c #CFCEC8",
"b.	c #DBDAD5",
"c.	c #C3C3BF",
"d.	c #C6C6C3",
"e.	c #A4A297",
"f.	c #B1B0A6",
"g.	c #CECCC1",
"h.	c #D4D3CC",
"i.	c #E0DFD9",
"j.	c #EBEAE4",
"k.	c #C3C2BE",
"l.	c #DAD8D0",
"m.	c #BFBDB4",
"n.	c #D6D4CB",
"o.	c #DCDAD1",
"p.	c #D8D7D0",
"q.	c #CAC9C2",
"r.	c #C9C8C0",
"s.	c #DBDAD0",
"t.	c #B6B4AC",
"u.	c #D6D4CC",
"v.	c #D3D1CA",
"w.	c #DCDBD6",
"x.	c #DCDCD6",
"y.	c #B1B0A9",
"z.	c #DBD9D1",
"A.	c #D6D5CE",
"B.	c #D3D1C9",
"C.	c #A5A49C",
"D.	c #D4D2C7",
"E.	c #C9C7BF",
"F.	c #B0AFA8",
"G.	c #B2B1AC",
"H.	c #B4B4B0",
"I.	c #B7B7B5",
"J.	c #D4D2C9",
"K.	c #DEDDD5",
"L.	c #C9C8C2",
"M.	c #C2C1B9",
"N.	c #D8D6CD",
"O.	c #D0CEC4",
"P.	c #B3B1A7",
"Q.	c #C4C2B9",
"R.	c #EDECE8",
"S.	c #F5F4F2",
"T.	c #CCCAC1",
"U.	c #DFDED6",
"V.	c #D8D6D0",
"W.	c #CBC9BE",
"X.	c #C3C1B3",
"Y.	c #B9B7AC",
"Z.	c #B8B6AE",
"`.	c #CFCEC6",
" +	c #DDDCD6",
".+	c #E5E4E0",
"++	c #DDDBD2",
"@+	c #E3E1DA",
"#+	c #D5D4CF",
"$+	c #CBCAC3",
"%+	c #D4D3CB",
"&+	c #DAD8CF",
"*+	c #D5D3C8",
"=+	c #C7C5B9",
"-+	c #C0BEB4",
";+	c #E4E3DF",
">+	c #DCDBD8",
",+	c #DDDBD4",
"'+	c #D2D0C4",
")+	c #C6C4B8",
"!+	c #C5C3B8",
"~+	c #D7D6CB",
"{+	c #DEDDD4",
"]+	c #E5E4DD",
"^+	c #D8D7D2",
"/+	c #D5D4CA",
"(+	c #CFCDC1",
"_+	c #C9C7B9",
":+	c #CCC9BD",
"<+	c #D0CFC6",
"[+	c #C2C0B3",
"}+	c #C7C4B6",
"|+	c #ACA99B",
"1+	c #A7A498",
"2+	c #CBC9BC",
"3+	c #BFBDB3",
"4+	c #A6A497",
"                                                                ",
"                                                                ",
"                                                                ",
"        .                                                       ",
"    + @ # $                                             % &     ",
"  * = - ; >                                           # , '     ",
"  ) ! ~ { ] ^                                       / ( _ : <   ",
"    [ } | 1 2           3 4 5 6 7                 8 9 0 a b     ",
"          c d a e   f g 2 h i j k l m n         o ] p q         ",
"              r a s t u v _ w x y z l A       B C D             ",
"                E F G H I : ] J K L z l     M p                 ",
"                  N O P Q a 2 ] R , S T U V s                   ",
"                  W X Y Z ` { V  ...+.@.#.                      ",
"                $.%.&.*.G =.I -.;.>.,.'.                        ",
"                  ).!.~.{.P d ].^./.(._.                        ",
"                  :.<.[.}.|.Z ` 1.2.3.>.4.                      ",
"                    5.6.7.8.G 9.0.a.b.c.d.                      ",
"                      e.f.g.O P Z h.i.j.k.                      ",
"                        l.m.g.n.o.~ { V p.q.                    ",
"                    r.s.t.  u.F v.2.w.x.y.z.A.                  ",
"                  B.! C.    D.E.F.G.H.I.    J.K.L.              ",
"              M.N.O.        P.Q.z.-.R.S.      T.U.V.            ",
"            r Y W.          X.Y.Z.`. +.+        Q.++@+#+        ",
"      $+%+&+*+=+                                  -+&+1 V ;+>+  ",
"    ,+++|.'+)+                                      !+~+{+]+^+  ",
"    /+{.(+_+                                          :+*+<+    ",
"      [+}+|+                                          1+2+3+    ",
"        |+                                              4+      ",
"                                                                ",
"                                                                ",
"                                                                ",
"                                                                "};
