/* XPM */
static char * not_high_xpm[] = {
"32 32 35 1",
" 	c None",
".	c #FF0009",
"+	c #0A0000",
"@	c #840005",
"#	c #000000",
"$	c #F80009",
"%	c #7A0004",
"&	c #5E0004",
"*	c #EF0009",
"=	c #390002",
"-	c #E40008",
";	c #210001",
">	c #CC0007",
",	c #0D0001",
"'	c #A60006",
")	c #060000",
"!	c #DB0007",
"~	c #7E0004",
"{	c #2D0001",
"]	c #F50009",
"^	c #570003",
"/	c #290002",
"(	c #BA0007",
"_	c #370002",
":	c #A80007",
"<	c #1E0001",
"[	c #C60007",
"}	c #9A0005",
"|	c #9D0006",
"1	c #6A0004",
"2	c #1B0001",
"3	c #270001",
"4	c #310002",
"5	c #3F0002",
"6	c #420002",
"                                ",
"                                ",
"                                ",
"               ..               ",
"              ....              ",
"              ....              ",
"             ..+@..             ",
"            ..@##..   ####      ",
"            .$###%.. #####      ",
"           ..&####..######      ",
"           .*## ##&#######      ",
"          ..=#   ########       ",
"          .-##...#######        ",
"         ..;# ..#######         ",
"         .>## .#######.         ",
"        ..,#  ########.         ",
"        .'## ########=..        ",
"       ..)# ####### ##!.        ",
"      ..~#########   #{..       ",
"      .]#########.   ##>.       ",
"     ..^#########     #/..      ",
"     .*########..     ##(.      ",
"    .._####### ..      #;..     ",
"    .!#######          ##:.     ",
"   ..<######            #;$.    ",
"  ..[######   ...       ##}.    ",
"  ..+#####    ...        #<].   ",
"  .:#######################|.   ",
"  .12<;;;33/{/{{44___===556(..  ",
"  ............................  ",
"                                ",
"                                "};
