/* XPM */
static char * not_in_progress_xpm[] = {
"32 32 296 2",
"  	c None",
". 	c #9D9D9D",
"+ 	c #B6B9B6",
"@ 	c #B3BFB3",
"# 	c #ABC2AB",
"$ 	c #95A495",
"% 	c #7D7D7D",
"& 	c #B7B7B7",
"* 	c #BCC0BC",
"= 	c #C1D3C1",
"- 	c #C0DFC0",
"; 	c #B5DAB5",
"> 	c #A6D1A6",
", 	c #8FB58F",
"' 	c #718171",
") 	c #595959",
"! 	c #A6AAA6",
"~ 	c #B4C4B4",
"{ 	c #BFD9BF",
"] 	c #C4E1C4",
"^ 	c #B7DAB7",
"/ 	c #A9D3A9",
"( 	c #99CB99",
"_ 	c #86BC86",
": 	c #6D966D",
"< 	c #506050",
"[ 	c #3B3C3B",
"} 	c #7D7E7D",
"| 	c #878C87",
"1 	c #9CB99C",
"2 	c #ABD5AB",
"3 	c #B2D9B2",
"4 	c #B7DBB7",
"5 	c #B8DCB8",
"6 	c #B4D9B4",
"7 	c #A8D3A8",
"8 	c #99CC99",
"9 	c #89C489",
"0 	c #7BBD7B",
"a 	c #69A569",
"b 	c #507550",
"c 	c #3A463A",
"d 	c #5A5E5A",
"e 	c #6D8E6D",
"f 	c #7EBA7E",
"g 	c #85C285",
"h 	c #8DC58D",
"i 	c #94C994",
"j 	c #9BCD9B",
"k 	c #A1D0A1",
"l 	c #A2D1A2",
"m 	c #9ECF9E",
"n 	c #94CA94",
"o 	c #7DBE7D",
"p 	c #71B771",
"q 	c #67B267",
"r 	c #569256",
"s 	c #3F5B3F",
"t 	c #2F382F",
"u 	c #3A4A3A",
"v 	c #497B49",
"w 	c #56A756",
"x 	c #57A957",
"y 	c #5AAC5A",
"z 	c #5EAE5E",
"A 	c #65B165",
"B 	c #6DB66D",
"C 	c #75BA75",
"D 	c #7EBE7E",
"E 	c #82C082",
"F 	c #83C183",
"G 	c #80BF80",
"H 	c #7ABC7A",
"I 	c #73B873",
"J 	c #6BB46B",
"K 	c #64B164",
"L 	c #4E864E",
"M 	c #374637",
"N 	c #2A2D2A",
"O 	c #030603",
"P 	c #0F300F",
"Q 	c #226A22",
"R 	c #309130",
"S 	c #319331",
"T 	c #319631",
"U 	c #349934",
"V 	c #3D9D3D",
"W 	c #4AA44A",
"X 	c #57AA57",
"Y 	c #63B163",
"Z 	c #6CB56C",
"` 	c #71B871",
" .	c #72B872",
"..	c #6FB76F",
"+.	c #6AB46A",
"@.	c #60AF60",
"#.	c #5AA55A",
"$.	c #487848",
"%.	c #000000",
"&.	c #020802",
"*.	c #143D14",
"=.	c #236B23",
"-.	c #2A7F2A",
";.	c #2B822B",
">.	c #2D862C",
",.	c #2E8B2E",
"'.	c #309230",
").	c #3A9B3A",
"!.	c #4EA64E",
"~.	c #70B770",
"{.	c #6DB56D",
"].	c #68B368",
"^.	c #030A03",
"/.	c #153E15",
"(.	c #226622",
"_.	c #267125",
":.	c #287828",
"<.	c #2A802A",
"[.	c #2E8A2E",
"}.	c #359635",
"|.	c #48A348",
"1.	c #5EAF5E",
"2.	c #74B974",
"3.	c #050805",
"4.	c #040E04",
"5.	c #164216",
"6.	c #236823",
"7.	c #267226",
"8.	c #2A7E2A",
"9.	c #2E892D",
"0.	c #379737",
"a.	c #4CA54C",
"b.	c #78BB78",
"c.	c #071707",
"d.	c #020702",
"e.	c #020602",
"f.	c #0B230B",
"g.	c #1B521B",
"h.	c #267526",
"i.	c #2F902F",
"j.	c #56AB56",
"k.	c #6AB56A",
"l.	c #329532",
"m.	c #2F8E2F",
"n.	c #2B812B",
"o.	c #1A521A",
"p.	c #123912",
"q.	c #236A23",
"r.	c #379837",
"s.	c #4AA54A",
"t.	c #349734",
"u.	c #308F30",
"v.	c #2E892E",
"w.	c #2B832B",
"x.	c #115F11",
"y.	c #010601",
"z.	c #081A08",
"A.	c #1D571D",
"B.	c #318731",
"C.	c #379A37",
"D.	c #2D872D",
"E.	c #217120",
"F.	c #1C681C",
"G.	c #145114",
"H.	c #010101",
"I.	c #3B9D3B",
"J.	c #309030",
"K.	c #2C852C",
"L.	c #287A28",
"M.	c #257125",
"N.	c #1F631F",
"O.	c #1C591C",
"P.	c #319031",
"Q.	c #287727",
"R.	c #246C23",
"S.	c #216421",
"T.	c #1E5C1E",
"U.	c #1D571C",
"V.	c #1B511B",
"W.	c #389A38",
"X.	c #2F8F2F",
"Y.	c #2B812A",
"Z.	c #226522",
"`.	c #1E5B1E",
" +	c #1C541B",
".+	c #1A4E19",
"++	c #184918",
"@+	c #174517",
"#+	c #399A39",
"$+	c #256F24",
"%+	c #205F1F",
"&+	c #1C531B",
"*+	c #184A18",
"=+	c #164416",
"-+	c #153F14",
";+	c #143C13",
">+	c #133A13",
",+	c #3E9D3E",
"'+	c #297E29",
")+	c #246D24",
"!+	c #1A4D19",
"~+	c #164115",
"{+	c #123511",
"]+	c #113311",
"^+	c #103110",
"/+	c #0E2B0E",
"(+	c #48A248",
"_+	c #329032",
":+	c #2A7E29",
"<+	c #246B24",
"[+	c #1E591D",
"}+	c #113411",
"|+	c #103210",
"1+	c #0F2E0F",
"2+	c #369336",
"3+	c #1D581D",
"4+	c #184717",
"5+	c #133A12",
"6+	c #102F10",
"7+	c #0E2A0E",
"8+	c #081708",
"9+	c #5BAC5B",
"0+	c #3A963A",
"a+	c #1D561C",
"b+	c #174516",
"c+	c #133812",
"d+	c #113211",
"e+	c #103010",
"f+	c #0F2D0F",
"g+	c #091B09",
"h+	c #000100",
"i+	c #A7ABA7",
"j+	c #5CAD5C",
"k+	c #3B963B",
"l+	c #226922",
"m+	c #174316",
"n+	c #123712",
"o+	c #113210",
"p+	c #102F0F",
"q+	c #0A1F09",
"r+	c #040C04",
"s+	c #949D94",
"t+	c #53A853",
"u+	c #369236",
"v+	c #297C29",
"w+	c #123512",
"x+	c #0E290E",
"y+	c #081707",
"z+	c #010301",
"A+	c #7C937C",
"B+	c #88B188",
"C+	c #429D42",
"D+	c #2D8A2D",
"E+	c #277527",
"F+	c #206120",
"G+	c #153E14",
"H+	c #0A1E0A",
"I+	c #4E554E",
"J+	c #5E885E",
"K+	c #6EB66E",
"L+	c #297D29",
"M+	c #184817",
"N+	c #143A13",
"O+	c #0C250C",
"P+	c #071507",
"Q+	c #010401",
"R+	c #2B2C2B",
"S+	c #345534",
"T+	c #3C7B3C",
"U+	c #439643",
"V+	c #419D41",
"W+	c #256F25",
"X+	c #1F5F1F",
"Y+	c #1A4E1A",
"Z+	c #154015",
"`+	c #123612",
" @	c #0E2C0E",
".@	c #091C09",
"+@	c #164316",
"@@	c #2A7D2A",
"#@	c #277627",
"$@	c #1B531B",
"%@	c #0B220B",
"&@	c #051005",
"*@	c #030903",
"=@	c #143C14",
"-@	c #1C551C",
";@	c #0E280E",
">@	c #091A09",
",@	c #071607",
"'@	c #133913",
")@	c #030B03",
"!@	c #061306",
"~@	c #0C230C",
"{@	c #0D260D",
"]@	c #020502",
"                    .                                           ",
"                + @ # $ %                                       ",
"            & * = - ; > , ' )                                   ",
"          ! ~ { ] - ^ / ( _ : < [                               ",
"      } | 1 2 3 4 5 6 7 8 9 0 a b c                             ",
"    d e f g h i j k l m n 9 o p q r s t                         ",
"  u v w x y z A B C D E F G H I J K z L M N                     ",
"    O P Q R S T U V W X Y Z `  ...+.A @.#.$.%.%.%.%.            ",
"        &.*.=.-.;.>.,.'.).!.@.Z ` ~.{.].Y %.%.%.%.%.            ",
"          %.^./.(._.:.<.[.}.|.1.B 2.2.p %.%.%.%.%.%.3.          ",
"            %.%.4.5.6.7.8.9.0.a.Y  .b.%.%.%.%.%.%.%.c.&.d.      ",
"              %.%.e.f.g.h.;.i.V j.k.%.%.%.%.%.%.%.l.m.n.o.%.    ",
"                  %.%.4.p.q.9.r.s.%.%.%.%.%.%.%.t.u.v.w.x.y.%.  ",
"                    %.%.%.z.A.B.%.%.%.%.%.%.%.C.u.D.-.E.F.G.%.  ",
"                        %.%.H.%.%.%.%.%.%.%.I.J.K.L.M.Q N.O.%.  ",
"                            %.%.%.%.%.%.%.%.P.w.Q.R.S.T.U.V.%.  ",
"                          %.%.%.%.%.%.%.W.X.Y.7.Z.`. +.+++@+%.  ",
"                        %.%.%.%.%.%.%.#+m.<.$+%+&+*+=+-+;+>+%.  ",
"                      %.%.%.%.%.%.%.,+m.'+)+T.!+~+>+{+]+^+/+%.  ",
"                    %.%.%.%.%.%.%.(+_+:+<+[+++;+}+|+^+^+1+%.%.  ",
"                  %.%.%.%.%.%.%.%.2+:+q.3+4+5+]+^+^+6+7+8+%.    ",
"                %.%.%.%.%.%.%.9+0+-.q.a+b+c+d+^+e+f+g+h+%.      ",
"            i+%.%.%.%.%.%.%.j+k+-.l+ +m+n+o+^+p+q+r+h+%.        ",
"          s+%.%.%.%.%.%.%.t+u+v+(.g.5.w+^+6+x+y+z+%.            ",
"        A+B+%.%.%.%.%.%.C+D+E+F+.+G+}+e+1+H+e.%.                ",
"    I+J+K+Z %.%.%.%.%.m.L+=.3+M+N+]+6+O+P+Q+%.                  ",
"  R+S+T+U+V+%.%.%.%.8.W+X+Y+Z+`+e+ @.@d.%.                      ",
"      d.+@)+@@8.#@)+F+$@@+5+o+6+%@&@z+%.                        ",
"        %.*@=@X+T.-@*+G+{+e+;@>@&.%.                            ",
"            Q+,@e+G+'@]+1+%@)@%.%.                              ",
"              %.Q+!@~@{@,@d.%.                                  ",
"                  %.]@^.%.%.                                    "};
