/* XPM */
static char * not_normal_xpm[] = {
"32 32 3 1",
" 	c None",
".	c #373737",
"+	c #000000",
"                                ",
"                                ",
"                                ",
"                                ",
"                                ",
"                                ",
"              ...               ",
"              ...     ++++      ",
"              ...    +++++      ",
"              ....  ++++++      ",
"              .... +++++++      ",
"              ....+++++++       ",
"              ...+++++++        ",
"              ..+++++++         ",
"              .+++++++          ",
"              ++++++++          ",
"             +++++++            ",
"            +++++++             ",
"           +++++++              ",
"          +++++++               ",
"         ++++++++               ",
"        +++++++                 ",
"       +++++++                  ",
"      +++++++                   ",
"      ++++++  ...               ",
"      +++++   ...               ",
"      ++++    ...               ",
"                                ",
"                                ",
"                                ",
"                                ",
"                                "};
