/* XPM */
static char * not_available_xpm[] = {
"32 32 76 1",
" 	c None",
".	c #707070",
"+	c #E7E7E7",
"@	c #E4E4E4",
"#	c #DDDDDD",
"$	c #DADADA",
"%	c #D7D7D7",
"&	c #D3D3D3",
"*	c #CDCDCD",
"=	c #CBCBCB",
"-	c #ACACAC",
";	c #E5E5E5",
">	c #DEDEDE",
",	c #D2D2D2",
"'	c #C5C5C5",
")	c #BFBFBF",
"!	c #C0C0C0",
"~	c #C3C3C3",
"{	c #C4C4C4",
"]	c #B9B9B9",
"^	c #E3E3E3",
"/	c #D6D6D6",
"(	c #B6B6B6",
"_	c #949494",
":	c #E0E0E0",
"<	c #D8D8D8",
"[	c #C2C2C2",
"}	c #A2A2A2",
"|	c #939393",
"1	c #929292",
"2	c #9A9A9A",
"3	c #A9A9A9",
"4	c #B1B1B1",
"5	c #ADADAD",
"6	c #979797",
"7	c #8B8B8B",
"8	c #D0D0D0",
"9	c #B5B5B5",
"0	c #868686",
"a	c #808080",
"b	c #838383",
"c	c #898989",
"d	c #8F8F8F",
"e	c #959595",
"f	c #A0A0A0",
"g	c #A7A7A7",
"h	c #CACACA",
"i	c #989898",
"j	c #818181",
"k	c #A8A8A8",
"l	c #8E8E8E",
"m	c #848484",
"n	c #8A8A8A",
"o	c #909090",
"p	c #DFDFDF",
"q	c #C9C9C9",
"r	c #7B7B7B",
"s	c #B2B2B2",
"t	c #9C9C9C",
"u	c #8D8D8D",
"v	c #7A7A7A",
"w	c #828282",
"x	c #8C8C8C",
"y	c #9D9D9D",
"z	c #DCDCDC",
"A	c #D4D4D4",
"B	c #BEBEBE",
"C	c #969696",
"D	c #858585",
"E	c #A4A4A4",
"F	c #BCBCBC",
"G	c #B7B7B7",
"H	c #888888",
"I	c #7D7D7D",
"J	c #7E7E7E",
"K	c #7C7C7C",
"                                ",
"                                ",
"                                ",
"                                ",
"                                ",
"                                ",
"                                ",
"                                ",
"                                ",
"                                ",
"                                ",
"     .........            ..... ",
"   ...+@#$%&*...         ..#=-. ",
"   .;;>,')!~{!]..        .^/(_. ",
"  ..:<[}|1_23445..      ..#[67. ",
"  .<8910a.bcdefg3..    ..:hicj. ",
" ..[kla.....mno6}5......pqi0r.. ",
" .stuav.   ..w0x|ys[..zABC0r..  ",
" .Cxwv.. .. ...DcdCEsFG}omrv.   ",
" .xmrv. ..    ..wmHxldxDIvv..   ",
" ......        ...JJIKrvv... .  ",
"                 .........  .   ",
"                                ",
"                                ",
"                                ",
"                                ",
"                                ",
"                                ",
"                                ",
"                                ",
"                                ",
"                                "};
