/* XPM */
static char * planning_xpm[] = {
"32 32 400 2",
"  	c None",
". 	c #DCA300",
"+ 	c #DDA700",
"@ 	c #DDA900",
"# 	c #DCA800",
"$ 	c #DAA700",
"% 	c #D6A200",
"& 	c #D29B00",
"* 	c #DCA100",
"= 	c #E0AA00",
"- 	c #E5B900",
"; 	c #ECC703",
"> 	c #F2D30C",
", 	c #F5D812",
"' 	c #F5D917",
") 	c #F4D919",
"! 	c #EFD312",
"~ 	c #E7C80B",
"{ 	c #DFBB03",
"] 	c #D7AB00",
"^ 	c #D29F00",
"/ 	c #DEA700",
"( 	c #E6BC00",
"_ 	c #F2D510",
": 	c #FCE52F",
"< 	c #FFF7A8",
"[ 	c #FFFDE0",
"} 	c #FFFDDD",
"| 	c #FFFCCE",
"1 	c #FFFABD",
"2 	c #FFF89A",
"3 	c #FEF161",
"4 	c #F8E648",
"5 	c #ECD72A",
"6 	c #DDBF08",
"7 	c #D3AB00",
"8 	c #CA9700",
"9 	c #DFAA00",
"0 	c #EBC401",
"a 	c #FBE42F",
"b 	c #FFFCDF",
"c 	c #FFFAB0",
"d 	c #FFF78A",
"e 	c #FFF471",
"f 	c #FFF265",
"g 	c #FFF264",
"h 	c #FFF470",
"i 	c #FFF683",
"j 	c #FFF88C",
"k 	c #FEF465",
"l 	c #F5E651",
"m 	c #E2CD25",
"n 	c #D2AF01",
"o 	c #C99800",
"p 	c #EBC503",
"q 	c #FEE939",
"r 	c #FFFEEA",
"s 	c #FFF9AA",
"t 	c #FFF370",
"u 	c #FFEB40",
"v 	c #FFE118",
"w 	c #FFDD0C",
"x 	c #FFDB09",
"y 	c #FFE421",
"z 	c #FFEC47",
"A 	c #FFF36E",
"B 	c #FFF665",
"C 	c #F7EB60",
"D 	c #E1CE2D",
"E 	c #CEAB01",
"F 	c #C08F00",
"G 	c #D79F00",
"H 	c #E4BC00",
"I 	c #FAE432",
"J 	c #FFFDE1",
"K 	c #FFF896",
"L 	c #FFED52",
"M 	c #FFDD0E",
"N 	c #FFD000",
"O 	c #FEC300",
"P 	c #FEC000",
"Q 	c #F1B503",
"R 	c #F0B303",
"S 	c #FEC500",
"T 	c #FFEE54",
"U 	c #F4E960",
"V 	c #D8C424",
"W 	c #C7A200",
"X 	c #A07500",
"Y 	c #D9A500",
"Z 	c #EED110",
"` 	c #FFF7A2",
" .	c #FFF9A1",
"..	c #FFEC4A",
"+.	c #FFD703",
"@.	c #9F6C15",
"#.	c #502B27",
"$.	c #1A0134",
"%.	c #1A0034",
"&.	c #1A0035",
"*.	c #1B0135",
"=.	c #593226",
"-.	c #B98310",
";.	c #FFD908",
">.	c #FFED4D",
",.	c #FBF263",
"'.	c #E4D750",
").	c #CAAF0A",
"!.	c #BA8C00",
"~.	c #DAAC00",
"{.	c #F4DD28",
"].	c #FFF9A9",
"^.	c #FFF36D",
"/.	c #FFDB08",
"(.	c #FEC200",
"_.	c #75481F",
":.	c #190034",
"<.	c #1B0035",
"[.	c #1B0036",
"}.	c #1C0037",
"|.	c #1C0038",
"1.	c #84541E",
"2.	c #FEC400",
"3.	c #FFDF12",
"4.	c #FDF05C",
"5.	c #ECE35D",
"6.	c #CBB619",
"7.	c #C19500",
"8.	c #D8AE00",
"9.	c #F4E037",
"0.	c #FFF880",
"a.	c #FFED4E",
"b.	c #FFD200",
"c.	c #AA7613",
"d.	c #1C003A",
"e.	c #1D003B",
"f.	c #1D003C",
"g.	c #1E003C",
"h.	c #1E003D",
"i.	c #C9900E",
"j.	c #FFD501",
"k.	c #FDEE54",
"l.	c #CAB721",
"m.	c #C19800",
"n.	c #D3AA00",
"o.	c #ECD935",
"p.	c #FEF565",
"q.	c #FFEE4D",
"r.	c #D79C09",
"s.	c #1D003A",
"t.	c #1F003E",
"u.	c #1F0040",
"v.	c #200041",
"w.	c #3E1738",
"x.	c #F4B703",
"y.	c #FFD905",
"z.	c #FBEC56",
"A.	c #E4DB5A",
"B.	c #C5B21E",
"C.	c #C19700",
"D.	c #513900",
"E.	c #CD9F00",
"F.	c #DFC91F",
"G.	c #F9EE62",
"H.	c #FFF463",
"I.	c #FFE523",
"J.	c #FEC600",
"K.	c #7D4F1F",
"L.	c #1C0039",
"M.	c #1E003E",
"N.	c #200042",
"O.	c #210043",
"P.	c #220045",
"Q.	c #220046",
"R.	c #9C661F",
"S.	c #FFCF00",
"T.	c #FEE732",
"U.	c #F5EB60",
"V.	c #D6CC53",
"W.	c #C2AB0E",
"X.	c #C09300",
"Y.	c #C69500",
"Z.	c #D1B103",
"`.	c #ECDB44",
" +	c #FDF464",
".+	c #FFD804",
"++	c #492230",
"@+	c #230047",
"#+	c #240049",
"$+	c #25004B",
"%+	c #5C2D39",
"&+	c #FEC100",
"*+	c #FEDB0A",
"=+	c #FAEB55",
"-+	c #E7DE5B",
";+	c #C7B72F",
">+	c #C1A101",
",+	c #9E7500",
"'+	c #C89F00",
")+	c #DAC318",
"!+	c #F6EA60",
"~+	c #FFEA38",
"{+	c #B17A15",
"]+	c #230046",
"^+	c #26004C",
"/+	c #28004F",
"(+	c #290050",
"_+	c #CE9112",
":+	c #FDE93D",
"<+	c #F2E960",
"[+	c #D3C84F",
"}+	c #3B2A00",
"|+	c #BB8B00",
"1+	c #CCA900",
"2+	c #E6D231",
"3+	c #FBF163",
"4+	c #FFF15C",
"5+	c #FFDF10",
"6+	c #603233",
"7+	c #25004A",
"8+	c #27004E",
"9+	c #290051",
"0+	c #2A0053",
"a+	c #784236",
"b+	c #FEE21D",
"c+	c #F9ED5F",
"d+	c #E1D859",
"e+	c #C4B225",
"f+	c #C19E00",
"g+	c #8C6800",
"h+	c #C59600",
"i+	c #D5B90A",
"j+	c #F2E454",
"k+	c #FFD300",
"l+	c #C78D13",
"m+	c #290052",
"n+	c #2B0055",
"o+	c #3C0D51",
"p+	c #E9AC09",
"q+	c #FFD602",
"r+	c #FCEA47",
"s+	c #EEE65E",
"t+	c #CDBF40",
"u+	c #C2A605",
"v+	c #B68A00",
"w+	c #110C00",
"x+	c #A57900",
"y+	c #CBA600",
"z+	c #E3CF28",
"A+	c #FFF360",
"B+	c #FFE21A",
"C+	c #683539",
"D+	c #2D0059",
"E+	c #7C4439",
"F+	c #FEC800",
"G+	c #FEE529",
"H+	c #F7EC61",
"I+	c #DCD356",
"J+	c #C3B01C",
"K+	c #C19B00",
"L+	c #644800",
"M+	c #C29200",
"N+	c #D5B706",
"O+	c #F3E44E",
"P+	c #B3781D",
"Q+	c #2C0057",
"R+	c #2E005C",
"S+	c #D19414",
"T+	c #CBBC35",
"U+	c #C2A202",
"V+	c #A77D00",
"W+	c #CDA600",
"X+	c #E6D026",
"Y+	c #FCF264",
"Z+	c #46154E",
"`+	c #673045",
" @	c #DFD557",
".@	c #C3AF1A",
"+@	c #473200",
"@@	c #C49500",
"#@	c #DBBE0A",
"$@	c #F8EA58",
"%@	c #FFF565",
"&@	c #FFE82F",
"*@	c #FECA00",
"=@	c #794239",
"-@	c #A66B28",
";@	c #FEEA3D",
">@	c #F3EA60",
",@	c #D1C33F",
"'@	c #C2A504",
")@	c #A77C00",
"!@	c #AC7D00",
"~@	c #D3AE00",
"{@	c #F2DF39",
"]@	c #FFED48",
"^@	c #FFD100",
"/@	c #AF7422",
"(@	c #D69912",
"_@	c #FCED56",
":@	c #EBE25D",
"<@	c #C8B623",
"[@	c #C19A00",
"}@	c #634700",
"|@	c #D0A100",
"1@	c #EBD421",
"2@	c #FFF15A",
"3@	c #FECB00",
"4@	c #FAEE60",
"5@	c #E2D758",
"6@	c #C4AC0D",
"7@	c #BE9100",
"8@	c #0E0900",
"9@	c #CB9A00",
"0@	c #E2C50C",
"a@	c #FAEE61",
"b@	c #FEF363",
"c@	c #FEE835",
"d@	c #FDE735",
"e@	c #F6EC61",
"f@	c #D8CC4E",
"g@	c #C49300",
"h@	c #D8B905",
"i@	c #F1E458",
"j@	c #F9F063",
"k@	c #FAF163",
"l@	c #F8EF62",
"m@	c #EBE35D",
"n@	c #CCBF42",
"o@	c #946E00",
"p@	c #BF8D00",
"q@	c #D0AE01",
"r@	c #E6D12B",
"s@	c #F4E44D",
"t@	c #F6E64D",
"u@	c #F2E24C",
"v@	c #DFD046",
"w@	c #C4B220",
"x@	c #C19F00",
"y@	c #805D00",
"z@	c #CC9B00",
"A@	c #E3BE01",
"B@	c #F7CE01",
"C@	c #F9D001",
"D@	c #F8CF01",
"E@	c #F3CB01",
"F@	c #DAB601",
"G@	c #C3A301",
"H@	c #AF8300",
"I@	c #261B00",
"J@	c #B78500",
"K@	c #CA9400",
"L@	c #D3A014",
"M@	c #CBAF62",
"N@	c #C5A650",
"O@	c #C19D3B",
"P@	c #BB8A00",
"Q@	c #A67A00",
"R@	c #916B00",
"S@	c #6B4D00",
"T@	c #EAC301",
"U@	c #FFEA80",
"V@	c #FFF9D9",
"W@	c #FFF5C1",
"X@	c #FFF0A5",
"Y@	c #FCD201",
"Z@	c #DFBA01",
"`@	c #C4A401",
" #	c #B18500",
".#	c #D09C00",
"+#	c #E3C50B",
"@#	c #FAE94E",
"##	c #FEED50",
"$#	c #FDEC4F",
"%#	c #D7C943",
"&#	c #C3A705",
"*#	c #AA8000",
"=#	c #C59400",
"-#	c #CDB006",
";#	c #D9C93B",
">#	c #E3D447",
",#	c #E6D748",
"'#	c #E1D247",
")#	c #D3C542",
"!#	c #C5B631",
"~#	c #9A7200",
"{#	c #C19400",
"]#	c #C5A501",
"^#	c #C2A201",
"/#	c #BB8D00",
"(#	c #A97D00",
"_#	c #A37800",
":#	c #9B7300",
"<#	c #977000",
"[#	c #8A6500",
"}#	c #443000",
"|#	c #AF8200",
"1#	c #AA7E00",
"2#	c #8E6900",
"3#	c #281C00",
"                        . + @ @ # $ % &                         ",
"                  * = - ; > , ' ) ! ~ { ] ^                     ",
"                / ( _ : < [ } | 1 2 3 4 5 6 7 8                 ",
"              9 0 a b [ c d e f g h i j k l m n o               ",
"            + p q r s t u v w x x w y z A B C D E F             ",
"          G H I J K L M N O P Q R P S N v T k U V W X           ",
"          Y Z `  ...+.O @.#.$.%.&.*.=.-.S ;.>.,.'.).!.          ",
"          ~.{.].^./.(._.:.&.&.<.[.[.}.|.1.2.3.4.5.6.7.          ",
"          8.9.0.a.b.c.%.&.<.[.|.d.e.f.g.h.i.j.k.5.l.m.          ",
"          n.o.p.q.j.r.&.[.|.s.f.h.t.u.v.w.x.y.z.A.B.C.D.        ",
"          E.F.G.H.I.J.K.L.e.M.u.N.O.P.Q.R.S.T.U.V.W.X.          ",
"          Y.Z.`. +q..+P ++t.N.P.@+#+$+%+&+*+=+-+;+>+,+          ",
"            '+)+!+k ~+N {+O.]+#+^+/+(+_+b.:+<+[+W.X.}+          ",
"            |+1+2+3+4+5+(.6+7+8+9+0+a+2.b+c+d+e+f+g+            ",
"              h+i+j+p.u k+l+8+m+n+o+p+q+r+s+t+u+v+w+            ",
"              x+y+z+3+A+B+O C+n+D+E+F+G+H+I+J+K+L+              ",
"                M+N+O+p.u b.P+Q+R+S+q+r+s+T+U+V+                ",
"                  W+X+Y+4+5+&+Z+`+2.b+c+ @.@C.+@                ",
"                  @@#@$@%@&@*@=@-@S.;@>@,@'@)@                  ",
"                  !@~@{@B ]@^@/@(@+._@:@<@[@}@                  ",
"                    |@1@k 2@y.3@3@5+4@5@6@7@8@                  ",
"                    9@0@a@b@c@c@c@d@e@f@'@)@                    ",
"                    g@h@i@j@k@k@k@l@m@n@U+o@                    ",
"                    p@q@r@s@t@t@t@u@v@w@x@y@                    ",
"                      z@A@B@C@C@D@E@F@G@H@I@                    ",
"                      J@K@L@M@N@O@P@Q@R@S@                      ",
"                      ^ T@U@V@W@X@Y@Z@`@ #                      ",
"                      .#+#@#####$#s@%#&#*#                      ",
"                      =#-#;#>#,#'#)#!#U+~#                      ",
"                      {#C.>+`@]#G@^#>+C./#                      ",
"                          (#_#:#<#o@[#}#                        ",
"                            _#|#1#2#3#                          "};
