/* XPM */
static char * print_xpm[] = {
"32 32 321 2",
"  	c None",
". 	c #B3B3C3",
"+ 	c #BDBDCB",
"@ 	c #9F9FB0",
"# 	c #E2E2E8",
"$ 	c #FFFFFF",
"% 	c #FEFEFF",
"& 	c #FDFEFE",
"* 	c #FCFDFE",
"= 	c #BDBDCA",
"- 	c #FAFBFD",
"; 	c #F7FAFC",
"> 	c #F4F8FB",
", 	c #FAFCFE",
"' 	c #E1E1E7",
") 	c #F2F6FB",
"! 	c #F9FBFD",
"~ 	c #BABAC7",
"{ 	c #DFDFE5",
"] 	c #F2F6FA",
"^ 	c #EFF4F9",
"/ 	c #F8FBFD",
"( 	c #B7B7C4",
"_ 	c #DDDDE3",
": 	c #ECF3F8",
"< 	c #F8FAFC",
"[ 	c #B4B4C0",
"} 	c #DBDBE1",
"| 	c #EAF1F7",
"1 	c #F5F8FB",
"2 	c #B0B0BC",
"3 	c #DADADF",
"4 	c #E4ECF4",
"5 	c #F5F7FA",
"6 	c #ADADB8",
"7 	c #D8D8DD",
"8 	c #FEFFFF",
"9 	c #FBFDFE",
"0 	c #F6FAFC",
"a 	c #F1F6FA",
"b 	c #E2E9F1",
"c 	c #F4F6F9",
"d 	c #A9A9B4",
"e 	c #595961",
"f 	c #D6D6DC",
"g 	c #FCFEFE",
"h 	c #DFE6EF",
"i 	c #F3F5F8",
"j 	c #A5A5B0",
"k 	c #474747",
"l 	c #8B8B8F",
"m 	c #D4D4DA",
"n 	c #FBFCFE",
"o 	c #DDE2EC",
"p 	c #F2F4F7",
"q 	c #A7A7B1",
"r 	c #767676",
"s 	c #404040",
"t 	c #484848",
"u 	c #7D7D81",
"v 	c #B2B2B9",
"w 	c #CCCCD5",
"x 	c #D6D6DF",
"y 	c #96969A",
"z 	c #D3D3D8",
"A 	c #F9FCFD",
"B 	c #DBDFE9",
"C 	c #F1F3F7",
"D 	c #9F9FA9",
"E 	c #CCCCCF",
"F 	c #C6C6CF",
"G 	c #A5A5AB",
"H 	c #6F6F71",
"I 	c #414141",
"J 	c #A4A4AA",
"K 	c #DFDFE7",
"L 	c #E1E1E9",
"M 	c #E3E3EA",
"N 	c #86868A",
"O 	c #D1D1D6",
"P 	c #F1F6FB",
"Q 	c #E4EDF7",
"R 	c #DAE6F4",
"S 	c #D0E0F1",
"T 	c #C7D9EE",
"U 	c #B9CFEA",
"V 	c #BBCFE8",
"W 	c #C0D1E8",
"X 	c #C5D2E7",
"Y 	c #CAD4E6",
"Z 	c #CED6E5",
"` 	c #EDEFF4",
" .	c #9C9CA6",
"..	c #BEBEBF",
"+.	c #D8D8E1",
"@.	c #7C7C7E",
"#.	c #6F6F72",
"$.	c #E3E3EB",
"%.	c #E9E9EF",
"&.	c #7587A0",
"*.	c #B7CDE9",
"=.	c #BED2EB",
"-.	c #C5D7ED",
";.	c #CCDBEF",
">.	c #D3E0F0",
",.	c #D9E4F2",
"'.	c #E1E9F4",
").	c #DDE7F3",
"!.	c #D7E2F1",
"~.	c #D1DEF0",
"{.	c #CADAEE",
"].	c #C4D6ED",
"^.	c #BDD1EB",
"/.	c #ABC4E5",
"(.	c #AAABAC",
"_.	c #CFCFDC",
":.	c #D1D1DD",
"<.	c #D3D3DF",
"[.	c #D4D4E0",
"}.	c #D6D6E1",
"|.	c #D5D5DF",
"1.	c #444444",
"2.	c #D1D1D8",
"3.	c #E6E6EC",
"4.	c #E9E9ED",
"5.	c #87A5C7",
"6.	c #DCEEFB",
"7.	c #DBEEFB",
"8.	c #D5EBFB",
"9.	c #D3EAFB",
"0.	c #D1E9FA",
"a.	c #CFE8FA",
"b.	c #CDE7FA",
"c.	c #CAE6FA",
"d.	c #8A98A7",
"e.	c #CFCFDB",
"f.	c #CDCDDA",
"g.	c #B4BDC7",
"h.	c #91B8AD",
"i.	c #838388",
"j.	c #4B4B4B",
"k.	c #E5E5EB",
"l.	c #E9E9EE",
"m.	c #DBDBDD",
"n.	c #85B6E2",
"o.	c #B6E0FD",
"p.	c #B2DEFC",
"q.	c #A4D9FC",
"r.	c #97D3FC",
"s.	c #89CDFB",
"t.	c #86CCFB",
"u.	c #678EB5",
"v.	c #DBDBE4",
"w.	c #D3D3DE",
"x.	c #B7C5C9",
"y.	c #80A4A0",
"z.	c #BEBEC7",
"A.	c #4D4D4D",
"B.	c #EAEAF0",
"C.	c #EBEBF0",
"D.	c #E1E1E8",
"E.	c #C9C9CA",
"F.	c #7CC0F4",
"G.	c #93D3FE",
"H.	c #8BCFFE",
"I.	c #68C1FD",
"J.	c #4CB5FD",
"K.	c #4BB5FD",
"L.	c #428BCB",
"M.	c #E3E3E9",
"N.	c #D8D8E2",
"O.	c #D0D0D8",
"P.	c #5F5F5F",
"Q.	c #EEEEF2",
"R.	c #DEDEE6",
"S.	c #A7B2BF",
"T.	c #6FC4FE",
"U.	c #6CC4FE",
"V.	c #3FB2FE",
"W.	c #17A1FE",
"X.	c #14A0FE",
"Y.	c #198AE3",
"Z.	c #DDDDE0",
"`.	c #DBDBE2",
" +	c #3D3D3D",
".+	c #5F5F61",
"++	c #E8E8ED",
"@+	c #F0F0F4",
"#+	c #6C9AC7",
"$+	c #60B9FF",
"%+	c #1698FF",
"&+	c #008EFF",
"*+	c #0186F5",
"=+	c #D1D1D4",
"-+	c #E8E8EC",
";+	c #C6C6CE",
">+	c #59595B",
",+	c #B1B1C5",
"'+	c #B9B9CB",
")+	c #E0E0E6",
"!+	c #EDEDF0",
"~+	c #EBEBEF",
"{+	c #ECECF0",
"]+	c #4E8DD6",
"^+	c #1687FF",
"/+	c #007CFF",
"(+	c #A2B3C9",
"_+	c #ECECEF",
":+	c #E6E6EB",
"<+	c #B4B4C7",
"[+	c #9898A7",
"}+	c #424242",
"|+	c #5D5D60",
"1+	c #BDBDCE",
"2+	c #D2D2DE",
"3+	c #AAC1E2",
"4+	c #6EA0E3",
"5+	c #538FE0",
"6+	c #3B81DF",
"7+	c #2978E2",
"8+	c #1C73E8",
"9+	c #1270EE",
"0+	c #096EF4",
"a+	c #026DFC",
"b+	c #056DF9",
"c+	c #0C6EF2",
"d+	c #1571EC",
"e+	c #2075E6",
"f+	c #2E7BE0",
"g+	c #4285DF",
"h+	c #5B94E1",
"i+	c #76A4E3",
"j+	c #CCD4E3",
"k+	c #C9C9D6",
"l+	c #B5B5C8",
"m+	c #9C9CAB",
"n+	c #3F3F3F",
"o+	c #545455",
"p+	c #B6B6C8",
"q+	c #C0C0D0",
"r+	c #CACAD7",
"s+	c #CDCDD9",
"t+	c #D0D0DB",
"u+	c #DCDCE2",
"v+	c #DCDCE4",
"w+	c #CCCCD8",
"x+	c #9797A3",
"y+	c #3B3B3B",
"z+	c #525252",
"A+	c #B2B2C2",
"B+	c #B0B0BF",
"C+	c #7E7E87",
"D+	c #878791",
"E+	c #90909A",
"F+	c #ADADB9",
"G+	c #C5C5D4",
"H+	c #A8A8B1",
"I+	c #505052",
"J+	c #C3C3D2",
"K+	c #89898F",
"L+	c #A6A6AF",
"M+	c #A9A9B1",
"N+	c #535353",
"O+	c #C3C3C3",
"P+	c #C4C4C4",
"Q+	c #A9A9A9",
"R+	c #5E5E60",
"S+	c #C4C4CF",
"T+	c #7E7E82",
"U+	c #D7D7E2",
"V+	c #BDBDC3",
"W+	c #8F8F91",
"X+	c #A8A8AC",
"Y+	c #DCDCDC",
"Z+	c #DBDBDC",
"`+	c #E1E1E1",
" @	c #828288",
".@	c #99999C",
"+@	c #D0D0D7",
"@@	c #D4D4DE",
"#@	c #5E5E5E",
"$@	c #616162",
"%@	c #E2E2EA",
"&@	c #FBFBFD",
"*@	c #FDFDFE",
"=@	c #C5C5D1",
"-@	c #DFDFE8",
";@	c #B6B6BC",
">@	c #949497",
",@	c #BCBCCC",
"'@	c #FEFEFE",
")@	c #FBFBFC",
"!@	c #F8F8FA",
"~@	c #BFBFCB",
"{@	c #D2D2D9",
"]@	c #5F5F62",
"^@	c #CCCCD7",
"/@	c #F5F5F8",
"(@	c #F2F2F5",
"_@	c #9595A1",
":@	c #494949",
"<@	c #EFEFF3",
"[@	c #C7C7CF",
"}@	c #B3B3C2",
"|@	c #FCFCFD",
"1@	c #FAFAFB",
"2@	c #F9F9FA",
"3@	c #F8F8F9",
"4@	c #F6F6F9",
"5@	c #F7F7F9",
"6@	c #F7F7F8",
"7@	c #5D5D6B",
"8@	c #B4B4C4",
"9@	c #CDCDD8",
"0@	c #C9C9D4",
"a@	c #C5C5D0",
"b@	c #C1C1CB",
"c@	c #BABAC3",
"d@	c #B6B6BF",
"e@	c #B2B2BB",
"f@	c #6A6A76",
"                  . + + + + + + + + + + + + @                   ",
"                  # $ $ $ $ $ $ $ $ % & * % =                   ",
"                  # $ $ $ $ $ $ $ * - ; > , =                   ",
"                  ' $ $ $ $ $ $ * - ; > ) ! ~                   ",
"                  { $ $ $ $ $ * - ; > ] ^ / (                   ",
"                  _ $ $ $ $ * - ; > ] ^ : < [                   ",
"                  } $ $ $ * - ; > ] ^ : | 1 2                   ",
"                  3 $ $ * - ; > ] ^ : | 4 5 6                   ",
"                  7 8 9 ! 0 > a ^ : | 4 b c d                   ",
"                e f g ! 0 > a ^ : | 4 b h i j                   ",
"              k l m n 0 > a ^ : | 4 b h o p q r s               ",
"      t u v w x y z A > a ^ : | 4 b h o B C D E x F G H I       ",
"    J K L L L M N O P Q R S T U V W X Y Z `  ...L L L L +.@.    ",
"  #.$.$.$.$.$.%.&.*.=.-.;.>.,.'.).!.~.{.].^./.(._.:.<.[.}.|.1.  ",
"  2.3.3.3.3.3.4.5.6.6.6.6.6.6.6.7.8.9.0.a.b.c.d.e.f.g.h.f.f.i.  ",
"j.k.l.l.l.l.l.m.n.o.o.o.o.p.q.r.s.t.t.t.t.t.t.u.v.w.x.y.w.w.z.  ",
"A.B.C.C.C.%.D.E.F.G.G.H.I.J.K.K.K.K.K.K.K.K.K.L.M.N.N.N.N.N.O.  ",
"P.Q.Q.Q.l.K R.S.T.U.V.W.X.X.X.X.X.X.X.X.X.X.X.Y.Z.R.R.R.R.R.`. +",
".+++@+C.M.M.M.#+$+%+&+&+&+&+&+&+&+&+&+&+&+&+&+*+=+M.M.M.M.-+;+I ",
">+,+'+)+!+~+{+]+^+/+/+/+/+/+/+/+/+/+/+/+/+/+/+/+(+4._+:+e.<+[+}+",
"|+,+,+,+,+1+2+3+4+5+6+7+8+9+0+a+b+c+d+e+f+g+h+i+j+k+l+,+,+,+m+n+",
"o+<+l+l+l+l+l+l+l+p+q+r+s+t++.u+v+|.e.w+k+1+l+l+l+l+l+l+l+l+x+y+",
"z+A+1+1+1+B+C+C+C+C+C+C+C+C+C+C+C+C+C+C+C+C+C+C+C+D+1+1+1+1+E+  ",
"z+F+G+G+G+H+y+y+y+y+y+y+y+y+y+y+y+y+y+y+y+y+y+y+y+I+J+G+G+G+K+  ",
"  L+f.f.f.M+j.N+O+P+P+P+P+P+P+P+P+P+P+P+P+P+P+Q+j.R+S+f.f.f.T+  ",
"  l U+U+U+V+W+X+Y+Y+Y+Y+Y+Y+Y+Y+Y+Y+Y+Y+Y+Y+Z+`+ @.@+@U+U+@@#@  ",
"  $@v+%@%@$.f.3.$ $ $ $ $ $ $ $ $ $ $ $ $ % &@*@=@-@M %@%@;@1.  ",
"    >@+@%@$.,@$ $ $ $ $ $ $ $ $ $ $ $ $ '@)@!@!@~+~@$.{@;@H     ",
"        k ]@^@$ $ $ $ $ $ $ $ $ $ $ $ '@)@!@/@(@*@_@:@I         ",
"            (@$ $ $ $ $ $ $ $ $ $ $ '@)@!@/@(@<@/@[@            ",
"          }@$ $ $ $ $ $ $ $ $ $ $ $ *@|@1@2@3@4@5@6@7@          ",
"          8@9@9@9@9@9@9@9@9@9@9@9@9@w+0@a@b@z.c@d@e@f@          "};
