/* XPM */
static char * reload_xpm[] = {
"14 16 82 1",
" 	c None",
".	c #C4C4C4",
"+	c #878787",
"@	c #C5C5C5",
"#	c #8A8A8A",
"$	c #797979",
"%	c #787878",
"&	c #9E9E9E",
"*	c #919191",
"=	c #838383",
"-	c #7B7B7B",
";	c #747474",
">	c #6C6C6C",
",	c #777777",
"'	c #9A9A9A",
")	c #989898",
"!	c #7E7E7E",
"~	c #767676",
"{	c #6E6E6E",
"]	c #666666",
"^	c #5E5E5E",
"/	c #565656",
"(	c #707070",
"_	c #686868",
":	c #606060",
"<	c #585858",
"[	c #505050",
"}	c #484848",
"|	c #C7C7C7",
"1	c #BCBCBC",
"2	c #BBBBBB",
"3	c #8D8D8D",
"4	c #626262",
"5	c #808080",
"6	c #4B4B4B",
"7	c #434343",
"8	c #3C3C3C",
"9	c #9C9C9C",
"0	c #858585",
"a	c #949494",
"b	c #7F7F7F",
"c	c #3D3D3D",
"d	c #353535",
"e	c #939393",
"f	c #C0C0C0",
"g	c #383838",
"h	c #303030",
"i	c #4F4F4F",
"j	c #818181",
"k	c #B1B1B1",
"l	c #333333",
"m	c #2A2A2A",
"n	c #AFAFAF",
"o	c #7C7C7C",
"p	c #A9A9A9",
"q	c #8C8C8C",
"r	c #2C2C2C",
"s	c #242424",
"t	c #2E2E2E",
"u	c #C2C2C2",
"v	c #888888",
"w	c #B9B9B9",
"x	c #4E4E4E",
"y	c #A2A2A2",
"z	c #9D9D9D",
"A	c #ADADAD",
"B	c #515151",
"C	c #494949",
"D	c #414141",
"E	c #5D5D5D",
"F	c #5B5B5B",
"G	c #535353",
"H	c #3B3B3B",
"I	c #B2B2B2",
"J	c #636363",
"K	c #454545",
"L	c #363636",
"M	c #313131",
"N	c #4A4A4A",
"O	c #3F3F3F",
"P	c #959595",
"Q	c #A1A1A1",
"       .+     ",
"     @#$%     ",
"   &*=-;>,'   ",
"    )!~{]^/=  ",
"     *(_:<[}= ",
"|12   3425678'",
"9*0    a  bcd,",
"e+5       fghi",
"&j$k       lmm",
"no;' pq    rst",
"u,{]vwx(   yzA",
" y_:<BCDE     ",
"  *FG67Hl6    ",
"   IJKcLtM)   ",
"     NgOP     ",
"     BQ       "};
