/* XPM */
static char * save_all_xpm[] = {
"32 32 513 2",
"  	c None",
". 	c #ADAEC3",
"+ 	c #A8A9BF",
"@ 	c #A3A3BC",
"# 	c #A4A4BC",
"$ 	c #A0A0B9",
"% 	c #9C9CB5",
"& 	c #9797B2",
"* 	c #9393AE",
"= 	c #8E8EAB",
"- 	c #8989A8",
"; 	c #8585A4",
"> 	c #8080A1",
", 	c #7B7B9D",
"' 	c #77779A",
") 	c #727296",
"! 	c #6E6E93",
"~ 	c #696990",
"{ 	c #64648C",
"] 	c #606089",
"^ 	c #5B5B85",
"/ 	c #565682",
"( 	c #404273",
"_ 	c #2F3066",
": 	c #AEAEC4",
"< 	c #EAEDF2",
"[ 	c #E6E9F0",
"} 	c #E3E7EE",
"| 	c #FFFFFF",
"1 	c #D2D8E3",
"2 	c #B6C0D2",
"3 	c #B2BACD",
"4 	c #414273",
"5 	c #A9AAC0",
"6 	c #E2E6ED",
"7 	c #D7DCE6",
"8 	c #D3D9E4",
"9 	c #072764",
"0 	c #203C74",
"a 	c #284479",
"b 	c #304B7E",
"c 	c #92A1BC",
"d 	c #8F9EB9",
"e 	c #8387A7",
"f 	c #181854",
"g 	c #A4A5BD",
"h 	c #DFE3EB",
"i 	c #CFD5E1",
"j 	c #12316B",
"k 	c #526893",
"l 	c #63769D",
"m 	c #7385A7",
"n 	c #8E9DB9",
"o 	c #8B9AB7",
"p 	c #7D81A1",
"q 	c #1C1C56",
"r 	c #A0A1BA",
"s 	c #DBE0E9",
"t 	c #CED5E1",
"u 	c #CAD1DE",
"v 	c #18366F",
"w 	c #6B7EA3",
"x 	c #7B8CAD",
"y 	c #8A99B6",
"z 	c #8696B4",
"A 	c #6D7193",
"B 	c #1A1A54",
"C 	c #9B9CB6",
"D 	c #D8DEE7",
"E 	c #C9D0DE",
"F 	c #C6CEDC",
"G 	c #8494B2",
"H 	c #94A2BC",
"I 	c #A4B0C7",
"J 	c #8595B3",
"K 	c #7786A6",
"L 	c #64678B",
"M 	c #181853",
"N 	c #7585A5",
"O 	c #6B789A",
"P 	c #5D6186",
"Q 	c #171752",
"R 	c #FDFDFD",
"S 	c #E7E7ED",
"T 	c #697799",
"U 	c #647395",
"V 	c #585B81",
"W 	c #151550",
"X 	c #A9B0C4",
"Y 	c #9EA5BC",
"Z 	c #637195",
"` 	c #5F6D91",
" .	c #52557C",
"..	c #14144F",
"+.	c #677597",
"@.	c #627094",
"#.	c #5E6B90",
"$.	c #59678C",
"%.	c #4C5077",
"&.	c #12124E",
"*.	c #616E93",
"=.	c #5C6A8F",
"-.	c #58668B",
";.	c #546287",
">.	c #474B72",
",.	c #11114D",
"'.	c #5B698E",
").	c #57658A",
"!.	c #526186",
"~.	c #4E5D83",
"{.	c #42456E",
"].	c #10104C",
"^.	c #9798B3",
"/.	c #D5DAE5",
"(.	c #C5CDDB",
"_.	c #C2CAD9",
":.	c #8191B1",
"<.	c #B3BDD0",
"[.	c #BFC7D7",
"}.	c #CBD2DF",
"|.	c #727C9C",
"1.	c #6D7898",
"2.	c #4D5C82",
"3.	c #49577E",
"4.	c #3C4069",
"5.	c #0F0F4B",
"6.	c #9294AF",
"7.	c #D1D7E2",
"8.	c #C1C9D8",
"9.	c #BDC6D6",
"0.	c #C0C0D1",
"a.	c #BCBCCE",
"b.	c #48567D",
"c.	c #44527A",
"d.	c #373B64",
"e.	c #0D0D49",
"f.	c #8E8FAC",
"g.	c #CED4E1",
"h.	c #BCC5D6",
"i.	c #B9C2D4",
"j.	c #DADFE8",
"k.	c #D8DDE7",
"l.	c #D6DCE6",
"m.	c #D0D6E2",
"n.	c #CCD3DF",
"o.	c #CBD2DE",
"p.	c #C9D0DD",
"q.	c #C7CFDC",
"r.	c #C4CCDA",
"s.	c #BDC5D4",
"t.	c #BBBBCD",
"u.	c #B7B7CA",
"v.	c #435179",
"w.	c #3F4D76",
"x.	c #333660",
"y.	c #0C0C48",
"z.	c #898AA9",
"A.	c #B8C1D3",
"B.	c #B5BFD1",
"C.	c #B1BBCF",
"D.	c #AEB9CD",
"E.	c #AAB5CA",
"F.	c #A7B3C8",
"G.	c #A4B0C6",
"H.	c #A0ADC4",
"I.	c #9DAAC2",
"J.	c #99A7C0",
"K.	c #96A4BE",
"L.	c #93A1BC",
"M.	c #8C9BB8",
"N.	c #8898B5",
"O.	c #8393B1",
"P.	c #7685A6",
"Q.	c #6B799B",
"R.	c #B6B6C9",
"S.	c #B2B2C6",
"T.	c #3E4C75",
"U.	c #3A4971",
"V.	c #2F325C",
"W.	c #0B0B47",
"X.	c #8486A5",
"Y.	c #C7CEDC",
"Z.	c #B4BED0",
"`.	c #B0BACE",
" +	c #ADB8CC",
".+	c #A9B5CA",
"++	c #A6B2C8",
"@+	c #A3AFC6",
"#+	c #9FACC3",
"$+	c #9CA9C2",
"%+	c #98A6BF",
"&+	c #95A3BD",
"*+	c #92A0BB",
"=+	c #7988A8",
"-+	c #6F7D9E",
";+	c #6A789A",
">+	c #667496",
",+	c #8E8EB1",
"'+	c #ADADC3",
")+	c #394870",
"!+	c #36446D",
"~+	c #2A2E58",
"{+	c #0A0A46",
"]+	c #8081A2",
"^+	c #AFBACE",
"/+	c #ACB7CB",
"(+	c #A9B4C9",
"_+	c #A5B1C7",
":+	c #A2AEC5",
"<+	c #9EABC3",
"[+	c #9BA8C1",
"}+	c #97A5BF",
"|+	c #94A2BD",
"1+	c #909FBA",
"2+	c #8998B4",
"3+	c #8291AE",
"4+	c #7987A6",
"5+	c #7280A1",
"6+	c #6D7B9D",
"7+	c #647295",
"8+	c #606D92",
"9+	c #A3A3BD",
"0+	c #A8A8BF",
"a+	c #35436D",
"b+	c #324069",
"c+	c #262A54",
"d+	c #090945",
"e+	c #7B7D9F",
"f+	c #C0C9D8",
"g+	c #ABB6CB",
"h+	c #A8B3C9",
"i+	c #BBC4D5",
"j+	c #B9C2D3",
"k+	c #B1BCCF",
"l+	c #ABB5CA",
"m+	c #A3ADC4",
"n+	c #9AA4BC",
"o+	c #95A0B9",
"p+	c #909BB5",
"q+	c #8C96B1",
"r+	c #8792AD",
"s+	c #838DAA",
"t+	c #7F89A7",
"u+	c #7A84A3",
"v+	c #76809F",
"w+	c #9797B4",
"x+	c #A4A4BB",
"y+	c #313F68",
"z+	c #2D3B65",
"A+	c #222650",
"B+	c #080844",
"C+	c #76789B",
"D+	c #FCFCFD",
"E+	c #F2F2F6",
"F+	c #EBEBF0",
"G+	c #E3E3EA",
"H+	c #DFDFE8",
"I+	c #DBDBE5",
"J+	c #D8D8E2",
"K+	c #D4D4DF",
"L+	c #D0D0DC",
"M+	c #CCCCD9",
"N+	c #C8C8D6",
"O+	c #C4C4D3",
"P+	c #8A8AAC",
"Q+	c #9F9FB7",
"R+	c #2C3A64",
"S+	c #293861",
"T+	c #1E224C",
"U+	c #070743",
"V+	c #727498",
"W+	c #BAC3D4",
"X+	c #F8F8FA",
"Y+	c #EEEEF2",
"Z+	c #EAEAEF",
"`+	c #E6E6ED",
" @	c #E2E2EA",
".@	c #DEDEE7",
"+@	c #DADAE4",
"@@	c #D7D7E1",
"#@	c #D2D2DE",
"$@	c #CFCFDB",
"%@	c #CBCBD8",
"&@	c #C7C7D6",
"*@	c #C3C3D3",
"=@	c #BFBFD0",
"-@	c #9E9EB7",
";@	c #9A9AB4",
">@	c #283760",
",@	c #26345D",
"'@	c #1B1E48",
")@	c #060642",
"!@	c #6D6F95",
"~@	c #FEFEFE",
"{@	c #F3F3F6",
"]@	c #EDEDF1",
"^@	c #E9E9EF",
"/@	c #E5E5EC",
"(@	c #E1E1E9",
"_@	c #DDDDE6",
":@	c #D9D9E3",
"<@	c #D5D5E0",
"[@	c #D1D1DD",
"}@	c #CDCDDA",
"|@	c #CACAD8",
"1@	c #C6C6D5",
"2@	c #C2C2D2",
"3@	c #BEBECF",
"4@	c #BABACC",
"5@	c #7A7AA1",
"6@	c #9595B0",
"7@	c #25335D",
"8@	c #223059",
"9@	c #181B44",
"0@	c #060641",
"a@	c #686A91",
"b@	c #9AA7C0",
"c@	c #96A3BD",
"d@	c #F2F2F5",
"e@	c #BDBDD8",
"f@	c #B9B9D6",
"g@	c #B6B6D3",
"h@	c #B3B3D0",
"i@	c #B0B0CE",
"j@	c #ADADCB",
"k@	c #AAAAC9",
"l@	c #A7A7C6",
"m@	c #A4A4C3",
"n@	c #A1A1C1",
"o@	c #9D9DBE",
"p@	c #9A9ABC",
"q@	c #9797B9",
"r@	c #9494B7",
"s@	c #9191B4",
"t@	c #8D8DAB",
"u@	c #9090AC",
"v@	c #212F58",
"w@	c #1E2C56",
"x@	c #141841",
"y@	c #050540",
"z@	c #63668E",
"A@	c #8B98B5",
"B@	c #EAEAF0",
"C@	c #DBDBE7",
"D@	c #D7D7E4",
"E@	c #D4D4E1",
"F@	c #D0D0DE",
"G@	c #CCCCDC",
"H@	c #C9C9D9",
"I@	c #C5C5D6",
"J@	c #C1C1D3",
"K@	c #BDBDD1",
"L@	c #BABACE",
"M@	c #B6B6CB",
"N@	c #B2B2C8",
"O@	c #AEAEC5",
"P@	c #ABABC3",
"Q@	c #A7A7C0",
"R@	c #8F8FAC",
"S@	c #8B8BA9",
"T@	c #1D2C55",
"U@	c #1B2852",
"V@	c #11143D",
"W@	c #040440",
"X@	c #5F618A",
"Y@	c #ACB7CC",
"Z@	c #8C9AB6",
"`@	c #818FAD",
" #	c #E6E6EC",
".#	c #CBCBDD",
"+#	c #C8C8DB",
"@#	c #C4C4D8",
"##	c #C1C1D5",
"$#	c #BDBDD3",
"%#	c #BABAD0",
"&#	c #B6B6CD",
"*#	c #B3B3CA",
"=#	c #AFAFC8",
"-#	c #ACACC5",
";#	c #A8A8C2",
">#	c #A5A5BF",
",#	c #A1A1BD",
"'#	c #9D9DBA",
")#	c #9A9AB7",
"!#	c #75758F",
"~#	c #72728C",
"{#	c #12163D",
"]#	c #10143C",
"^#	c #0C0D35",
"/#	c #03033F",
"(#	c #5A5D87",
"_#	c #808EAC",
":#	c #7B89A8",
"<#	c #BBBBD4",
"[#	c #B8B8D1",
"}#	c #B5B5CF",
"|#	c #B2B2CC",
"1#	c #AEAEC9",
"2#	c #ABABC7",
"3#	c #A8A8C4",
"4#	c #A4A4C2",
"5#	c #A1A1BF",
"6#	c #9E9EBC",
"7#	c #9A9AB9",
"8#	c #9797B7",
"9#	c #9494B4",
"0#	c #9090B1",
"a#	c #8D8DAF",
"b#	c #1C1C53",
"c#	c #1B1B53",
"d#	c #04043F",
"e#	c #555884",
"f#	c #9EA9C0",
"g#	c #7988A6",
"h#	c #7583A3",
"i#	c #C8C8D7",
"j#	c #C4C4D4",
"k#	c #B8B8CB",
"l#	c #B5B5C8",
"m#	c #B1B1C5",
"n#	c #ADADC2",
"o#	c #A9A9BF",
"p#	c #A5A5BC",
"q#	c #A2A2BA",
"r#	c #50527F",
"s#	c #96A1B9",
"t#	c #7381A2",
"u#	c #6E7C9E",
"v#	c #A8A8C8",
"w#	c #A5A5C5",
"x#	c #A3A3C3",
"y#	c #9F9FC0",
"z#	c #9C9CBD",
"A#	c #9999BB",
"B#	c #9696B8",
"C#	c #9393B6",
"D#	c #9090B3",
"E#	c #8C8CB1",
"F#	c #8989AE",
"G#	c #8686AB",
"H#	c #8484A9",
"I#	c #8181A6",
"J#	c #7D7DA4",
"K#	c #494C7A",
"L#	c #919CB6",
"M#	c #697699",
"N#	c #D2D2DD",
"O#	c #C3C3D5",
"P#	c #C0C0D2",
"Q#	c #BCBCCF",
"R#	c #B8B8CD",
"S#	c #B4B4CA",
"T#	c #B1B1C7",
"U#	c #ADADC4",
"V#	c #A9A9C1",
"W#	c #A6A6BF",
"X#	c #A2A2BC",
"Y#	c #9E9EB9",
"Z#	c #9B9BB6",
"`#	c #9797B3",
" $	c #9494B1",
".$	c #9090AE",
"+$	c #444776",
"@$	c #8D97B2",
"#$	c #677598",
"$$	c #637194",
"%$	c #C9C9D7",
"&$	c #C5C5D4",
"*$	c #C1C1D1",
"=$	c #BDBDCE",
"-$	c #B9B9CB",
";$	c #B5B5C9",
">$	c #B1B1C6",
",$	c #AAAAC0",
"'$	c #A6A6BD",
")$	c #9B9BB4",
"!$	c #9393AF",
"~$	c #3E3E70",
"{$	c #8184A1",
"]$	c #595C82",
"^$	c #54587E",
"/$	c #AAAAB6",
"($	c #A7A7B4",
"_$	c #A3A3B1",
":$	c #A0A0AF",
"<$	c #9D9DAC",
"[$	c #9999AA",
"}$	c #9696A8",
"|$	c #9393A5",
"1$	c #8F8FA2",
"2$	c #8C8CA0",
"3$	c #89899E",
"4$	c #86869B",
"5$	c #838399",
"6$	c #7F7F96",
"7$	c #7C7C94",
"8$	c #797991",
"9$	c #2F2F64",
"0$	c #202058",
"a$	c #2A2A5E",
"b$	c #27275C",
"c$	c #26265B",
"d$	c #25255A",
"e$	c #24245A",
"f$	c #232359",
"g$	c #222258",
"h$	c #212158",
"i$	c #202057",
"j$	c #202056",
"k$	c #1F1F56",
"l$	c #1E1E55",
"m$	c #1D1D55",
"n$	c #1C1C54",
"              . + @ # $ % & * = - ; > , ' ) ! ~ { ] ^ / ( _     ",
"            : < [ } | | 1 1 1 1 | | | | | | | | | | | | 2 3 4   ",
"            5 6 7 8 | | 9 0 a b | | | | | | | | | | | | c d e f ",
"            g h 1 i | | j k l m | | | | | | | | | | | | n o p q ",
"            r s t u | | v w x o | | | | | | | | | | | | y z A B ",
"            C D E F | | b G H I | | | | | | | | | | | | J K L M ",
"  . + @ # $ % & * = - ; > , ' ) ! ~ { ] ^ / ( _ | | | | N O P Q ",
": < [ } | | 1 1 1 1 | | | | | | | | | | | | 2 3 4 | R S T U V W ",
"5 6 7 8 | | 9 0 a b | | | | | | | | | | | | c d e f X Y Z `  ...",
"g h 1 i | | j k l m | | | | | | | | | | | | n o p q +.@.#.$.%.&.",
"r s t u | | v w x o | | | | | | | | | | | | y z A B *.=.-.;.>.,.",
"C D E F | | b G H I | | | | | | | | | | | | J K L M '.).!.~.{.].",
"^./.(._.| | :.<.[.}.| | | | | | | | | | | | N O P Q |.1.2.3.4.5.",
"6.7.8.9.| | | | | | | | | | | | | | | | R S T U V W 0.a.b.c.d.e.",
"f.g.h.i.j.k.l./.8 7.m.g.n.o.p.q.(.r._.s.X Y Z `  ...t.u.v.w.x.y.",
"z.}.A.B.C.D.E.F.G.H.I.J.K.L.d M.N.O.P.Q.+.@.#.$.%.&.R.S.T.U.V.W.",
"X.Y.Z.`. +.+++@+#+$+%+&+*+n o G =+-+;+>+*.=.-.;.>.,.,+'+)+!+~+{+",
"]+r.^+/+(+_+:+<+[+}+|+1+2+3+4+5+6+T 7+8+'.).!.~.{.].9+0+a+b+c+d+",
"e+f+g+h+i+j+2 Z.k+l+m+n+o+p+q+r+s+t+u+v+|.1.2.3.4.5.w+x+y+z+A+B+",
"C+9.F.@+| | | D+E+F+S G+H+I+J+K+L+M+N+O+0.a.b.c.d.e.P+Q+R+S+T+U+",
"V+W+:+#+| | X+Y+Z+`+ @.@+@@@#@$@%@&@*@=@t.u.v.w.x.y.-@;@>@,@'@)@",
"!@2 <+[+~@{@]@^@/@(@_@:@<@[@}@|@1@2@3@4@R.S.T.U.V.W.5@6@7@8@9@0@",
"a@<.b@c@d@e@f@g@h@i@j@k@l@m@n@o@p@q@r@s@,+'+)+!+~+{+t@u@v@w@x@y@",
"z@`.&+A@B@C@D@E@F@G@H@I@J@K@L@M@N@O@P@Q@9+0+a+b+c+d+R@S@T@U@V@W@",
"X@Y@Z@`@ #.#+#@###$#%#&#*#=#-#;#>#,#'#)#w+x+y+z+A+B+!#~#{#]#^#/#",
"(#F._#:#(@<#[#}#|#1#2#3#4#5#6#7#8#9#0#a#P+Q+R+S+T+U+b#c#d#d#/#  ",
"e#f#g#h#I+J+K+L+M+i#j#0.a.k#l#m#n#o#p#q#-@;@>@,@'@)@            ",
"r#s#t#u#@@v#w#x#y#z#A#B#C#D#E#F#G#H#I#J#5@6@7@8@9@0@            ",
"K#L#6+M#N#O#P#Q#R#S#T#U#V#W#X#Y#Z#`# $.$t@u@v@w@x@y@            ",
"+$@$#$$$}@%$&$*$=$-$;$>$'+,$'$q#Q+)$& !$R@S@T@U@V@W@            ",
"~${$]$^$/$($_$:$<$[$}$|$1$2$3$4$5$6$7$8$!#~#{#]#^#/#            ",
"  9$0$B a$b$b$c$d$e$f$f$g$h$i$j$k$l$m$n$b#c#d#d#/#              "};
