/* XPM */
static char * select_all_xpm[] = {
"32 32 17 1",
" 	c None",
".	c #000000",
"+	c #000CAF",
"@	c #000BA5",
"#	c #000ED1",
"$	c #000EC6",
"%	c #00098B",
"&	c #000984",
"*	c #000BAD",
"=	c #000BAE",
"-	c #000772",
";	c #000DCF",
">	c #000DD0",
",	c #000989",
"'	c #000889",
")	c #00088A",
"!	c #00065B",
"                                ",
"                                ",
"                                ",
"                                ",
"   .+++++++++++++++++++++++@.   ",
"   .#######################$.   ",
"   .#######################$.   ",
"   .%%%%%%%%%%%%%%%%%%%%%%%&.   ",
"                                ",
"                                ",
"   .+++++++++++++++++++++++@.   ",
"   .#######################$.   ",
"   .#######################$.   ",
"   .%%%%%%%%%%%%%%%%%%%%%%%&.   ",
"                                ",
"                                ",
"        .*==================-   ",
"        .;>>>>>>>>>>>>>>>>>>,   ",
"        .;>>>>>>>>>>>>>>>>>>,   ",
"        .'))))))))))))))))))!   ",
"                                ",
"                                ",
"   .+++++++++++++++++++++++@.   ",
"   .#######################$.   ",
"   .#######################$.   ",
"   .%%%%%%%%%%%%%%%%%%%%%%%&.   ",
"                                ",
"                                ",
"                                ",
"                                ",
"                                ",
"                                "};
