/* XPM */
static char * show_less_xpm[] = {
"24 24 14 1",
" 	c None",
".	c #FF0000",
"+	c #000000",
"@	c #F4F4F8",
"#	c #F4F3F7",
"$	c #F2F1F5",
"%	c #EFEEF2",
"&	c #F5F4F8",
"*	c #F3F2F6",
"=	c #78748B",
"-	c #757187",
";	c #79758C",
">	c #767288",
",	c #7C778F",
"                        ",
"                        ",
"                        ",
"                        ",
"                        ",
"              ....      ",
"      ++     .....    ++",
"     + +    ......   + +",
"    +  +   .......  +  +",
"   +       ......  +    ",
"  +      ........ +     ",
" +++++++.......+++      ",
"+@#$%  .......&  +      ",
"+ **  ........   +      ",
"+=    ......    -+      ",
" +; ........>  ,+       ",
"  ++......  +++++       ",
"   .......              ",
"   ......               ",
"   ....                 ",
"                        ",
"                        ",
"                        ",
"                        "};
