/* XPM */
static char * show_more_xpm[] = {
"24 24 15 1",
" 	c None",
".	c #000000",
"+	c #F4F4F8",
"@	c #F4F3F7",
"#	c #F2F1F5",
"$	c #EFEEF2",
"%	c #F5F4F8",
"&	c #F3F2F6",
"*	c #78748B",
"=	c #7F7B93",
"-	c #757187",
";	c #79758C",
">	c #767289",
",	c #767288",
"'	c #7C778F",
"                        ",
"                        ",
"                        ",
"                        ",
"                        ",
"                        ",
"      ..              ..",
"     . .             . .",
"    .  .            .  .",
"   .               .    ",
"  .               .     ",
" .................      ",
".+@#$  .  .%%%%  .      ",
". &&   .  . %%   .      ",
".*    =.  .-    -.      ",
" .;  >..   .,  '.       ",
"  .....     .....       ",
"                        ",
"                        ",
"                        ",
"                        ",
"                        ",
"                        ",
"                        "};
