/* XPM */
static char * text_under_xpm[] = {
"32 31 373 2",
"  	c None",
". 	c #E8CF0E",
"+ 	c #EAD10D",
"@ 	c #EAD00C",
"# 	c #EACE0C",
"$ 	c #EACC0C",
"% 	c #EACA0C",
"& 	c #EAC90C",
"* 	c #EAC80C",
"= 	c #EAC70C",
"- 	c #EAC50C",
"; 	c #EAC40C",
"> 	c #EAC30C",
", 	c #EAC10C",
"' 	c #EAC00C",
") 	c #EABE0C",
"! 	c #EABD0C",
"~ 	c #EABC0C",
"{ 	c #EABA0C",
"] 	c #EAB90C",
"^ 	c #EAB80D",
"/ 	c #E8B40E",
"( 	c #EBD60B",
"_ 	c #EFDA09",
": 	c #EFD909",
"< 	c #EFD809",
"[ 	c #EFD609",
"} 	c #EFD409",
"| 	c #EFD209",
"1 	c #EFD009",
"2 	c #EFCF09",
"3 	c #EFCE09",
"4 	c #EFCC09",
"5 	c #EFCA09",
"6 	c #EFC809",
"7 	c #EFC609",
"8 	c #EFC509",
"9 	c #EFC409",
"0 	c #EFC209",
"a 	c #EFC109",
"b 	c #EFBF09",
"c 	c #EFBE09",
"d 	c #EFBC09",
"e 	c #EFBB09",
"f 	c #EFB909",
"g 	c #EBB40B",
"h 	c #EEDA0A",
"i 	c #EFC909",
"j 	c #EFB809",
"k 	c #EFB709",
"l 	c #EEB40A",
"m 	c #EBD60C",
"n 	c #EED80F",
"o 	c #EEDC68",
"p 	c #EFE39B",
"q 	c #F0E4AB",
"r 	c #F0E3AB",
"s 	c #F0E4AC",
"t 	c #F0E2AB",
"u 	c #F0E1AB",
"v 	c #F0E0AA",
"w 	c #EFE0AA",
"x 	c #F0DFAA",
"y 	c #EFDEAA",
"z 	c #EFDDAA",
"A 	c #EFD99B",
"B 	c #ECCA66",
"C 	c #EEB70F",
"D 	c #EFB509",
"E 	c #EFB309",
"F 	c #EBAF0C",
"G 	c #EED80E",
"H 	c #EFE5B6",
"I 	c #F5F5F5",
"J 	c #F6F6F6",
"K 	c #F7F6F6",
"L 	c #F6F5F5",
"M 	c #F4F4F4",
"N 	c #EFEFEF",
"O 	c #E7D6AE",
"P 	c #EEB40E",
"Q 	c #EFB209",
"R 	c #EFB109",
"S 	c #E7CE0E",
"T 	c #EEDC62",
"U 	c #E9E8E8",
"V 	c #E8E7E7",
"W 	c #E7E6E6",
"X 	c #E9C15C",
"Y 	c #EFAF09",
"Z 	c #E7A60E",
"` 	c #E9CF0D",
" .	c #EEE297",
"..	c #ECECEC",
"+.	c #E9E9E9",
"@.	c #E7CC8F",
"#.	c #EFAE09",
"$.	c #E9A70D",
"%.	c #EFE4AA",
"&.	c #A2A2A2",
"*.	c #A0A0A0",
"=.	c #A09F9F",
"-.	c #9F9E9E",
";.	c #9E9E9E",
">.	c #B0B0B0",
",.	c #E8E8E8",
"'.	c #999999",
").	c #979797",
"!.	c #919191",
"~.	c #7D7D7D",
"{.	c #949393",
"].	c #EBEAEA",
"^.	c #EAEAEA",
"/.	c #E7D2A1",
"(.	c #EFAD09",
"_.	c #E9A60D",
":.	c #E9CD0D",
"<.	c #EFD309",
"[.	c #E7E7E7",
"}.	c #7B7B7B",
"|.	c #555555",
"1.	c #3F3F3F",
"2.	c #3D3D3D",
"3.	c #616161",
"4.	c #9A9A9A",
"5.	c #E3E3E3",
"6.	c #656565",
"7.	c #333333",
"8.	c #010101",
"9.	c #272727",
"0.	c #737373",
"a.	c #ECEBEB",
"b.	c #EBEBEB",
"c.	c #E8D3A3",
"d.	c #EFAB09",
"e.	c #E9A40D",
"f.	c #E9CC0D",
"g.	c #EFE3A9",
"h.	c #797979",
"i.	c #3E3E3E",
"j.	c #505050",
"k.	c #4A4A4A",
"l.	c #161616",
"m.	c #DBDADA",
"n.	c #EDEDED",
"o.	c #EDECEC",
"p.	c #EFA909",
"q.	c #E9A30D",
"r.	c #E9CA0D",
"s.	c #EEE2A9",
"t.	c #3C3C3C",
"u.	c #606060",
"v.	c #F0F0F0",
"w.	c #565656",
"x.	c #303030",
"y.	c #EEEEEE",
"z.	c #EAD3A4",
"A.	c #EFA809",
"B.	c #E9A20D",
"C.	c #E9C90D",
"D.	c #F5F4F4",
"E.	c #454545",
"F.	c #6B6B6B",
"G.	c #575656",
"H.	c #424242",
"I.	c #F0EFEF",
"J.	c #EBD4A5",
"K.	c #EFA709",
"L.	c #E9A00D",
"M.	c #E9C80D",
"N.	c #EFCD09",
"O.	c #EEE1A9",
"P.	c #757575",
"Q.	c #4E4E4E",
"R.	c #F7F7F7",
"S.	c #535353",
"T.	c #4F4F4F",
"U.	c #F1F0F0",
"V.	c #F1F1F1",
"W.	c #EBD4A6",
"X.	c #EFA509",
"Y.	c #E99F0D",
"Z.	c #E9C60D",
"`.	c #EFCB09",
" +	c #747474",
".+	c #595959",
"++	c #7C7C7C",
"@+	c #F4F3F3",
"#+	c #5A5A5A",
"$+	c #F2F2F2",
"%+	c #F2F1F1",
"&+	c #ECD4A7",
"*+	c #EFA409",
"=+	c #E99D0D",
"-+	c #E9C50D",
";+	c #EEE0A9",
">+	c #626262",
",+	c #828282",
"'+	c #646464",
")+	c #F3F3F3",
"!+	c #F3F2F2",
"~+	c #EDD4A8",
"{+	c #EFA209",
"]+	c #E99C0D",
"^+	c #E9C30D",
"/+	c #EDDFA9",
"(+	c #6D6D6D",
"_+	c #888888",
":+	c #515151",
"<+	c #6E6E6E",
"[+	c #EDD5A9",
"}+	c #EFA009",
"|+	c #E99B0D",
"1+	c #EFC709",
"2+	c #777777",
"3+	c #898989",
"4+	c #A1A1A1",
"5+	c #EED5A9",
"6+	c #EF9F09",
"7+	c #E99A0D",
"8+	c #E9C10D",
"9+	c #EDDEA9",
"0+	c #7F7F7F",
"a+	c #818181",
"b+	c #868686",
"c+	c #B7B7B7",
"d+	c #585858",
"e+	c #EFD5A9",
"f+	c #EF9E09",
"g+	c #E9980D",
"h+	c #E9C00D",
"i+	c #EDDDA9",
"j+	c #838383",
"k+	c #8B8B8B",
"l+	c #696969",
"m+	c #F8F8F8",
"n+	c #F0D6AA",
"o+	c #EF9C09",
"p+	c #E9970D",
"q+	c #E9BE0D",
"r+	c #EFC309",
"s+	c #939393",
"t+	c #959595",
"u+	c #909090",
"v+	c #DCDCDC",
"w+	c #F9F8F8",
"x+	c #F9F9F9",
"y+	c #FAF9F9",
"z+	c #FAFAFA",
"A+	c #F0D6AB",
"B+	c #EF9A09",
"C+	c #E9960D",
"D+	c #E9BD0D",
"E+	c #EDDCA8",
"F+	c #979696",
"G+	c #8C8C8C",
"H+	c #8A8A8A",
"I+	c #707070",
"J+	c #AFAEAE",
"K+	c #FBFBFB",
"L+	c #E9940D",
"M+	c #E9BC0D",
"N+	c #EFC009",
"O+	c #A6A6A6",
"P+	c #808080",
"Q+	c #929191",
"R+	c #D0D0D0",
"S+	c #FCFCFC",
"T+	c #F1D6AC",
"U+	c #EF9809",
"V+	c #E9930D",
"W+	c #E9BA0D",
"X+	c #EDDBA7",
"Y+	c #FDFDFD",
"Z+	c #EF9609",
"`+	c #E9910D",
" @	c #E9B90D",
".@	c #EFBD09",
"+@	c #ECDAA7",
"@@	c #E0E0E0",
"#@	c #DEDEDE",
"$@	c #D3D2D2",
"%@	c #CACACA",
"&@	c #CBCBCB",
"*@	c #CCCCCC",
"=@	c #CDCCCC",
"-@	c #CECECE",
";@	c #CFCFCF",
">@	c #D1D1D1",
",@	c #D2D2D2",
"'@	c #D3D3D3",
")@	c #D4D4D4",
"!@	c #FEFEFE",
"~@	c #F2D6AC",
"{@	c #EF9509",
"]@	c #E9900D",
"^@	c #E9B70D",
"/@	c #EBD493",
"(@	c #727272",
"_@	c #202020",
":@	c #000000",
"<@	c #FBFAFA",
"[@	c #F0CD98",
"}@	c #EF9309",
"|@	c #E98F0D",
"1@	c #E7B40E",
"2@	c #EFBA09",
"3@	c #EBC95F",
"4@	c #EEEDED",
"5@	c #EFEEEE",
"6@	c #FCFBFB",
"7@	c #EFB763",
"8@	c #EF9209",
"9@	c #E78C0E",
"0@	c #EEB70E",
"a@	c #E4D3AA",
"b@	c #EAE9E9",
"c@	c #F0D9B8",
"d@	c #EE950E",
"e@	c #EF9109",
"f@	c #EBB40C",
"g@	c #EFB609",
"h@	c #EEB50F",
"i@	c #E7C261",
"j@	c #E7CE93",
"k@	c #E7D2A2",
"l@	c #E7D2A3",
"m@	c #E8D3A4",
"n@	c #E9D3A4",
"o@	c #EAD4A5",
"p@	c #EBD5A6",
"q@	c #ECD5A7",
"r@	c #EDD5A8",
"s@	c #EFD6A9",
"t@	c #F0D7AC",
"u@	c #F1D7AD",
"v@	c #F0D09D",
"w@	c #EFB868",
"x@	c #EE950F",
"y@	c #EB8D0C",
"z@	c #EEB50A",
"A@	c #EFB409",
"B@	c #EFB009",
"C@	c #EFAC09",
"D@	c #EFAA09",
"E@	c #EFA609",
"F@	c #EFA309",
"G@	c #EF9909",
"H@	c #EE8E0A",
"I@	c #EBAF0B",
"J@	c #EF9D09",
"K@	c #EB8D0B",
"L@	c #E8A80E",
"M@	c #EAA80D",
"N@	c #EAA70C",
"O@	c #EAA60C",
"P@	c #EAA40C",
"Q@	c #EAA30C",
"R@	c #EAA20C",
"S@	c #EAA00C",
"T@	c #EA9F0C",
"U@	c #EA9E0C",
"V@	c #EA9C0C",
"W@	c #EA9B0C",
"X@	c #EA990C",
"Y@	c #EA970C",
"Z@	c #EA960C",
"`@	c #EA940C",
" #	c #EA930C",
".#	c #EA920C",
"+#	c #EA900C",
"@#	c #EA8F0D",
"##	c #E88D0E",
"          . + @ # # $ % & * = - ; > , ' ) ! ~ { ] ^ /           ",
"      ( _ : < [ } } | 1 2 3 4 5 5 6 7 8 9 0 a b c d e f g       ",
"    h _ : < [ } } | 1 2 3 4 5 i 6 7 8 9 0 a b c d e f j k l     ",
"  m _ : n o p q q r s r t t t t u v w x x y y y z A B C D E F   ",
"  _ : G H I J J J K J K J J J J L J L L J I L I I M N O P Q R   ",
"S : < T J J J J J J J J J J J L L J L J J L L I N U V W X R Y Z ",
"` < [  .J J J J J J J J J J L J J J J J J L M ..+.+.+.U @.Y #.$.",
"` [ } %.J J L L J +.&.*.=.-.;.>.J J ,.'.).!.~.{.].].^.^./.#.(._.",
":.} <.%.J I I L J [.}.|.1.2.3.4.J J 5.6.7.8.9.0.a.a.a.b.c.(.d.e.",
"f.<.| g.L I I I I J J h.i.j.^.J K J J I k.l.m.n.n.n.o.o.c.d.p.q.",
"r.| 1 s.I I I I I J J ~.t.u.J J K J J v.w.x.y.y.y.y.y.y.z.p.A.B.",
"C.1 2 s.I I D.I I L I h.E.F.J J J J M y.G.H.N I.I.I.N N J.A.K.L.",
"M.2 N.O.I D.D.I L L I P.Q.0.J R.J J N I.S.T.U.U.V.U.U.v.W.K.X.Y.",
"Z.N.`.O.I M M I I I I  +.+++J J J @+v.U.j.#+$+$+$+$+$+%+&+X.*+=+",
"-+`.5 ;+M M M I I I I 0.>+,+J J J U.V.$+T.'+)+)+)+)+)+!+~+*+{+]+",
"^+5 i /+M M D.D.I I I P.(+_+J K D.V.$+)+:+<+M D.D.D.M M [+{+}+|+",
"^+i 1+/+M @+M I I M I h.2+3+J K %+$+)+N T.4+L J J J L I 5+}+6+7+",
"8+1+7 9+)+)+M D.M D.I 0+a+b+J M $+)+M c+d++.R.R.R.R.R.J e+6+f+g+",
"h+7 8 i+)+)+@+M M M I j+k+b+J $+)+M I l+l+R.m+m+m+m+m+R.n+f+o+p+",
"q+8 r+i+)+)+M M M D.D.>.s+t+u+W @+v+~.F.;.w+x+y+z+x+x+m+A+o+B+C+",
"D+r+a E+$+)+)+M @+M I I F+G+H+,+h.h.I+J+w+x+z+K+K+K+z+x+A+B+B+L+",
"M+a N+E+$+$+)+)+)+M M I D.v+O+P+Q+R+I m+x+z+K+S+S+S+K+z+T+B+U+V+",
"W+N+b X+V.$+!+)+)+M D.I V.V.$+@+I J R.m+y+K+S+Y+Y+Y+S+K+T+U+Z+`+",
" @b .@+@V.V.!+!+)+@@#@$@%@&@*@=@-@;@R+>@,@'@)@S+!@Y+S+K+~@Z+{@]@",
"^@.@d /@v.V.$+$+$+(@_@:@:@:@:@:@:@:@:@:@:@:@:@I Y+Y+S+<@[@{@}@|@",
"1@d 2@3@N V.V.I.4@..n.5@I.V.$+)+M L R.m+x+z+K+S+S+6@K+x+7@}@8@9@",
"  2@j 0@a@[.,.b@].a.n.y.N U.%+)+M I J R.m+x+z+z+<@z+x+c@d@8@e@  ",
"  f@k g@h@i@j@k@l@m@n@o@W.p@q@r@5+s@n+A+t@t@u@u@u@v@w@x@8@e@y@  ",
"    z@A@Q Q B@#.#.C@D@p.A.E@*+F@{+}+6+f+o+B+G@U+Z+{@}@8@e@H@    ",
"      I@Q B@#.#.C@D@p.A.E@*+F@{+}+6+J@o+B+G@U+Z+{@}@8@e@K@      ",
"          L@M@N@O@P@Q@R@S@T@U@V@W@X@X@Y@Z@`@ #.#+#@###          "};
