/* XPM */
static char * text_italic_xpm[] = {
"32 31 331 2",
"  	c None",
". 	c #EAD20C",
"+ 	c #EBD30C",
"@ 	c #EBD20B",
"# 	c #EBD00B",
"$ 	c #EBCE0B",
"% 	c #EBCC0B",
"& 	c #EBCB0B",
"* 	c #EBCA0B",
"= 	c #EBC80B",
"- 	c #EBC70B",
"; 	c #EBC50B",
"> 	c #EBC30B",
", 	c #EBC10B",
"' 	c #EBC00B",
") 	c #EBBF0B",
"! 	c #EBBE0B",
"~ 	c #EBBC0B",
"{ 	c #EBBA0B",
"] 	c #EBB90C",
"^ 	c #EBB80C",
"/ 	c #ECD70B",
"( 	c #EFDA09",
"_ 	c #EFD909",
": 	c #EFD809",
"< 	c #EFD609",
"[ 	c #EFD409",
"} 	c #EFD209",
"| 	c #EFD009",
"1 	c #EFCF09",
"2 	c #EFCE09",
"3 	c #EFCC09",
"4 	c #EFCA09",
"5 	c #EFC809",
"6 	c #EFC609",
"7 	c #EFC509",
"8 	c #EFC409",
"9 	c #EFC209",
"0 	c #EFC109",
"a 	c #EFBF09",
"b 	c #EFBE09",
"c 	c #EFBC09",
"d 	c #EFBB09",
"e 	c #EFB909",
"f 	c #EEB70A",
"g 	c #EEDA0A",
"h 	c #EFC909",
"i 	c #EFB809",
"j 	c #EFB709",
"k 	c #EFB509",
"l 	c #EBD50C",
"m 	c #EED811",
"n 	c #EDDD70",
"o 	c #EFE4AB",
"p 	c #F0E6C0",
"q 	c #F0E5C0",
"r 	c #F0E6C1",
"s 	c #F0E4C0",
"t 	c #EFE4C0",
"u 	c #EFE3C0",
"v 	c #EFE2BF",
"w 	c #EFE2C0",
"x 	c #EEE2BF",
"y 	c #EEE1BF",
"z 	c #EEDCB0",
"A 	c #EBCE7B",
"B 	c #EEB91A",
"C 	c #EFB309",
"D 	c #EEB10A",
"E 	c #EED80C",
"F 	c #EFE5B5",
"G 	c #F5F5F5",
"H 	c #F6F6F6",
"I 	c #F7F6F6",
"J 	c #F6F5F5",
"K 	c #F4F4F4",
"L 	c #EFEEEE",
"M 	c #E5D9C1",
"N 	c #EEB518",
"O 	c #EFB209",
"P 	c #EFB109",
"Q 	c #EEDB5A",
"R 	c #EEEEEE",
"S 	c #E8E8E8",
"T 	c #E8E7E7",
"U 	c #E7E6E6",
"V 	c #E6C573",
"W 	c #EFAF09",
"X 	c #EBA90C",
"Y 	c #E7CC0E",
"Z 	c #EFE188",
"` 	c #DBDBDB",
" .	c #9E9E9E",
"..	c #9D9D9D",
"+.	c #CFCFCF",
"@.	c #EBEBEB",
"#.	c #E9E9E9",
"$.	c #E5D0A0",
"%.	c #EFAE09",
"&.	c #E8CC0E",
"*.	c #F0E396",
"=.	c #A9A9A9",
"-.	c #3A3A3A",
";.	c #383838",
">.	c #B4B4B4",
",.	c #F3F3F3",
"'.	c #ECEBEB",
").	c #EBEAEA",
"!.	c #EAEAEA",
"~.	c #E5D4AF",
"{.	c #EFAD09",
"].	c #EBA80B",
"^.	c #E8CB0E",
"/.	c #EFD309",
"(.	c #909090",
"_.	c #393939",
":.	c #373737",
"<.	c #CDCDCD",
"[.	c #E6D5B0",
"}.	c #EFAB09",
"|.	c #EBA60B",
"1.	c #E8C90E",
"2.	c #F0E195",
"3.	c #777777",
"4.	c #353535",
"5.	c #E6E6E6",
"6.	c #EDEDED",
"7.	c #EDECEC",
"8.	c #E8D5B1",
"9.	c #EFA909",
"0.	c #EBA40B",
"a.	c #E8C80E",
"b.	c #EFE195",
"c.	c #5D5D5D",
"d.	c #363636",
"e.	c #3C3C3C",
"f.	c #F1F1F1",
"g.	c #EEEDED",
"h.	c #E9D6B2",
"i.	c #EFA809",
"j.	c #E8C70E",
"k.	c #EFE095",
"l.	c #F5F4F4",
"m.	c #444444",
"n.	c #343434",
"o.	c #575757",
"p.	c #EFEFEF",
"q.	c #F0EFEF",
"r.	c #EAD7B3",
"s.	c #EFA709",
"t.	c #EBA20B",
"u.	c #E8C60E",
"v.	c #EFCD09",
"w.	c #727272",
"x.	c #F0F0F0",
"y.	c #F1F0F0",
"z.	c #EFA509",
"A.	c #EBA10B",
"B.	c #E8C40E",
"C.	c #EFCB09",
"D.	c #EFDE94",
"E.	c #D2D2D2",
"F.	c #414141",
"G.	c #434343",
"H.	c #8C8C8C",
"I.	c #F2F1F1",
"J.	c #F2F2F2",
"K.	c #EBD8B4",
"L.	c #EFA409",
"M.	c #EB9F0B",
"N.	c #E8C30E",
"O.	c #B9B9B9",
"P.	c #494949",
"Q.	c #4C4C4C",
"R.	c #A4A4A4",
"S.	c #ECD8B5",
"T.	c #EFA209",
"U.	c #EB9D0B",
"V.	c #E8C10E",
"W.	c #EEDD94",
"X.	c #515151",
"Y.	c #535353",
"Z.	c #B5B4B4",
"`.	c #F4F3F3",
" +	c #EDD9B6",
".+	c #EFA009",
"++	c #E8C00E",
"@+	c #EFC709",
"#+	c #919191",
"$+	c #595959",
"%+	c #5B5B5B",
"&+	c #CAC9C9",
"*+	c #EDD9B7",
"=+	c #EF9F09",
"-+	c #EB9B0B",
";+	c #E8BF0E",
">+	c #EEDC94",
",+	c #828282",
"'+	c #606060",
")+	c #565656",
"!+	c #F7F7F7",
"~+	c #EEDBB8",
"{+	c #EF9E09",
"]+	c #EB990B",
"^+	c #E8BD0E",
"/+	c #EEDB94",
"(+	c #767676",
"_+	c #686868",
":+	c #F8F8F8",
"<+	c #F9F8F8",
"[+	c #F8F7F7",
"}+	c #EFDBB9",
"|+	c #EF9C09",
"1+	c #EB980B",
"2+	c #E8BC0E",
"3+	c #EFC309",
"4+	c #717171",
"5+	c #646464",
"6+	c #6C6C6C",
"7+	c #F9F9F9",
"8+	c #FAF9F9",
"9+	c #FAFAFA",
"0+	c #F0DCBA",
"a+	c #EF9A09",
"b+	c #EB970B",
"c+	c #E8BB0E",
"d+	c #EED993",
"e+	c #E3E3E3",
"f+	c #737373",
"g+	c #636363",
"h+	c #808080",
"i+	c #FBFBFB",
"j+	c #F1DBBA",
"k+	c #EB960B",
"l+	c #E8BA0E",
"m+	c #EFC009",
"n+	c #EDD993",
"o+	c #CDCCCC",
"p+	c #6B6B6B",
"q+	c #6D6D6D",
"r+	c #929292",
"s+	c #FCFCFC",
"t+	c #F1DCBB",
"u+	c #EF9809",
"v+	c #EB940B",
"w+	c #E8B80E",
"x+	c #EDD892",
"y+	c #F3F2F2",
"z+	c #C0BFBF",
"A+	c #7D7D7D",
"B+	c #B3B3B3",
"C+	c #FDFDFD",
"D+	c #FEFEFE",
"E+	c #EF9609",
"F+	c #EB920B",
"G+	c #E8B70E",
"H+	c #EFBD09",
"I+	c #EDD792",
"J+	c #EF9509",
"K+	c #EB910B",
"L+	c #E7B50E",
"M+	c #ECD27F",
"N+	c #FBFAFA",
"O+	c #FDFCFC",
"P+	c #F0D2A6",
"Q+	c #EF9309",
"R+	c #EB900C",
"S+	c #EFBA09",
"T+	c #EDC54C",
"U+	c #ECECEC",
"V+	c #EFBB70",
"W+	c #EF9209",
"X+	c #EA8E0C",
"Y+	c #E7CE8C",
"Z+	c #E6E5E5",
"`+	c #F0D7B3",
" @	c #EE950F",
".@	c #EF9109",
"+@	c #E8B10D",
"@@	c #EFB609",
"#@	c #EFB409",
"$@	c #EABE47",
"%@	c #E8CB80",
"&@	c #E7D094",
"*@	c #E8D095",
"=@	c #E9D096",
"-@	c #EAD096",
";@	c #EBD097",
">@	c #ECD199",
",@	c #EDD19A",
"'@	c #EED19B",
")@	c #EFD29C",
"!@	c #F0D29C",
"~@	c #F0D29D",
"{@	c #F1D29E",
"]@	c #F1D19E",
"^@	c #F1CB90",
"/@	c #EFB35A",
"(@	c #EE940B",
"_@	c #EC8D0B",
":@	c #EDB30B",
"<@	c #EFB009",
"[@	c #EFAC09",
"}@	c #EFAA09",
"|@	c #EFA609",
"1@	c #EFA309",
"2@	c #EF9909",
"3@	c #EE8E0A",
"4@	c #E9AC0D",
"5@	c #EF9D09",
"6@	c #EB8D0B",
"7@	c #E7A60E",
"8@	c #E8A50E",
"9@	c #E8A40E",
"0@	c #E8A20E",
"a@	c #E8A10E",
"b@	c #E8A00E",
"c@	c #E89E0E",
"d@	c #E89D0E",
"e@	c #E89C0E",
"f@	c #E89B0E",
"g@	c #E8990E",
"h@	c #E8980E",
"i@	c #E8970E",
"j@	c #E8950E",
"k@	c #E8940E",
"l@	c #E8930E",
"m@	c #E8920E",
"n@	c #E8900E",
"o@	c #E88F0E",
"p@	c #E78E0E",
"          . + @ # # $ % & * = - ; ; > , ' ) ! ~ { ] ^           ",
"      / ( _ : < [ [ } | 1 2 3 4 4 5 6 7 8 9 0 a b c d e f       ",
"    g ( _ : < [ [ } | 1 2 3 4 h 5 6 7 8 9 0 a b c d e i j k     ",
"  l ( _ m n o p q q r q s t t u u u v v w x v y y z A B k C D   ",
"  ( _ E F G H H H I H I H H H H J H J J H J J G G K L M N O P   ",
"  _ : Q H H H H H H H H H H H J J H J H H J J G R S T U V P W X ",
"Y : < Z H H H H H H H H H H `  ...+.H H H H K @.#.#.#.#.$.W %.X ",
"&.< [ *.H H J J H H H H H J =.-.;.>.H H H ,.'.).).).).!.~.%.{.].",
"^.[ /.*.H G G J H H H H J J (._.:.<.I H ,.'.'.'.'.'.'.'.[.{.}.|.",
"1./.} 2.J G G G G H H H J J 3.:.4.5.H G 6.7.6.6.6.6.6.7.8.}.9.0.",
"a.} | b.G G G G G H H G J H c.d.e.H H f.g.R R R R R R R h.9.i.0.",
"j.| 1 k.G G l.G G J G G J H m.n.o.H K R p.p.p.q.q.q.q.p.r.i.s.t.",
"u.1 v.k.G l.l.G J J G J J @._.e.w.H p.q.x.x.y.f.f.f.y.x.r.s.z.A.",
"B.v.C.D.G K K G G G G G H E.F.G.H.K x.y.f.I.J.J.J.J.J.I.K.z.L.M.",
"N.C.4 D.K K K l.G G G G H O.P.Q.R.y.f.J.J.,.,.,.,.,.,.,.S.L.T.U.",
"V.4 h W.K K K l.G G G J H R.X.Y.Z.I.J.,.`.K K l.l.l.K K  +T..+U.",
"++h @+W.K `.K G G K G J H #+$+%+&+J.,.K l.G J H H H J G *+.+=+-+",
";+@+6 >+,.,.K l.K l.G H H ,+'+)+5.,.K G H H !+!+!+!+!+H ~+=+{+]+",
"^+6 7 /+,.,.`.K K K G J H (+_+$+,.K G H !+!+:+:+<+:+:+[+}+{+|+1+",
"2+7 3+/+,.,.K K K l.l.H H 4+5+6+`.l.H !+:+<+7+8+9+8+7+<+0+|+a+b+",
"c+3+0 d+J.,.,.K `.K G G e+f+g+h+K G H !+<+7+9+i+i+i+9+7+j+a+a+k+",
"l+0 m+n+J.J.,.,.,.K K G o+p+q+r+K J !+:+7+9+i+s+s+s+i+9+t+a+u+v+",
"w+m+a x+f.J.y+,.,.K K G z+A+h+B+l.H !+:+8+i+s+C+D+C+s+i+t+u+E+F+",
"G+a H+I+f.f.y+y+,.,.K I.x.f.J.`.l.H !+:+8+i+s+C+D+C+s+i+t+E+J+K+",
"L+H+c M+x.f.J.J.J.J.R L q.f.J.,.l.H !+:+7+N+s+O+C+C+s+i+P+J+Q+R+",
"  c S+T+p.f.f.q.g.U+6.R q.y.J.,.K J I :+7+9+i+i+s+i+i+7+V+Q+W+X+",
"  S+i j Y+Z+S #.).'.6.R p.y.I.,.K G H !+:+7+9+9+9+9+7+`+ @W+.@  ",
"  +@j @@#@$@%@&@*@=@-@;@>@>@,@'@'@)@!@!@~@{@]@{@]@^@/@(@W+.@_@  ",
"    :@#@O O <@%.%.[@}@9.i.|@L.1@T..+=+{+|+a+2@u+E+J+Q+W+.@3@    ",
"      4@O <@%.%.[@}@9.i.|@L.1@T..+=+5@|+a+2@u+E+J+Q+W+.@6@      ",
"            7@8@9@0@a@b@c@d@e@f@g@h@i@j@k@l@m@n@o@p@            "};
