/* XPM */
static char * text_strike_xpm[] = {
"32 31 382 2",
"  	c None",
". 	c #E8CF0E",
"+ 	c #EAD10D",
"@ 	c #EAD00C",
"# 	c #EACE0C",
"$ 	c #EACC0C",
"% 	c #EACA0C",
"& 	c #EAC90C",
"* 	c #EAC80C",
"= 	c #EAC70C",
"- 	c #EAC50C",
"; 	c #EAC40C",
"> 	c #EAC30C",
", 	c #EAC10C",
"' 	c #EAC00C",
") 	c #EABE0C",
"! 	c #EABD0C",
"~ 	c #EABC0C",
"{ 	c #EABA0C",
"] 	c #EAB90C",
"^ 	c #EAB80D",
"/ 	c #E8B40E",
"( 	c #EBD60B",
"_ 	c #EFDA09",
": 	c #EFD909",
"< 	c #EFD809",
"[ 	c #EFD609",
"} 	c #EFD409",
"| 	c #EFD209",
"1 	c #EFD009",
"2 	c #EFCF09",
"3 	c #EFCE09",
"4 	c #EFCC09",
"5 	c #EFCA09",
"6 	c #EFC809",
"7 	c #EFC609",
"8 	c #EFC509",
"9 	c #EFC409",
"0 	c #EFC209",
"a 	c #EFC109",
"b 	c #EFBF09",
"c 	c #EFBE09",
"d 	c #EFBC09",
"e 	c #EFBB09",
"f 	c #EFB909",
"g 	c #EBB40B",
"h 	c #EEDA0A",
"i 	c #EFC909",
"j 	c #EFB809",
"k 	c #EFB709",
"l 	c #EEB40A",
"m 	c #EBD60C",
"n 	c #EED80F",
"o 	c #EEDC68",
"p 	c #EFE39B",
"q 	c #F0E4AB",
"r 	c #F0E3AB",
"s 	c #F0E4AC",
"t 	c #F0E2AB",
"u 	c #F0E1AB",
"v 	c #F0E0AA",
"w 	c #EFE0AA",
"x 	c #F0DFAA",
"y 	c #EFDEAA",
"z 	c #EFDDAA",
"A 	c #EFD99B",
"B 	c #ECCA66",
"C 	c #EEB70F",
"D 	c #EFB509",
"E 	c #EFB309",
"F 	c #EBAF0C",
"G 	c #EED80E",
"H 	c #EFE5B6",
"I 	c #F5F5F5",
"J 	c #F6F6F6",
"K 	c #F7F6F6",
"L 	c #F6F5F5",
"M 	c #F4F4F4",
"N 	c #EFEFEF",
"O 	c #E7D6AE",
"P 	c #EEB40E",
"Q 	c #EFB209",
"R 	c #EFB109",
"S 	c #E7CE0E",
"T 	c #EEDC62",
"U 	c #E5E5E5",
"V 	c #D7D7D7",
"W 	c #D5D5D5",
"X 	c #D4D4D4",
"Y 	c #D3D3D3",
"Z 	c #D8D8D8",
"` 	c #EEEDED",
" .	c #E9E8E8",
"..	c #E8E7E7",
"+.	c #E7E6E6",
"@.	c #E9C15C",
"#.	c #EFAF09",
"$.	c #E7A60E",
"%.	c #E9CF0D",
"&.	c #EEE297",
"*.	c #E3E3E3",
"=.	c #E0E0E0",
"-.	c #DFDFDF",
";.	c #DEDEDE",
">.	c #DDDDDD",
",.	c #949494",
"'.	c #E9E9E9",
").	c #E7CC8F",
"!.	c #EFAE09",
"~.	c #E9A70D",
"{.	c #EFE4AA",
"].	c #DFDEDE",
"^.	c #DADADA",
"/.	c #DCDCDC",
"(.	c #D2D2D2",
"_.	c #D0D0D0",
":.	c #CFCFCF",
"<.	c #CDCDCD",
"[.	c #C6C6C6",
"}.	c #A7A7A7",
"|.	c #858484",
"1.	c #EBEAEA",
"2.	c #EAEAEA",
"3.	c #E7D2A1",
"4.	c #EFAD09",
"5.	c #E9A60D",
"6.	c #E9CD0D",
"7.	c #EFD309",
"8.	c #F3F3F3",
"9.	c #DBDBDB",
"0.	c #8F8F8F",
"a.	c #909090",
"b.	c #ECEBEB",
"c.	c #EBEBEB",
"d.	c #E8D3A3",
"e.	c #EFAB09",
"f.	c #E9A40D",
"g.	c #E9CC0D",
"h.	c #EFE3A9",
"i.	c #EDEDED",
"j.	c #EDECEC",
"k.	c #EFA909",
"l.	c #E9A30D",
"m.	c #E9CA0D",
"n.	c #EEE2A9",
"o.	c #D1D1D1",
"p.	c #CECECE",
"q.	c #F0F0F0",
"r.	c #EEEEEE",
"s.	c #EAD3A4",
"t.	c #EFA809",
"u.	c #E9A20D",
"v.	c #E9C90D",
"w.	c #F5F4F4",
"x.	c #C9C9C9",
"y.	c #C7C7C7",
"z.	c #C4C4C4",
"A.	c #E7E7E7",
"B.	c #EFEEEE",
"C.	c #F0EFEF",
"D.	c #EBD4A5",
"E.	c #EFA709",
"F.	c #E9A00D",
"G.	c #E9C80D",
"H.	c #EFCD09",
"I.	c #EEE1A9",
"J.	c #C2C2C2",
"K.	c #C1C1C1",
"L.	c #C0C0C0",
"M.	c #BFBFBF",
"N.	c #BDBDBD",
"O.	c #BEBEBE",
"P.	c #919191",
"Q.	c #CECDCD",
"R.	c #F1F0F0",
"S.	c #F1F1F1",
"T.	c #EBD4A6",
"U.	c #EFA509",
"V.	c #E99F0D",
"W.	c #E9C60D",
"X.	c #EFCB09",
"Y.	c #BCBCBC",
"Z.	c #B9B9B9",
"`.	c #B7B7B7",
" +	c #666666",
".+	c #676767",
"++	c #696969",
"@+	c #868585",
"#+	c #ECECEC",
"$+	c #F2F2F2",
"%+	c #F2F1F1",
"&+	c #ECD4A7",
"*+	c #EFA409",
"=+	c #E99D0D",
"-+	c #E9C50D",
";+	c #EEE0A9",
">+	c #CACACA",
",+	c #C3C3C3",
"'+	c #BBBBBB",
")+	c #B5B5B5",
"!+	c #737373",
"~+	c #686868",
"{+	c #646464",
"]+	c #616161",
"^+	c #F3F2F2",
"/+	c #EDD4A8",
"(+	c #EFA209",
"_+	c #E99C0D",
":+	c #E9C30D",
"<+	c #EDDFA9",
"[+	c #BBBABA",
"}+	c #B6B6B6",
"|+	c #B3B3B3",
"1+	c #B1B1B1",
"2+	c #8E8E8E",
"3+	c #595959",
"4+	c #404040",
"5+	c #2F2F2F",
"6+	c #282828",
"7+	c #262626",
"8+	c #252525",
"9+	c #717070",
"0+	c #EDD5A9",
"a+	c #EFA009",
"b+	c #E99B0D",
"c+	c #EFC709",
"d+	c #F4F3F3",
"e+	c #8A8989",
"f+	c #4C4C4C",
"g+	c #EED5A9",
"h+	c #EF9F09",
"i+	c #E99A0D",
"j+	c #E9C10D",
"k+	c #EDDEA9",
"l+	c #454545",
"m+	c #434343",
"n+	c #5D5D5D",
"o+	c #F7F7F7",
"p+	c #EFD5A9",
"q+	c #EF9E09",
"r+	c #E9980D",
"s+	c #E9C00D",
"t+	c #EDDDA9",
"u+	c #A8A8A8",
"v+	c #393939",
"w+	c #F8F8F8",
"x+	c #F0D6AA",
"y+	c #EF9C09",
"z+	c #E9970D",
"A+	c #E9BE0D",
"B+	c #EFC309",
"C+	c #E1E0E0",
"D+	c #A2A2A2",
"E+	c #303030",
"F+	c #969595",
"G+	c #FAFAFA",
"H+	c #F9F9F9",
"I+	c #F0D6AB",
"J+	c #EF9A09",
"K+	c #E9960D",
"L+	c #E9BD0D",
"M+	c #EDDCA8",
"N+	c #878787",
"O+	c #858585",
"P+	c #606060",
"Q+	c #767676",
"R+	c #7D7D7D",
"S+	c #727272",
"T+	c #5C5C5C",
"U+	c #363636",
"V+	c #565656",
"W+	c #FBFBFB",
"X+	c #E9940D",
"Y+	c #E9BC0D",
"Z+	c #EFC009",
"`+	c #CBCBCB",
" @	c #797979",
".@	c #272727",
"+@	c #181818",
"@@	c #191919",
"#@	c #1A1A1A",
"$@	c #1B1B1B",
"%@	c #2D2D2D",
"&@	c #6C6C6C",
"*@	c #FCFCFC",
"=@	c #F1D6AC",
"-@	c #EF9809",
";@	c #E9930D",
">@	c #E9BA0D",
",@	c #EDDBA7",
"'@	c #757575",
")@	c #5F5F5F",
"!@	c #505050",
"~@	c #4E4E4E",
"{@	c #545454",
"]@	c #636363",
"^@	c #868686",
"/@	c #E5E4E4",
"(@	c #FDFDFD",
"_@	c #EF9609",
":@	c #E9910D",
"<@	c #E9B90D",
"[@	c #EFBD09",
"}@	c #ECDAA7",
"|@	c #F9F8F8",
"1@	c #FEFEFE",
"2@	c #F2D6AC",
"3@	c #EF9509",
"4@	c #E9900D",
"5@	c #E9B70D",
"6@	c #EBD493",
"7@	c #FBFAFA",
"8@	c #F0CD98",
"9@	c #EF9309",
"0@	c #E98F0D",
"a@	c #E7B40E",
"b@	c #EFBA09",
"c@	c #EBC95F",
"d@	c #FCFBFB",
"e@	c #EFB763",
"f@	c #EF9209",
"g@	c #E78C0E",
"h@	c #EEB70E",
"i@	c #E4D3AA",
"j@	c #E8E8E8",
"k@	c #EAE9E9",
"l@	c #F0D9B8",
"m@	c #EE950E",
"n@	c #EF9109",
"o@	c #EBB40C",
"p@	c #EFB609",
"q@	c #EEB50F",
"r@	c #E7C261",
"s@	c #E7CE93",
"t@	c #E7D2A2",
"u@	c #E7D2A3",
"v@	c #E8D3A4",
"w@	c #E9D3A4",
"x@	c #EAD4A5",
"y@	c #EBD5A6",
"z@	c #ECD5A7",
"A@	c #EDD5A8",
"B@	c #EFD6A9",
"C@	c #F0D7AC",
"D@	c #F1D7AD",
"E@	c #F0D09D",
"F@	c #EFB868",
"G@	c #EE950F",
"H@	c #EB8D0C",
"I@	c #EEB50A",
"J@	c #EFB409",
"K@	c #EFB009",
"L@	c #EFAC09",
"M@	c #EFAA09",
"N@	c #EFA609",
"O@	c #EFA309",
"P@	c #EF9909",
"Q@	c #EE8E0A",
"R@	c #EBAF0B",
"S@	c #EF9D09",
"T@	c #EB8D0B",
"U@	c #E8A80E",
"V@	c #EAA80D",
"W@	c #EAA70C",
"X@	c #EAA60C",
"Y@	c #EAA40C",
"Z@	c #EAA30C",
"`@	c #EAA20C",
" #	c #EAA00C",
".#	c #EA9F0C",
"+#	c #EA9E0C",
"@#	c #EA9C0C",
"##	c #EA9B0C",
"$#	c #EA990C",
"%#	c #EA970C",
"&#	c #EA960C",
"*#	c #EA940C",
"=#	c #EA930C",
"-#	c #EA920C",
";#	c #EA900C",
">#	c #EA8F0D",
",#	c #E88D0E",
"          . + @ # # $ % & * = - ; > , ' ) ! ~ { ] ^ /           ",
"      ( _ : < [ } } | 1 2 3 4 5 5 6 7 8 9 0 a b c d e f g       ",
"    h _ : < [ } } | 1 2 3 4 5 i 6 7 8 9 0 a b c d e f j k l     ",
"  m _ : n o p q q r s r t t t t u v w x x y y y z A B C D E F   ",
"  _ : G H I J J J K J K J J J J L J L L J I L I I M N O P Q R   ",
"S : < T J J J J J J J J J J J U V W X X Y Z ` I N  ...+.@.R #.$.",
"%.< [ &.J J J J J J J J J *.V =.=.-.-.;.>.>.W ,.'.'.'. .).#.!.~.",
"%.[ } {.J J L L J J J J ].^./.^.(._.:.<.<.[.}.|.1.1.2.2.3.!.4.5.",
"6.} 7.{.J I I L J J J 8.Y Z X 9.J J J J 8.;.0.a.b.b.b.c.d.4.e.f.",
"g.7.| h.L I I I I J J ^.X Y <.J K J J I i.j.j.i.i.i.j.j.d.e.k.l.",
"m.| 1 n.I I I I I J J o.p.<.p.J K J J q.` r.r.r.r.r.r.r.s.k.t.u.",
"v.1 2 n.I I w.I I L I (.x.y.z.A.J J M r.B.N N C.C.C.N N D.t.E.F.",
"G.2 H.I.I w.w.I L L I C.J.K.L.M.N.O.P.Q.q.q.R.R.S.R.R.q.T.E.U.V.",
"W.H.X.I.I M M I I I I I 9.Y.Z.`.`.,. +.+++@+#+$+$+$+$+%+&+U.*+=+",
"-+X.5 ;+M M M I *.>+x.[.,+K.O.'+)+!+++~+.+{+]+'+8.8.8.^+/+*+(+_+",
":+5 i <+M M w.w...Y.[+Z.`.}+|+1+2+3+4+5+6+7+8+9+w.w.M M 0+(+a+b+",
":+i c+<+M d+M I I M I L J J J K %+$+8.M e+f+f+{+J J L I g+a+h+i+",
"j+c+7 k+8.8.M w.M w.I J J J J M $+8.M I 9.l+m+n+o+o+o+J p+h+q+r+",
"s+7 8 t+8.8.d+M M M I L J L J $+8.M I J u+v+v+{+w+w+w+o+x+q+y+z+",
"A+8 B+t+8.8.M M M w.C+D+p.I 8.^+d+I J Z f+5+E+F+G+H+H+w+I+y+J+K+",
"L+B+a M+$+8.8.M d+M >+N+O+O+P+Q+R+S+T+U+8+7+V+H+W+W+G+H+I+J+J+X+",
"Y+a Z+M+$+$+8.8.8.M `+2+ @.@+@@@#@#@$@$@%@&@I *@*@*@W+G+=@J+-@;@",
">@Z+b ,@S.$+^+8.8.M w.d+M.'@)@!@~@{@]@^@/@W+*@(@(@(@*@W+=@-@_@:@",
"<@b [@}@S.S.^+^+8.8.w.%+q.S.$+d+I J o+|@G+W+*@(@1@(@*@W+2@_@3@4@",
"5@[@d 6@q.S.$+$+$+$+r.B.q.S.$+d+w.J o+w+H+W+*@(@(@(@*@7@8@3@9@0@",
"a@d b@c@N S.S.C.` #+i.B.C.S.$+8.M L o+w+H+G+W+*@*@d@W+H+e@9@f@g@",
"  b@j h@i@A.j@k@1.b.i.r.N R.%+8.M I J o+w+H+G+G+7@G+H+l@m@f@n@  ",
"  o@k p@q@r@s@t@u@v@w@x@T.y@z@A@g+B@x+I+C@C@D@D@D@E@F@G@f@n@H@  ",
"    I@J@Q Q K@!.!.L@M@k.t.N@*+O@(+a+h+q+y+J+P@-@_@3@9@f@n@Q@    ",
"      R@Q K@!.!.L@M@k.t.N@*+O@(+a+h+S@y+J+P@-@_@3@9@f@n@T@      ",
"          U@V@W@X@Y@Z@`@ #.#+#@###$#$#%#&#*#=#-#;#>#,#          "};
