/* XPM */
static char * text_bold_xpm[] = {
"32 31 387 2",
"  	c None",
". 	c #EAD20C",
"+ 	c #EBD30C",
"@ 	c #EBD20B",
"# 	c #EBD00B",
"$ 	c #EBCE0B",
"% 	c #EBCC0B",
"& 	c #EBCB0B",
"* 	c #EBCA0B",
"= 	c #EBC80B",
"- 	c #EBC70B",
"; 	c #EBC50B",
"> 	c #EBC30B",
", 	c #EBC10B",
"' 	c #EBC00B",
") 	c #EBBF0B",
"! 	c #EBBE0B",
"~ 	c #EBBC0B",
"{ 	c #EBBA0B",
"] 	c #EBB90C",
"^ 	c #EBB80C",
"/ 	c #ECD70B",
"( 	c #EFDA09",
"_ 	c #EFD909",
": 	c #EFD809",
"< 	c #EFD609",
"[ 	c #EFD409",
"} 	c #EFD209",
"| 	c #EFD009",
"1 	c #EFCF09",
"2 	c #EFCE09",
"3 	c #EFCC09",
"4 	c #EFCA09",
"5 	c #EFC809",
"6 	c #EFC609",
"7 	c #EFC509",
"8 	c #EFC409",
"9 	c #EFC209",
"0 	c #EFC109",
"a 	c #EFBF09",
"b 	c #EFBE09",
"c 	c #EFBC09",
"d 	c #EFBB09",
"e 	c #EFB909",
"f 	c #EEB70A",
"g 	c #EEDA0A",
"h 	c #EFC909",
"i 	c #EFB809",
"j 	c #EFB709",
"k 	c #EFB509",
"l 	c #EBD50C",
"m 	c #EED811",
"n 	c #EDDD70",
"o 	c #EFE4AB",
"p 	c #F0E6C0",
"q 	c #F0E5C0",
"r 	c #F0E6C1",
"s 	c #F0E4C0",
"t 	c #EFE4C0",
"u 	c #EFE3C0",
"v 	c #EFE2BF",
"w 	c #EFE2C0",
"x 	c #EEE2BF",
"y 	c #EEE1BF",
"z 	c #EEDCB0",
"A 	c #EBCE7B",
"B 	c #EEB91A",
"C 	c #EFB309",
"D 	c #EEB10A",
"E 	c #EED80C",
"F 	c #EFE5B5",
"G 	c #F5F5F5",
"H 	c #F6F6F6",
"I 	c #F7F6F6",
"J 	c #F6F5F5",
"K 	c #F4F4F4",
"L 	c #EFEEEE",
"M 	c #E5D9C1",
"N 	c #EEB518",
"O 	c #EFB209",
"P 	c #EFB109",
"Q 	c #EEDB5A",
"R 	c #EEEEEE",
"S 	c #E8E8E8",
"T 	c #E8E7E7",
"U 	c #E7E6E6",
"V 	c #E6C573",
"W 	c #EFAF09",
"X 	c #EBA90C",
"Y 	c #E7CC0E",
"Z 	c #EFE188",
"` 	c #EBEBEB",
" .	c #E9E9E9",
"..	c #E5D0A0",
"+.	c #EFAE09",
"@.	c #E8CC0E",
"#.	c #F0E396",
"$.	c #F3F3F3",
"%.	c #ECEBEB",
"&.	c #EBEAEA",
"*.	c #EAEAEA",
"=.	c #E5D4AF",
"-.	c #EFAD09",
";.	c #EBA80B",
">.	c #E8CB0E",
",.	c #EFD309",
"'.	c #D4D4D4",
").	c #6A6A6A",
"!.	c #474747",
"~.	c #434343",
"{.	c #414141",
"].	c #3F3F3F",
"^.	c #505050",
"/.	c #595959",
"(.	c #4F4F4F",
"_.	c #636363",
":.	c #A3A3A3",
"<.	c #E6D5B0",
"[.	c #EFAB09",
"}.	c #EBA60B",
"|.	c #E8C90E",
"1.	c #F0E195",
"2.	c #858585",
"3.	c #3E3E3E",
"4.	c #3C3C3C",
"5.	c #3A3A3A",
"6.	c #DDDDDD",
"7.	c #F5F4F4",
"8.	c #AFAFAF",
"9.	c #313131",
"0.	c #2D2D2D",
"a.	c #282828",
"b.	c #D7D6D6",
"c.	c #EDEDED",
"d.	c #EDECEC",
"e.	c #E8D5B1",
"f.	c #EFA909",
"g.	c #EBA40B",
"h.	c #E8C80E",
"i.	c #EFE195",
"j.	c #B0B0B0",
"k.	c #383838",
"l.	c #111111",
"m.	c #000000",
"n.	c #E9D6B2",
"o.	c #EFA809",
"p.	c #E8C70E",
"q.	c #EFE095",
"r.	c #B5B5B5",
"s.	c #656565",
"t.	c #040404",
"u.	c #232323",
"v.	c #EFEFEF",
"w.	c #F0EFEF",
"x.	c #EAD7B3",
"y.	c #EFA709",
"z.	c #EBA20B",
"A.	c #E8C60E",
"B.	c #EFCD09",
"C.	c #B9B8B8",
"D.	c #444444",
"E.	c #424242",
"F.	c #404040",
"G.	c #E7E7E7",
"H.	c #5C5C5C",
"I.	c #0E0E0E",
"J.	c #585858",
"K.	c #F1F0F0",
"L.	c #F1F1F1",
"M.	c #F0F0F0",
"N.	c #EFA509",
"O.	c #EBA10B",
"P.	c #E8C40E",
"Q.	c #EFCB09",
"R.	c #EFDE94",
"S.	c #BCBCBC",
"T.	c #4C4C4C",
"U.	c #4A4A4A",
"V.	c #484848",
"W.	c #E2E2E2",
"X.	c #393939",
"Y.	c #191919",
"Z.	c #1B1B1B",
"`.	c #B1B0B0",
" +	c #F2F2F2",
".+	c #F2F1F1",
"++	c #EBD8B4",
"@+	c #EFA409",
"#+	c #EB9F0B",
"$+	c #E8C30E",
"%+	c #C0C0C0",
"&+	c #535353",
"*+	c #515151",
"=+	c #4E4E4E",
"-+	c #C2C2C2",
";+	c #AAAAAA",
">+	c #5F5F5F",
",+	c #242424",
"'+	c #CFCFCF",
")+	c #ECD8B5",
"!+	c #EFA209",
"~+	c #EB9D0B",
"{+	c #E8C10E",
"]+	c #EEDD94",
"^+	c #C4C4C4",
"/+	c #5B5B5B",
"(+	c #565656",
"_+	c #7E7D7D",
":+	c #686767",
"<+	c #363636",
"[+	c #8D8D8D",
"}+	c #E6E5E5",
"|+	c #EDD9B6",
"1+	c #EFA009",
"2+	c #E8C00E",
"3+	c #EFC709",
"4+	c #F4F3F3",
"5+	c #C8C8C8",
"6+	c #616161",
"7+	c #5E5E5E",
"8+	c #D5D4D4",
"9+	c #D8D8D8",
"0+	c #555555",
"a+	c #8E8E8E",
"b+	c #EDD9B7",
"c+	c #EF9F09",
"d+	c #EB9B0B",
"e+	c #E8BF0E",
"f+	c #EEDC94",
"g+	c #CCCCCC",
"h+	c #696969",
"i+	c #686868",
"j+	c #CBCBCB",
"k+	c #BEBEBE",
"l+	c #454545",
"m+	c #F7F7F7",
"n+	c #EEDBB8",
"o+	c #EF9E09",
"p+	c #EB990B",
"q+	c #E8BD0E",
"r+	c #EEDB94",
"s+	c #CFCECE",
"t+	c #707070",
"u+	c #6F6F6F",
"v+	c #6C6C6C",
"w+	c #757575",
"x+	c #F8F8F8",
"y+	c #F9F8F8",
"z+	c #F8F7F7",
"A+	c #EFDBB9",
"B+	c #EF9C09",
"C+	c #EB980B",
"D+	c #E8BC0E",
"E+	c #EFC309",
"F+	c #D2D2D2",
"G+	c #797979",
"H+	c #777777",
"I+	c #727272",
"J+	c #FAF9F9",
"K+	c #FAFAFA",
"L+	c #F9F9F9",
"M+	c #F0DCBA",
"N+	c #EF9A09",
"O+	c #EB970B",
"P+	c #E8BB0E",
"Q+	c #EED993",
"R+	c #D6D6D6",
"S+	c #818181",
"T+	c #7B7B7B",
"U+	c #676767",
"V+	c #BBBBBB",
"W+	c #D9D9D9",
"X+	c #666666",
"Y+	c #919191",
"Z+	c #FBFBFB",
"`+	c #F1DBBA",
" @	c #EB960B",
".@	c #E8BA0E",
"+@	c #EFC009",
"@@	c #EDD993",
"#@	c #CDCDCD",
"$@	c #888888",
"%@	c #747474",
"&@	c #717171",
"*@	c #AEAEAE",
"=@	c #E6E6E6",
"-@	c #FCFCFC",
";@	c #F1DCBB",
">@	c #EF9809",
",@	c #EB940B",
"'@	c #E8B80E",
")@	c #EDD892",
"!@	c #F3F2F2",
"~@	c #9C9C9C",
"{@	c #838383",
"]@	c #7C7C7C",
"^@	c #828282",
"/@	c #B3B3B3",
"(@	c #A1A1A1",
"_@	c #8D8C8C",
":@	c #DEDEDE",
"<@	c #FDFDFD",
"[@	c #FEFEFE",
"}@	c #EF9609",
"|@	c #EB920B",
"1@	c #E8B70E",
"2@	c #EFBD09",
"3@	c #EDD792",
"4@	c #A6A6A6",
"5@	c #9F9F9F",
"6@	c #A09F9F",
"7@	c #A0A0A0",
"8@	c #ABABAB",
"9@	c #E3E3E3",
"0@	c #EF9509",
"a@	c #EB910B",
"b@	c #E7B50E",
"c@	c #ECD27F",
"d@	c #FBFAFA",
"e@	c #FDFCFC",
"f@	c #F0D2A6",
"g@	c #EF9309",
"h@	c #EB900C",
"i@	c #EFBA09",
"j@	c #EDC54C",
"k@	c #EEEDED",
"l@	c #ECECEC",
"m@	c #EFBB70",
"n@	c #EF9209",
"o@	c #EA8E0C",
"p@	c #E7CE8C",
"q@	c #F0D7B3",
"r@	c #EE950F",
"s@	c #EF9109",
"t@	c #E8B10D",
"u@	c #EFB609",
"v@	c #EFB409",
"w@	c #EABE47",
"x@	c #E8CB80",
"y@	c #E7D094",
"z@	c #E8D095",
"A@	c #E9D096",
"B@	c #EAD096",
"C@	c #EBD097",
"D@	c #ECD199",
"E@	c #EDD19A",
"F@	c #EED19B",
"G@	c #EFD29C",
"H@	c #F0D29C",
"I@	c #F0D29D",
"J@	c #F1D29E",
"K@	c #F1D19E",
"L@	c #F1CB90",
"M@	c #EFB35A",
"N@	c #EE940B",
"O@	c #EC8D0B",
"P@	c #EDB30B",
"Q@	c #EFB009",
"R@	c #EFAC09",
"S@	c #EFAA09",
"T@	c #EFA609",
"U@	c #EFA309",
"V@	c #EF9909",
"W@	c #EE8E0A",
"X@	c #E9AC0D",
"Y@	c #EF9D09",
"Z@	c #EB8D0B",
"`@	c #E7A60E",
" #	c #E8A50E",
".#	c #E8A40E",
"+#	c #E8A20E",
"@#	c #E8A10E",
"##	c #E8A00E",
"$#	c #E89E0E",
"%#	c #E89D0E",
"&#	c #E89C0E",
"*#	c #E89B0E",
"=#	c #E8990E",
"-#	c #E8980E",
";#	c #E8970E",
">#	c #E8950E",
",#	c #E8940E",
"'#	c #E8930E",
")#	c #E8920E",
"!#	c #E8900E",
"~#	c #E88F0E",
"{#	c #E78E0E",
"          . + @ # # $ % & * = - ; ; > , ' ) ! ~ { ] ^           ",
"      / ( _ : < [ [ } | 1 2 3 4 4 5 6 7 8 9 0 a b c d e f       ",
"    g ( _ : < [ [ } | 1 2 3 4 h 5 6 7 8 9 0 a b c d e i j k     ",
"  l ( _ m n o p q q r q s t t u u u v v w x v y y z A B k C D   ",
"  ( _ E F G H H H I H I H H H H J H J J H J J G G K L M N O P   ",
"  _ : Q H H H H H H H H H H H J J H J H H J J G R S T U V P W X ",
"Y : < Z H H H H H H H H H H H H H H H H H H K `  . . . ...W +.X ",
"@.< [ #.H H J J H H H H H J H J H H H H H $.%.&.&.&.&.*.=.+.-.;.",
">.[ ,.#.H G G J H '.).!.~.{.].^./.(._.:.S %.%.%.%.%.%.%.<.-.[.}.",
"|.,.} 1.J G G G G H H 2.3.4.5.6.7.8.9.0.a.b.c.c.c.c.c.d.e.[.f.g.",
"h.} | i.G G G G G H H j.4.5.k.c.I H {.l.m./.R R R R R R n.f.o.g.",
"p.| 1 q.G G 7.G G J G r.3.4.5.*.H H s.t.t.u.v.w.w.w.w.v.x.o.y.z.",
"A.1 B.q.G 7.7.G J J G C.D.E.F.G.H H H.I.I.J.K.L.L.L.K.M.x.y.N.O.",
"P.B.Q.R.G K K G G G G S.T.U.V.W.H $.X.Y.Z.`. + + + + +.+++N.@+#+",
"$+Q.4 R.K K K 7.G G G %+&+*+=+-+;+>+,+_.'+$.$.$.$.$.$.$.)+@+!+~+",
"{+4 h ]+K K K 7.G G G ^+/+J.(+_+:+<+5.[+}+K K 7.7.7.K K |+!+1+~+",
"2+h 3+]+K 4+K G G K G 5+6+>+7+8+.+9+0+5.{.a+J H H H J G b+1+c+d+",
"e+3+6 f+$.$.K 7.K 7.G g+h+i+s.j+ +$.k+l+l+l+8.m+m+m+m+H n+c+o+p+",
"q+6 7 r+$.$.4+K K K G s+t+u+v+%+$.K $.*+^.^.w+x+y+x+x+z+A+o+B+C+",
"D+7 E+r+$.$.K K K 7.7.F+G+H+h+k+4+7.H 6+/+/+I+J+K+J+L+y+M+B+N+O+",
"P+E+0 Q+ +$.$.K 4+K G R+S+T+U+V+K G W+X+X+X+Y+Z+Z+Z+K+L+`+N+N+ @",
".@0 +@@@ + +$.$.$.K K #@$@%@&@*@K J ;+&@&@w+=@-@-@-@Z+K+;@N+>@,@",
"'@+@a )@L. +!@$.$.K j+~@{@]@]@^@/@(@]@]@_@:@-@<@[@<@-@Z+;@>@}@|@",
"1@a 2@3@L.L.!@!@$.$.8.4@5@5@5@6@7@8@%+9@J+Z+-@<@[@<@-@Z+;@}@0@a@",
"b@2@c c@M.L. + + + +R L w.L. +$.7.H m+x+L+d@-@e@<@<@-@Z+f@0@g@h@",
"  c i@j@v.L.L.w.k@l@c.R w.K. +$.K J I x+L+K+Z+Z+-@Z+Z+L+m@g@n@o@",
"  i@i j p@}+S  .&.%.c.R v.K..+$.K G H m+x+L+K+K+K+K+L+q@r@n@s@  ",
"  t@j u@v@w@x@y@z@A@B@C@D@D@E@F@F@G@H@H@I@J@K@J@K@L@M@N@n@s@O@  ",
"    P@v@O O Q@+.+.R@S@f.o.T@@+U@!+1+c+o+B+N+V@>@}@0@g@n@s@W@    ",
"      X@O Q@+.+.R@S@f.o.T@@+U@!+1+c+Y@B+N+V@>@}@0@g@n@s@Z@      ",
"            `@ #.#+#@###$#%#&#*#=#-#;#>#,#'#)#!#~#{#            "};
