/* XPM */
static char * todo_branch_xpm[] = {
"16 32 2 1",
" 	c None",
".	c #000000",
"                ",
"                ",
"      ...       ",
"      ...       ",
"      ...       ",
"                ",
"                ",
"      ...       ",
"      ...       ",
"      ...       ",
"                ",
"                ",
"      ...       ",
"      ...       ",
"      ...       ",
"                ",
"                ",
"      ...       ",
"      ...       ",
"      ...       ",
"                ",
"                ",
"      ...       ",
"      ...       ",
"      ...       ",
"                ",
"                ",
"      ... ...   ",
"      ... ...   ",
"      ... ...   ",
"                ",
"                "};
