/* XPM */
static char * undo_xpm[] = {
"16 16 66 1",
" 	c None",
".	c #3485F6",
"+	c #1E76F7",
"@	c #2D74F8",
"#	c #96B6F1",
"$	c #719FF1",
"%	c #1766F5",
"&	c #1D6BF7",
"*	c #7FA7F1",
"=	c #9ABDFE",
"-	c #95B9FC",
";	c #528CF7",
">	c #0B61FD",
",	c #0F61F9",
"'	c #508AF4",
")	c #699EFF",
"!	c #669BFB",
"~	c #3078FC",
"{	c #0058F7",
"]	c #0054F0",
"^	c #095DF9",
"/	c #196AFF",
"(	c #2F78FF",
"_	c #498AFF",
":	c #4587FF",
"<	c #2874FF",
"[	c #1668FF",
"}	c #0057F6",
"|	c #1060F2",
"1	c #347CFE",
"2	c #397EFE",
"3	c #1666F8",
"4	c #0153EA",
"5	c #0052E8",
"6	c #0557EC",
"7	c #216EFB",
"8	c #317AFF",
"9	c #2773FF",
"0	c #085CF6",
"a	c #004EDE",
"b	c #004FDF",
"c	c #004FE1",
"d	c #0558EF",
"e	c #2270FE",
"f	c #2873FF",
"g	c #2270FF",
"h	c #0F61F8",
"i	c #0355EB",
"j	c #0450DD",
"k	c #0351E0",
"l	c #0154ED",
"m	c #0052EA",
"n	c #004DDA",
"o	c #0457EE",
"p	c #1565F9",
"q	c #1B6BFF",
"r	c #1F6EFF",
"s	c #1A6AFF",
"t	c #1464F8",
"u	c #0759F0",
"v	c #004DDB",
"w	c #0050E3",
"x	c #0655E7",
"y	c #0A59EC",
"z	c #0A59EB",
"A	c #0555E7",
"                ",
"                ",
"                ",
"    .+          ",
"   @#$%         ",
"  &*=-;>        ",
" ,')))!~{       ",
"]^/(_:<[}       ",
"   |1234       5",
"   67890     abc",
"    defghijklmn ",
"     opqrrstuv  ",
"      wxyzAw    ",
"                ",
"                ",
"                "};
