/* XPM */
static char * yellow_minus_xpm[] = {
"12 12 11 1",
" 	c None",
".	c #393900",
"+	c #909000",
"@	c #979700",
"#	c #969600",
"$	c #3E3E00",
"%	c #3B3B00",
"&	c #C0C000",
"*	c #C7C700",
"=	c #C6C600",
"-	c #424200",
"            ",
"            ",
"            ",
"            ",
"            ",
".+@@@@@@@@#$",
"%&********=-",
"            ",
"            ",
"            ",
"            ",
"            "};
