/* XPM */
static char * yellow_plus_xpm[] = {
"12 12 7 1",
" 	c None",
".	c #494900",
"+	c #BFBF00",
"@	c #C6C600",
"#	c #EDED00",
"$	c #D5D500",
"%	c #C0C000",
"     ..     ",
"     ++     ",
"     ++     ",
"     ++     ",
"     @@     ",
".++++##++++.",
".++++##++++.",
"     $$     ",
"     %%     ",
"     ++     ",
"     ++     ",
"     ..     "};
